<ttFont>
          <CharString index="0">
            -104 callsubr
            -25 48 hvcurveto
            return
          </CharString>
          <CharString index="1">
            vvcurveto
            -52 33 -21 25 54 13 -105 callgsubr
          </CharString>
          <CharString index="2">
            -103 callgsubr
            -98 callsubr
            return
          </CharString>
          <CharString index="3">
            -99 callgsubr
            -31 21 return
          </CharString>
          <CharString index="4">
            -99 callsubr
            -20 return
          </CharString>
          <CharString index="5">
            vvcurveto
            78 -48 70 -81 -152 -98 -128 -146 -93 callgsubr
            return
          </CharString>
          <CharString index="6">
            -100 callgsubr
            -55 182 -227 54 23 -16 callgsubr
            return
          </CharString>
          <CharString index="7">
            -101 callsubr
            43 5 42 15 return
          </CharString>
          <CharString index="8">
            20 29 27 27 return
          </CharString>
          <CharString index="9">
            114 -107 callgsubr
            return
          </CharString>
          <CharString index="10">
            -38 5 -26 -40 hhcurveto
            -24 -27 36 51 89 68 77 73 25 6 -28 -30 hvcurveto
            -24 -7 -28 -23 vvcurveto
            -24 7 -18 31 return
          </CharString>
          <CharString index="11">
            -100 callsubr
            37 20 rlinecurve
            return
          </CharString>
          <CharString index="12">
            -98 callgsubr
            -102 -106 -86 -70 return
          </CharString>
          <CharString index="13">
            -82 callgsubr
            50 rrcurveto
            return
          </CharString>
          <CharString index="14">
            4 -27 3 -26 2 -25 rrcurveto
            -22 2 14 -22 25 -63 callsubr
            115 -104 callgsubr
          </CharString>
          <CharString index="15">
            -76 callsubr
            -47 callgsubr
            115 -104 callgsubr
          </CharString>
          <CharString index="16">
            5 hlineto
            -22 -60 -18 -63 -16 -53 rrcurveto
            29 -43 -44 21 -45 hhcurveto
            -46 -45 -24 -58 -98 118 -90 54 42 31 29 51 28 hvcurveto
            26 -20 25 -20 23 -15 rrcurveto
            -35 52 51 -14 43 hhcurveto
            44 53 13 30 19 -20 8 -45 -77 -71 56 56 -71 hvcurveto
            12 33 11 37 12 42 13 46 22 55 21 46 rrcurveto
            73 25 63 44 49 vvcurveto
            41 -30 37 -42 -56 -42 -43 -62 -35 vhcurveto
            -3 -15 -18 -1 -20 -57 callgsubr
          </CharString>
          <CharString index="17">
            -35 -7 3 -22 hhcurveto
            -20 -7 -9 -20 -19 11 -18 18 -14 hvcurveto
            -61 -10 -78 -52 -84 hhcurveto
            -24 -6 4 26 72 37 86 81 32 hvcurveto
            23 9 33 2 27 vvcurveto
            25 -57 32 -41 -100 -85 -143 -119 -85 52 -69 88 132 150 77 105 197 callgsubr
            return
          </CharString>
          <CharString index="18">
            rmoveto
            26 79 25 76 17 55 6 -56 6 -73 7 -71 -30 -3 -29 -3 -28 -4 rrcurveto
            214 17 rmoveto
            215 -15 -39 141 -47 hhcurveto
            -32 -100 -37 -45 -14 hvcurveto
            -36 -112 -39 -96 -23 -70 -5 -15 -5 -14 -6 -15 rrcurveto
            -60 -18 -39 -22 -23 vvcurveto
            -25 19 -31 23 -15 vhcurveto
            -22 -50 -17 -39 -17 vvcurveto
            -45 67 -41 23 20 41 97 119 43 vhcurveto
            13 4 14 4 15 4 29 8 37 8 39 9 5 -54 5 -47 5 -30 rrcurveto
            -103 16 17 -19 27 hhcurveto
            33 15 34 129 42 -1 41 -1 38 hvcurveto
            50 16 37 18 21 vvcurveto
            28 -24 7 -51 vhcurveto
            endchar
          </CharString>
          <CharString index="19">
            -71 callsubr
            -107 456 rmoveto
            -77 callsubr
            return
          </CharString>
          <CharString index="20">
            -10 -62 -8 -51 -14 96 callsubr
            149 32 vhcurveto
            45 69 69 38 25 hhcurveto
            5 2 -12 -19 -51 -27 -100 -40 -26 hvcurveto
            -22 -14 -27 11 -26 vvcurveto
            -33 53 -46 34 101 47 209 109 72 -40 47 -73 -33 -54 -21 -31 -57 vhcurveto
            9 45 8 41 2 26 rrcurveto
            323 -104 callgsubr
          </CharString>
          <CharString index="21">
            2 hlineto
            -10 -37 -6 -38 -38 vvcurveto
            -65 15 -98 41 61 -28 110 95 17 vhcurveto
            -2 callsubr
            159 -107 callgsubr
            endchar
          </CharString>
          <CharString index="22">
            -96 callgsubr
            159 -104 callgsubr
          </CharString>
          <CharString index="23">
            -107 callsubr
            47 hlineto
            -7 -30 -6 -31 -6 -31 -50 -33 -54 -23 -58 -19 rrcurveto
            24 39 15 42 37 vvcurveto
            89 -46 53 -92 -89 -119 -65 -73 -25 48 -49 16 11 14 8 4 7 vhcurveto
            11 7 0 11 19 vvcurveto
            24 60 24 38 29 9 -6 -27 -47 -38 -53 -50 -42 vhcurveto
            1 -12 -11 1 -12 hhcurveto
            -71 -31 -13 -29 -27 52 -49 31 24 26 8 13 26 hvcurveto
            12 -10 7 -16 -23 vvcurveto
            -62 -67 -24 -65 -65 -48 44 61 26 -26 22 -21 -37 -23 -27 -49 -83 81 -100 138 150 105 73 119 29 -9 25 -16 20 vhcurveto
            50 9 50 11 48 17 -33 callsubr
            return
          </CharString>
          <CharString index="24">
            rmoveto
            -16 -28 36 23 18 30 12 46 8 hvcurveto
            -56 -7 -11 -41 -14 hhcurveto
            -99 150 callgsubr
            148 -61 callgsubr
            return
          </CharString>
          <CharString index="25">
            -69 callgsubr
            35 return
          </CharString>
          <CharString index="26">
            rmoveto
            14 52 10 54 51 vvcurveto
            25 7 28 7 30 6 rrcurveto
            113 21 129 -7 56 vvcurveto
            40 -122 8 -94 -160 -65 -4 -39 -16 vhcurveto
            -1 -2 -1 -3 -1 -4 308 callsubr
            -6 -5 vvcurveto
            -3 0 -4 1 -3 vhcurveto
            -6 -177 -100 -231 -112 vvcurveto
            -56 59 -55 61 114 callgsubr
            vhcurveto
            -23 -116 -41 -143 hhcurveto
            -10 291 callsubr
            18 55 21 65 hvcurveto
            104 4 156 31 65 vvcurveto
            14 -13 10 -17 vhcurveto
            -44 -53 -11 -94 hhcurveto
            endchar
          </CharString>
          <CharString index="27">
            -45 44 -49 63 -40 55 rrcurveto
            11 14 14 6 15 hhcurveto
            18 15 -14 -24 14 hvcurveto
            -22 13 14 -16 28 hhcurveto
            22 14 19 28 56 -63 84 -64 -144 -109 -163 -132 121 callgsubr
            return
          </CharString>
          <CharString index="28">
            -107 callsubr
            47 hlineto
            -7 -30 -6 -31 -6 -31 -50 -33 -53 -23 -58 -19 rrcurveto
            24 36 14 37 35 vvcurveto
            86 -54 66 -96 -71 -75 -65 -73 228 callgsubr
            -41 -39 -46 -59 -36 vhcurveto
            1 -12 -12 1 -12 hhcurveto
            -71 -47 -8 -34 -32 55 -54 27 36 39 12 19 36 hvcurveto
            12 -9 6 -12 -14 vvcurveto
            -70 -111 -40 -101 -138 -18 52 110 21 -2 18 -7 11 vhcurveto
            8 -5 -9 5 -13 hhcurveto
            -58 -29 -58 -55 -143 112 -75 175 184 142 83 119 26 -6 21 -11 18 hvcurveto
            47 9 47 11 46 16 -33 callsubr
            return
          </CharString>
          <CharString index="29">
            rmoveto
            -80 callgsubr
            return
          </CharString>
          <CharString index="30">
            -107 callsubr
            175 -88 callgsubr
            return
          </CharString>
          <CharString index="31">
            -97 callsubr
            36 100 95 50 56 vhcurveto
            11 10 12 10 12 11 -7 -50 rcurveline
            return
          </CharString>
          <CharString index="32">
            hhcurveto
            -142 -158 -39 -99 -83 120 -139 90 98 32 96 87 29 -3 23 -6 18 hvcurveto
            return
          </CharString>
          <CharString index="33">
            -44 callsubr
            -210 -184 rmoveto
            -38 callgsubr
            -112 -89 -68 -93 22 callsubr
            return
          </CharString>
          <CharString index="34">
            vvcurveto
            -52 33 -21 25 54 return
          </CharString>
          <CharString index="35">
            -8 -50 -11 -47 -8 -35 rrcurveto
            13 -26 -30 8 -26 hhcurveto
            -42 -72 -46 -54 -65 hvcurveto
            -69 -58 -59 -67 -30 138 callgsubr
            54 61 49 61 vhcurveto
            43 54 42 30 32 hhcurveto
            27 23 -12 -12 21 hvcurveto
            -14 25 22 -16 23 hhcurveto
            0 1 vlineto
            -65 callsubr
            32 callgsubr
            endchar
          </CharString>
          <CharString index="36">
            rmoveto
            -22 -25 56 19 19 21 11 39 11 13 -1 -2 14 hvcurveto
            -59 -11 -17 -43 -23 hhcurveto
            return
          </CharString>
          <CharString index="37">
            -30 -37 -48 -30 -56 -63 -2 15 -29 hhcurveto
            -20 -7 -9 -20 -27 16 -21 23 -16 hvcurveto
            -58 -12 -77 -42 -83 hhcurveto
            -24 -6 4 26 57 30 97 81 32 hvcurveto
            23 9 33 2 27 vvcurveto
            25 -57 32 -41 return
          </CharString>
          <CharString index="38">
            40 -78 callsubr
            return
          </CharString>
          <CharString index="39">
            rmoveto
            -16 -8 -7 -18 -6 hvcurveto
            -200 -65 -139 -164 -27 hhcurveto
            -3 -2 2 4 hvcurveto
            94 101 174 32 vvcurveto
            40 -34 43 -40 -69 -88 -278 -116 -55 83 -67 39 48 64 73 75 52 vhcurveto
            -7 -33 -5 -32 -25 vvcurveto
            -41 23 -17 24 22 15 11 31 10 vhcurveto
            61 196 56 143 23 vvcurveto
            39 -54 73 -35 vhcurveto
            return
          </CharString>
          <CharString index="40">
            hlineto
            -7 -50 -8 -58 -8 -53 rrcurveto
            43 -18 -32 36 -56 hhcurveto
            -123 -121 -192 -91 -51 78 -59 48 return
          </CharString>
          <CharString index="41">
            rmoveto
            18 37 -35 -13 -39 -71 -9 -66 -8 -9 0 1 -9 hvcurveto
            52 32 42 43 34 hhcurveto
            -40 -191 rmoveto
            101 callsubr
            -120 -151 -192 -142 -95 64 -87 132 101 103 57 52 16 -10 11 -31 hvcurveto
            -28 -30 -28 -126 hhcurveto
            -51 -3 17 36 15 3 18 6 207 callgsubr
            44 hhcurveto
            endchar
          </CharString>
          <CharString index="42">
            35 24 157 -47 callsubr
            return
          </CharString>
          <CharString index="43">
            106 86 57 91 hvcurveto
            159 -236 -19 21 vvcurveto
            21 81 18 40 vhcurveto
            29 18 -13 21 hhcurveto
            0 1 vlineto
            28 15 26 43 42 4 32 3 25 hvcurveto
            158 -104 callgsubr
          </CharString>
          <CharString index="44">
            hhcurveto
            32 43 133 142 34 hvcurveto
            25 106 21 109 9 65 rrcurveto
            return
          </CharString>
          <CharString index="45">
            -34 callsubr
            43 57 -6 -10 50 vhcurveto
            -15 -100 -6 -79 -48 vvcurveto
            -24 46 -38 26 34 14 180 133 29 vhcurveto
            21 93 29 105 8 44 rrcurveto
            return
          </CharString>
          <CharString index="46">
            rmoveto
            59 -74 53 -28 -23 -7 -13 -20 vhcurveto
            -91 -80 -198 -196 vvcurveto
            -86 87 -131 93 209 141 346 216 98 -100 76 -33 -20 -6 -12 -19 vhcurveto
            -33 13 -16 -99 vvcurveto
            -215 -126 -203 -68 -33 -17 48 50 vhcurveto
            125 72 189 72 vvcurveto
            return
          </CharString>
          <CharString index="47">
            4 -20 4 -25 -28 vvcurveto
            -93 -76 -153 -57 -25 -10 43 51 107 47 74 7 44 vhcurveto
            -281 -89 callgsubr
            147 -31 callgsubr
            return
          </CharString>
          <CharString index="48">
            231 callgsubr
            -274 108 rmoveto
            -26 callsubr
            return
          </CharString>
          <CharString index="49">
            -38 7 54 -57 34 36 14 52 43 hhcurveto
            22 8 -9 -21 -67 -65 -56 -88 -28 hvcurveto
            33 -25 -30 25 -48 hhcurveto
            return
          </CharString>
          <CharString index="50">
            vvcurveto
            -24 52 -38 26 34 34 183 133 30 vhcurveto
            19 84 33 109 9 46 rrcurveto
            return
          </CharString>
          <CharString index="51">
            rmoveto
            -90 86 -127 104 207 178 271 187 142 -87 134 -134 -144 -210 -260 -257 vhcurveto
            366 386 rmoveto
            39 28 -49 -106 -141 -159 -186 -85 -24 -18 38 58 181 154 205 65 hvcurveto
            return
          </CharString>
          <CharString index="52">
            -69 12 -94 26 105 vvcurveto
            60 43 35 75 50 33 -31 -42 -31 4 -21 19 40 26 46 46 80 -79 59 -98 -8 -7 0 -1 -8 vhcurveto
            -2 6 -1 7 8 vvcurveto
            22 18 15 75 vhcurveto
            28 26 -2 22 hhcurveto
            15 14 1 4 10 hvcurveto
            36 8 12 69 50 vvcurveto
            18 -3 18 -5 17 vhcurveto
            106 -104 callgsubr
          </CharString>
          <CharString index="53">
            -99 callgsubr
            -26 15 -23 35 -5 hvcurveto
            -13 -85 -12 -76 -12 -82 rrcurveto
            -15 -105 -20 -115 -23 -29 callgsubr
          </CharString>
          <CharString index="54">
            288 callsubr
            -120 224 -48 -77 vvcurveto
            -20 -19 -15 -31 -8 vhcurveto
            82 -39 -49 73 -84 hhcurveto
            -72 -56 -40 -69 -90 95 -65 132 hvcurveto
            8 7 0 8 hhcurveto
            -121 51 51 -96 44 hhcurveto
            20 11 9 19 38 -44 67 -41 96 hvcurveto
            79 18 47 40 61 return
          </CharString>
          <CharString index="55">
            rmoveto
            89 -77 87 -101 -102 -131 -179 -170 -94 63 -74 72 154 122 178 163 vhcurveto
            -149 83 rmoveto
            16 -21 2 -48 -25 vvcurveto
            -72 -58 -122 -76 -34 vhcurveto
            -11 15 -1 35 33 vvcurveto
            70 69 135 59 34 vhcurveto
            return
          </CharString>
          <CharString index="56">
            -67 callsubr
            31 66 22 33 79 hvcurveto
            -9 -39 -6 -31 -13 251 callgsubr
            return
          </CharString>
          <CharString index="57">
            86 vvcurveto
            19 -2 17 -4 15 vhcurveto
            return
          </CharString>
          <CharString index="58">
            15 callgsubr
            95 210 callgsubr
            return
          </CharString>
          <CharString index="59">
            -415 hlineto
            -77 callsubr
            124 hlineto
            return
          </CharString>
          <CharString index="60">
            155 35 hvcurveto
            60 callsubr
            return
          </CharString>
          <CharString index="61">
            6 35 10 30 11 26 rrcurveto
            75 25 65 44 50 vvcurveto
            41 -30 37 -42 return
          </CharString>
          <CharString index="62">
            hlineto
            -25 -68 -14 -88 -66 vvcurveto
            -93 17 -94 68 62 61 25 29 53 vhcurveto
            -10 -63 -8 -51 -15 vvcurveto
            -52 33 -21 25 52 14 return
          </CharString>
          <CharString index="63">
            rmoveto
            32 37 16 34 37 38 -25 -56 -6 0 -6 -1 -5 vhcurveto
            -2 -19 -22 -3 -24 hhcurveto
            -45 -35 19 36 hvcurveto
            return
          </CharString>
          <CharString index="64">
            -8 callgsubr
            196 272 callsubr
            20 -25 45 -1 hvcurveto
            -9 -65 -10 -59 -9 -61 rrcurveto
            -85 -74 -133 -84 -75 -40 callsubr
            return
          </CharString>
          <CharString index="65">
            rrcurveto
            4 -16 -17 3 -19 hhcurveto
            -156 -154 -74 -91 -56 69 -63 79 80 29 64 52 28 -5 27 -8 21 hvcurveto
            6 24 26 3 28 hhcurveto
            35 31 -13 -17 27 hvcurveto
            -5 7 6 -3 5 hhcurveto
            return
          </CharString>
          <CharString index="66">
            vvcurveto
            -96 88 -56 127 -12 vhcurveto
            -115 12 60 -117 60 hhcurveto
            23 16 8 22 31 -51 54 -11 118 hvcurveto
            111 16 87 69 78 vvcurveto
            57 -55 55 -65 -111 -54 -84 -87 -18 vhcurveto
            -46 6 -39 16 36 vvcurveto
            return
          </CharString>
          <CharString index="67">
            -60 callgsubr
            128 118 92 105 51 -29 38 -53 return
          </CharString>
          <CharString index="68">
            141 callgsubr
            -30 46 -58 75 return
          </CharString>
          <CharString index="69">
            rmoveto
            -7 -11 -17 -4 -19 hhcurveto
            -37 -37 23 24 21 17 21 30 36 48 -40 -22 -3 -1 -2 -1 -3 hvcurveto
            return
          </CharString>
          <CharString index="70">
            -24 -22 -22 -16 -38 80 -16 55 -27 hvcurveto
            -49 101 80 -56 32 hhcurveto
            13 6 7 15 55 -247 147 -74 hvcurveto
            return
          </CharString>
          <CharString index="71">
            -12 -20 -18 -25 -31 -30 -48 -46 -47 -41 -39 -37 rrcurveto
            74 -5 -47 63 -77 hhcurveto
            return
          </CharString>
          <CharString index="72">
            2 callsubr
            -50 -44 -48 -46 -41 hvcurveto
            -41 -62 -4 -6 -97 hvcurveto
            13 52 7 54 52 vvcurveto
            20 -1 19 -3 18 vhcurveto
            -238 -402 45 callgsubr
            return
          </CharString>
          <CharString index="73">
            91 -134 -16 115 vvcurveto
            44 35 30 87 return
          </CharString>
          <CharString index="74">
            rrcurveto
            -26 -115 -19 -95 -53 -57 callsubr
            return
          </CharString>
          <CharString index="75">
            rmoveto
            38 -35 -13 43 -26 hhcurveto
            -19 -42 -29 -27 -47 hvcurveto
            -49 -28 -24 -26 -36 vvcurveto
            -27 17 -22 27 38 16 37 36 70 vhcurveto
            -45 35 63 -47 38 hhcurveto
            16 14 15 11 39 -47 32 -32 36 hvcurveto
            return
          </CharString>
          <CharString index="76">
            -250 151 712 rmoveto
            -3 -104 -98 -446 -44 vvcurveto
            -28 60 -77 28 30 19 127 145 30 vhcurveto
            36 174 33 114 34 vvcurveto
            60 -76 78 -28 -22 -8 -12 -21 -1 vhcurveto
            return
          </CharString>
          <CharString index="77">
            55 callsubr
            -273 -89 callgsubr
            137 28 callsubr
            return
          </CharString>
          <CharString index="78">
            1 8 0 7 125 callgsubr
            return
          </CharString>
          <CharString index="79">
            rmoveto
            -22 -4 -21 -21 -21 -20 9 14 14 23 23 37 19 vhcurveto
            4 -11 2 -12 -13 vvcurveto
            return
          </CharString>
          <CharString index="80">
            -56 -40 -107 -103 -49 vvcurveto
            -16 24 -21 16 20 47 56 52 53 vhcurveto
            47 47 52 51 39 30 rrcurveto
            -7 -31 -10 -29 -18 300 callsubr
            43 128 122 23 vhcurveto
            48 47 97 68 253 callgsubr
            -117 -126 -73 -50 vvcurveto
            -18 25 -14 18 return
          </CharString>
          <CharString index="81">
            -107 callsubr
            138 -45 callsubr
            143 return
          </CharString>
          <CharString index="82">
            vvcurveto
            -26 30 -35 18 27 81 101 52 22 vhcurveto
            -58 3 54 -123 55 hhcurveto
            16 7 9 17 return
          </CharString>
          <CharString index="83">
            vvcurveto
            28 -5 26 -9 23 vhcurveto
            return
          </CharString>
          <CharString index="84">
            -11 -21 -7 -23 -4 -22 rrcurveto
            9 -18 -19 6 -17 hhcurveto
            return
          </CharString>
          <CharString index="85">
            rmoveto
            -70 callsubr
            -43 -37 -22 -35 -29 vhcurveto
            23 -17 -25 15 -36 hhcurveto
            -46 -47 -16 -27 -51 hvcurveto
            10 51 8 45 3 28 rrcurveto
            686 hlineto
            -822 90 callsubr
            56 25 38 hhcurveto
            19 10 -15 -26 hvcurveto
            -24 -2 -13 -22 vvcurveto
            -8 vlineto
            -10 vlineto
            -74 callgsubr
          </CharString>
          <CharString index="86">
            97 callgsubr
            100 117 23 vhcurveto
            1 23 23 0 24 return
          </CharString>
          <CharString index="87">
            -47 8 15 -41 27 hhcurveto
            61 -28 110 95 17 hvcurveto
            -2 callsubr
            return
          </CharString>
          <CharString index="88">
            rmoveto
            25 23 29 29 39 hvcurveto
            43 32 50 27 30 vvcurveto
            23 -12 12 -25 -18 -47 -13 -47 -65 vhcurveto
            50 -60 -13 44 -45 hhcurveto
            -28 -17 -25 -29 -55 125 -107 25 hvcurveto
            return
          </CharString>
          <CharString index="89">
            -15 -15 0 -15 hhcurveto
            8 65 2 63 48 4 0 3 4 vvcurveto
            return
          </CharString>
          <CharString index="90">
            vvcurveto
            11 7 4 17 vhcurveto
            67 41 -39 31 hhcurveto
            6 5 1 2 4 hvcurveto
            28 11 11 96 64 vvcurveto
            9 -1 8 -2 7 vhcurveto
            return
          </CharString>
          <CharString index="91">
            rmoveto
            146 126 93 114 hvcurveto
            145 -223 113 40 vvcurveto
            22 46 21 75 29 vhcurveto
            68 26 87 0 32 vvcurveto
            42 -34 58 -54 -87 -131 -59 -71 -72 vhcurveto
            -23 -20 -17 -59 -42 -70 226 -152 -53 vvcurveto
            -31 -89 -61 -57 vhcurveto
            -93 -29 96 -59 hhcurveto
            -22 -9 -24 -30 -66 84 -93 141 hvcurveto
            endchar
          </CharString>
          <CharString index="92">
            rmoveto
            7 -30 -32 10 -51 hhcurveto
            -109 -76 -19 -38 -24 44 -65 32 hvcurveto
            44 16 12 61 hhcurveto
            43 32 0 -11 hvcurveto
            -34 -325 -144 -80 vvcurveto
            -31 64 -83 70 166 144 33 65 27 -28 11 -25 vhcurveto
            -64 -67 -8 -87 hhcurveto
            -4 -2 1 2 hvcurveto
            19 278 110 124 vvcurveto
            26 -46 77 -48 13 vhcurveto
            return
          </CharString>
          <CharString index="93">
            3 143 161 44 callsubr
            372 501 rmoveto
            -28 23 -72 13 66 vvcurveto
            235 callsubr
            -49 20 -42 31 -29 hvcurveto
            -198 -64 callgsubr
            253 -2 hlineto
            -25 0 -27 1 -25 vhcurveto
            13 -34 -41 -53 callsubr
            160 -208 29 46 vvcurveto
            11 7 4 17 vhcurveto
            67 41 -39 31 hhcurveto
            6 4 1 1 4 hvcurveto
            2 1 2 1 2 2 3 2 2 3 2 4 rrcurveto
            17 30 9 76 53 vvcurveto
            9 -1 8 -2 7 vhcurveto
            127 -107 callgsubr
            return
          </CharString>
          <CharString index="94">
            -37 callgsubr
            -114 -153 -201 -106 return
          </CharString>
          <CharString index="95">
            hhcurveto
            -11 0 42 24 68 11 76 33 70 hvcurveto
            return
          </CharString>
          <CharString index="96">
            hlineto
            -98 callgsubr
            return
          </CharString>
          <CharString index="97">
            rmoveto
            -11 -73 -10 -65 -10 -69 rrcurveto
            -38 -58 -61 -35 -22 -12 callsubr
            return
          </CharString>
          <CharString index="98">
            83 -24 77 -4 -29 vvcurveto
            -21 -21 -22 -64 -66 -29 16 36 -16 vhcurveto
            return
          </CharString>
          <CharString index="99">
            hlineto
            -24 -157 rlineto
            46 -82 -143 40 -86 hhcurveto
            -31 -23 -15 -26 -40 89 -10 123 -37 hvcurveto
            41 -12 38 -15 30 106 callsubr
            31 19 34 20 32 19 rrcurveto
            -10 -65 -8 -53 61 callsubr
          </CharString>
          <CharString index="100">
            662 rmoveto
            -2 15 -6 23 -8 27 rrcurveto
            3 hlineto
            61 58 79 126 62 -14 53 -59 -25 -17 -18 -22 hvcurveto
            -29 6 -32 -25 vvcurveto
            -51 -12 -41 -24 -13 -13 27 16 -10 vhcurveto
            0 vlineto
            55 callgsubr
            return
          </CharString>
          <CharString index="101">
            95 callsubr
            -145 -133 -1 -40 -23 28 -41 28 -1 vhcurveto
            return
          </CharString>
          <CharString index="102">
            198 -104 callgsubr
          </CharString>
          <CharString index="103">
            rmoveto
            45 -59 81 -53 -66 -186 -103 -78 vhcurveto
            -86 181 -56 -58 vvcurveto
            -16 -45 -5 -30 vhcurveto
            -104 -16 39 -35 hhcurveto
            -20 -12 -14 -28 -42 79 -68 122 110 89 73 54 hvcurveto
            117 -172 48 34 vvcurveto
            40 98 18 20 vhcurveto
            37 14 -19 27 hhcurveto
            13 8 9 15 hvcurveto
            return
          </CharString>
          <CharString index="104">
            -53 -106 -123 124 -131 81 65 callsubr
            return
          </CharString>
          <CharString index="105">
            -46 callsubr
            -50 -50 -43 -63 -38 vhcurveto
            -2 -14 -16 -1 -18 -96 callgsubr
            return
          </CharString>
          <CharString index="106">
            554 rmoveto
            -133 -30 -131 -149 -59 12 callgsubr
            return
          </CharString>
          <CharString index="107">
            vvcurveto
            -33 16 -19 33 return
          </CharString>
          <CharString index="108">
            18 callsubr
            -164 150 callsubr
            330 228 callsubr
            return
          </CharString>
          <CharString index="109">
            -101 callgsubr
            -392 hmoveto
            82 callsubr
            return
          </CharString>
          <CharString index="110">
            rmoveto
            -15 -11 -7 -18 -4 hvcurveto
            -193 -62 -144 -171 -24 hhcurveto
            -3 -2 2 4 hvcurveto
            104 99 146 50 vvcurveto
            40 -45 43 -41 -57 -87 -262 -115 -72 81 -67 40 34 50 38 56 44 vhcurveto
            -155 -47 -25 -109 -39 -45 -50 94 -35 hhcurveto
            -20 -36 -48 -31 -48 86 -65 93 108 51 83 105 36 hvcurveto
            116 337 41 110 38 vvcurveto
            59 -49 52 -38 vhcurveto
            return
          </CharString>
          <CharString index="111">
            rmoveto
            44 -40 73 -50 -36 -16 -146 -96 -20 vhcurveto
            -20 -98 -24 -74 -47 vvcurveto
            -27 21 -27 31 20 21 7 32 10 vhcurveto
            40 122 63 209 28 vvcurveto
            return
          </CharString>
          <CharString index="112">
            590 80 rmoveto
            270 callgsubr
            hvcurveto
            7 33 12 67 6 46 rrcurveto
            270 hlineto
            47 -103 callsubr
            25 -48 hvcurveto
            -736 285 callsubr
            -22 -155 rlineto
            40 265 callgsubr
            -105 -120 -184 -91 -26 35 -60 65 15 17 4 7 18 hvcurveto
            -27 callsubr
            vhcurveto
            -394 117 126 callsubr
            return
          </CharString>
          <CharString index="113">
            -92 86 -62 119 9 8 0 1 8 vhcurveto
            -30 -34 -48 -19 -48 return
          </CharString>
          <CharString index="114">
            rmoveto
            15 21 -13 -10 -31 -55 -14 -66 -4 hvcurveto
            42 31 31 30 23 hhcurveto
            -358 134 callsubr
            395 hlineto
            -5 -15 -3 -17 -1 -17 rrcurveto
            4 -13 -13 3 -13 hhcurveto
            -127 -246 -185 -132 -40 40 -77 35 -20 hvcurveto
            17 -10 19 -7 21 -6 rrcurveto
            -51 -54 -58 -77 -21 -25 callsubr
            35 -50 75 -5 94 hvcurveto
            132 5 127 49 86 vvcurveto
            55 -91 101 -65 -68 -93 -94 -85 -49 vhcurveto
            147 callgsubr
          </CharString>
          <CharString index="115">
            -106 callgsubr
            494 hlineto
            -18 -121 rlineto
            -27 -37 -49 -28 -56 -52 -9 11 -29 hhcurveto
            -20 -7 -9 -20 -17 9 -16 14 -13 hvcurveto
            -65 -1 -80 -38 -72 25 callgsubr
            vhcurveto
            2 vlineto
            33 2 38 8 35 14 -11 -71 -17 -68 -9 -41 rrcurveto
            6 -18 -20 4 -20 hhcurveto
            -54 -74 -34 -43 -63 hvcurveto
            -74 -50 -60 -62 -33 128 callgsubr
            38 20 -11 -8 22 hvcurveto
            -4 12 13 -3 16 hhcurveto
            35 24 157 155 35 hvcurveto
            11 callgsubr
          </CharString>
          <CharString index="116">
            hlineto
            -4 -26 rlineto
            -176 -33 -95 -135 -130 hhcurveto
            -20 -5 3 15 50 95 62 64 27 hvcurveto
            9 3 6 7 12 209 callsubr
            return
          </CharString>
          <CharString index="117">
            225 407 rmoveto
            -14 -8 29 32 39 42 69 24 8 14 -26 -38 -62 -48 -43 -18 hvcurveto
            531 387 rmoveto
            -40 -224 -164 27 -112 hvcurveto
            -27 6 -10 12 -17 9 rrcurveto
            8 -13 -16 5 -17 hhcurveto
            -110 -87 -159 -74 -83 48 -94 68 113 94 125 107 9 -1 11 -2 12 hvcurveto
            48 -9 88 18 71 37 -137 -189 -225 -299 -12 -53 -7 -30 30 -29 27 -6 23 -6 126 171 116 154 175 239 75 77 15 52 rrcurveto
            44 11 -44 72 -27 hhcurveto
            -35 -675 rmoveto
            -13 -9 28 33 39 42 68 25 7 14 -26 -38 -62 -48 -42 -18 hvcurveto
            55 290 rmoveto
            -110 -86 -159 -74 -84 48 -93 68 113 93 125 106 53 -39 126 -87 hvcurveto
            return
          </CharString>
          <CharString index="118">
            vvcurveto
            -19 60 2 23 -18 vhcurveto
            -70 -35 -91 12 -33 vvcurveto
            -15 30 -23 41 105 104 55 58 1 vhcurveto
            33 -63 27 -32 4 vhcurveto
            return
          </CharString>
          <CharString index="119">
            5 callgsubr
            -86 -144 -72 -57 -29 46 -75 41 -12 hvcurveto
            -9 callsubr
            return
          </CharString>
          <CharString index="120">
            36 callgsubr
            -73 58 -56 81 -24 hvcurveto
            -55 -50 -83 -106 -25 -25 callsubr
            hvcurveto
            37 -55 80 100 vvcurveto
            5 -1 5 -2 5 vhcurveto
            94 8 73 55 84 159 -236 -19 21 vvcurveto
            21 81 18 40 vhcurveto
            29 18 -13 21 hhcurveto
            0 1 vlineto
            28 15 26 43 42 4 32 3 25 hvcurveto
            158 -104 callgsubr
          </CharString>
          <CharString index="121">
            rmoveto
            220 callgsubr
            -55 -37 16 vhcurveto
            -50 -76 -71 -30 -48 hhcurveto
            -12 -5 4 10 hvcurveto
            618 351 rmoveto
            -82 -41 -95 -72 -88 -68 15 69 13 72 3 40 rrcurveto
            return
          </CharString>
          <CharString index="122">
            hlineto
            -13 -97 callgsubr
            return
          </CharString>
          <CharString index="123">
            rmoveto
            -38 -80 -71 -29 96 callgsubr
            return
          </CharString>
          <CharString index="124">
            8 34 5 30 20 vvcurveto
            47 -78 48 -29 -23 -7 -12 -18 -52 -8 -55 -11 -54 vhcurveto
            -90 -13 -65 -19 -22 vvcurveto
            -33 36 -47 31 11 20 4 7 25 vhcurveto
            -34 -116 -38 -99 -44 vvcurveto
            -51 81 -55 39 103 104 87 46 18 -4 12 -21 vhcurveto
            -26 -91 -45 -39 hhcurveto
            -9 -3 0 6 12 21 59 18 58 hvcurveto
            13 43 17 51 15 50 rrcurveto
            return
          </CharString>
          <CharString index="125">
            rmoveto
            -39 -31 7 22 49 152 151 75 39 33 -65 -37 -62 -156 -65 -73 hvcurveto
            return
          </CharString>
          <CharString index="126">
            vvcurveto
            199 callsubr
            vhcurveto
            -33 callgsubr
          </CharString>
          <CharString index="127">
            16 callsubr
            46 13 -66 -38 14 hvcurveto
            348 297 rmoveto
            48 -103 callsubr
            25 -48 hvcurveto
            -665 256 callgsubr
            -52 rrcurveto
            42 -18 -31 36 -56 hhcurveto
            -124 -121 -192 -91 -48 70 -56 48 -6 hvcurveto
            -61 -53 -49 -58 -34 vvcurveto
            -27 14 -20 31 48 50 77 67 72 vhcurveto
            30 28 23 25 20 21 rrcurveto
            -6 -25 -3 -19 -10 172 callsubr
          </CharString>
          <CharString index="128">
            rmoveto
            18 84 19 170 54 vvcurveto
            54 -71 72 -29 -23 -8 -12 -17 vhcurveto
            -330 -109 -317 -26 vvcurveto
            -30 58 -64 29 32 52 222 140 32 vhcurveto
            endchar
          </CharString>
          <CharString index="129">
            67 callsubr
            -17 -13 -27 -35 hvcurveto
            return
          </CharString>
          <CharString index="130">
            405 39 callgsubr
            728 -37 callgsubr
            -89 -112 -121 -104 -45 hvcurveto
            -4 hlineto
            -21 -26 -16 -18 -32 hvcurveto
            -80 callsubr
            92 99 41 45 58 hvcurveto
            -82 11 77 -44 110 hhcurveto
            return
          </CharString>
          <CharString index="131">
            -106 callgsubr
            3 hlineto
            -25 -166 -74 -86 -107 -57 -119 -9 rlinecurve
            125 69 86 115 125 vvcurveto
            74 -47 78 -96 return
          </CharString>
          <CharString index="132">
            -2 vlineto
            -40 75 -78 67 -82 vhcurveto
            -65 callgsubr
            return
          </CharString>
          <CharString index="133">
            500 rmoveto
            -32 -152 -123 -139 -146 -32 rrcurveto
            75 57 80 102 100 vvcurveto
            52 -22 44 -43 22 vhcurveto
            219 hlineto
            return
          </CharString>
          <CharString index="134">
            rmoveto
            -132 -153 -7 -42 -44 41 -47 31 33 37 4 2 48 hvcurveto
            -18 -198 -74 -224 -62 vvcurveto
            -31 55 -70 29 22 14 81 130 27 vhcurveto
            37 176 43 132 42 vvcurveto
            8 -1 9 -3 9 vhcurveto
            -2 96 53 -5 44 hhcurveto
            35 20 20 16 50 -74 53 -210 hvcurveto
            endchar
          </CharString>
          <CharString index="135">
            85 callgsubr
            31 8 -15 -26 hvcurveto
            return
          </CharString>
          <CharString index="136">
            1 vlineto
            1 vlineto
            197 callgsubr
            3 vhcurveto
            -3 12 -9 10 -21 4 rrcurveto
            -52 10 return
          </CharString>
          <CharString index="137">
            hvcurveto
            -54 -14 -78 -33 -60 -36 rrcurveto
            1 8 0 7 8 -102 callsubr
            return
          </CharString>
          <CharString index="138">
            554 rmoveto
            -52 callgsubr
            return
          </CharString>
          <CharString index="139">
            -9 -39 -6 -31 68 callsubr
            return
          </CharString>
          <CharString index="140">
            rmoveto
            -28 -127 -60 -92 -59 11 7 -42 hhcurveto
            -20 -7 -9 -20 -20 9 -15 14 -12 hvcurveto
            -65 -2 -80 -37 -71 25 callgsubr
            5 -1 5 -1 5 vhcurveto
            43 3 49 10 46 15 rrcurveto
            -94 -199 -285 -118 -59 vvcurveto
            -13 21 -12 15 105 363 280 204 23 -9 22 -21 vhcurveto
            -554 265 -106 callgsubr
            616 -104 callgsubr
          </CharString>
          <CharString index="141">
            635 -61 callsubr
            return
          </CharString>
          <CharString index="142">
            0 callgsubr
            345 298 rmoveto
            48 -103 callsubr
            25 -48 hvcurveto
            -662 hlineto
            131 callgsubr
            169 83 172 105 41 vvcurveto
            25 -11 7 -24 -36 -116 -65 -65 -124 vhcurveto
            130 callgsubr
            endchar
          </CharString>
          <CharString index="143">
            -83 callsubr
            hhcurveto
            return
          </CharString>
          <CharString index="144">
            307 callsubr
            176 322 153 219 47 -18 48 -37 23 vhcurveto
            2 9 2 8 2 7 5 16 8 12 8 10 rrcurveto
            97 -104 callgsubr
          </CharString>
          <CharString index="145">
            rmoveto
            -15 -16 31 16 15 43 7 60 5 hvcurveto
            -44 -25 -27 -30 -20 hhcurveto
            140 307 -50 callgsubr
            204 165 138 callsubr
            rrcurveto
            -129 -13 -130 -7 -90 vvcurveto
            -75 70 -100 79 77 69 84 106 43 vhcurveto
            55 4 57 5 45 10 return
          </CharString>
          <CharString index="146">
            hhcurveto
            -18 -1 33 25 67 51 85 39 hvcurveto
            39 -8 -51 48 hhcurveto
            30 15 24 32 44 -46 72 -66 return
          </CharString>
          <CharString index="147">
            19 19 2 2 18 hvcurveto
            -14 -36 -10 -43 -4 -46 rrcurveto
            41 -13 -44 49 -49 hhcurveto
            -120 -95 -121 -95 -80 58 -43 92 62 59 16 21 32 hvcurveto
            -16 2 -16 5 -12 vhcurveto
            -14 6 10 -9 15 hhcurveto
            54 6 140 97 16 hvcurveto
            16 98 49 113 159 callgsubr
            -52 20 35 68 124 101 44 236 callsubr
            9 1 9 9 vvcurveto
            67 24 52 17 37 vhcurveto
            -5 callsubr
          </CharString>
          <CharString index="148">
            -63 41 60 -66 27 hhcurveto
            25 20 17 22 25 -42 40 -46 74 hvcurveto
            -8 13 63 3 62 21 52 35 rlinecurve
            117 6 140 29 100 35 -1 -6 rcurveline
            -5 -37 -7 -37 -7 -33 rrcurveto
            6 -17 -19 3 -20 hhcurveto
            -156 -154 -74 -91 -56 69 -63 79 80 29 64 52 28 -5 27 -8 21 hvcurveto
            6 24 26 3 28 hhcurveto
            9 9 -1 -2 9 hvcurveto
            -5 -22 -3 -16 -8 vvcurveto
            -21 53 -65 22 35 24 -103 callgsubr
            32 callgsubr
            endchar
          </CharString>
          <CharString index="149">
            39 -23 -27 28 -29 hhcurveto
            -25 -31 -13 -33 -15 6 -19 9 -15 hvcurveto
            return
          </CharString>
          <CharString index="150">
            159 callsubr
            -325 hmoveto
            174 callsubr
            293 callsubr
            -109 3 hlineto
            83 23 66 73 85 288 callgsubr
            -65 -58 -29 -43 -44 hvcurveto
            70 -19 -39 49 -65 hhcurveto
            -113 -122 -197 -122 -30 hvcurveto
            endchar
          </CharString>
          <CharString index="151">
            rmoveto
            15 9 9 19 30 22 -26 -42 22 vhcurveto
            -83 3 -19 23 18 vvcurveto
            return
          </CharString>
          <CharString index="152">
            -106 callgsubr
            186 hlineto
            -19 -194 -62 -232 -77 vvcurveto
            -31 16 -22 28 78 65 347 209 18 vhcurveto
            242 callsubr
            -104 1 hlineto
            2 -1 rlineto
            84 22 67 75 86 288 callgsubr
            -74 -64 -37 -54 -46 hvcurveto
            79 -28 -57 59 -114 hhcurveto
            -188 -235 -270 -105 -23 13 -25 21 52 27 48 47 36 hvcurveto
            62 48 107 134 106 hhcurveto
            93 21 -78 -109 hvcurveto
            endchar
          </CharString>
          <CharString index="153">
            rmoveto
            29 3 39 10 43 vhcurveto
            34 -54 44 -60 38 -48 rrcurveto
            -29 -44 -41 -23 -21 hhcurveto
            -16 -7 51 52 hvcurveto
            return
          </CharString>
          <CharString index="154">
            rmoveto
            53 callgsubr
            return
          </CharString>
          <CharString index="155">
            hlineto
            73 callgsubr
            -30 11 -24 16 -22 hvcurveto
            -71 -33 -46 -62 -75 vvcurveto
            -120 102 -72 143 59 65 19 36 19 -19 7 -56 -82 -91 29 75 60 43 35 75 50 33 -28 -37 -31 4 -21 19 40 26 39 46 80 -79 58 -98 -8 -7 0 -1 -8 vhcurveto
            -2 6 -1 7 8 vvcurveto
            22 18 15 75 vhcurveto
            28 26 -2 22 hhcurveto
            15 14 1 4 10 hvcurveto
            36 8 12 69 50 vvcurveto
            18 -3 18 -5 17 vhcurveto
            return
          </CharString>
          <CharString index="156">
            -29 -47 -62 -18 -37 vvcurveto
            -23 19 -8 16 78 89 87 69 37 -43 50 -55 return
          </CharString>
          <CharString index="157">
            hhcurveto
            34 callgsubr
            return
          </CharString>
          <CharString index="158">
            -102 callsubr
            31 return
          </CharString>
          <CharString index="159">
            -106 callgsubr
            332 -67 callsubr
            return
          </CharString>
          <CharString index="160">
            525 125 rmoveto
            -38 -27 25 36 -22 hvcurveto
            79 84 73 78 21 hhcurveto
            6 4 -3 -8 -78 -40 -129 -61 hvcurveto
            -347 5 rmoveto
            -11 -6 4 11 39 67 128 42 30 25 -36 -32 24 hvcurveto
            -62 -66 -63 -52 -42 hhcurveto
            439 328 rmoveto
            -47 -79 -77 -79 -82 hvcurveto
            58 -30 -56 67 -64 hhcurveto
            -115 -96 -199 -89 -63 84 -50 58 51 69 48 58 68 hvcurveto
            -62 37 50 -43 72 hhcurveto
            120 79 176 121 57 -54 77 -65 hvcurveto
            return
          </CharString>
          <CharString index="161">
            -2 callgsubr
            -201 316 112 callsubr
            return
          </CharString>
          <CharString index="162">
            -11 -76 -11 -68 -10 -72 rrcurveto
            -35 -55 -55 -29 -30 -12 callsubr
            return
          </CharString>
          <CharString index="163">
            rrcurveto
            113 -104 callgsubr
          </CharString>
          <CharString index="164">
            116 callsubr
            -78 73 -48 130 296 callsubr
            vhcurveto
            11 33 9 37 1 25 rrcurveto
            219 -107 callgsubr
            endchar
          </CharString>
          <CharString index="165">
            456 -106 callgsubr
            return
          </CharString>
          <CharString index="166">
            15 45 48 -24 callsubr
            return
          </CharString>
          <CharString index="167">
            20 89 22 106 5 50 rrcurveto
            return
          </CharString>
          <CharString index="168">
            -15 -86 callgsubr
            148 -104 callgsubr
          </CharString>
          <CharString index="169">
            183 callgsubr
            21 22 10 18 18 hvcurveto
            33 35 38 52 69 77 22 273 callgsubr
            72 -75 62 -90 -22 -22 -4 -9 -21 hvcurveto
            60 -1 -15 50 -57 hhcurveto
            239 callgsubr
          </CharString>
          <CharString index="170">
            -135 -219 -96 -93 -56 69 -63 79 80 29 64 52 33 -7 31 -11 23 hvcurveto
            13 42 45 9 39 hhcurveto
            return
          </CharString>
          <CharString index="171">
            279 callgsubr
            36 vhcurveto
            -91 44 158 -184 45 hhcurveto
            20 141 callgsubr
            -50 75 -58 75 hvcurveto
            -15 19 35 2 35 6 33 10 rlinecurve
            -3 20 23 -1 26 hhcurveto
            67 80 9 20 71 hvcurveto
            -13 -91 -15 -87 -20 191 callsubr
          </CharString>
          <CharString index="172">
            201 callsubr
            -34 callsubr
            return
          </CharString>
          <CharString index="173">
            rmoveto
            0 1 vlineto
            18 3 7 50 16 75 8 28 9 30 10 28 rrcurveto
            -138 58 134 -76 86 hhcurveto
            44 29 15 36 41 -99 24 -69 60 hvcurveto
            -62 54 -27 55 46 vvcurveto
            97 150 196 134 40 vvcurveto
            22 -45 40 -33 -41 -111 -120 -136 -103 vhcurveto
            16 66 10 50 17 vvcurveto
            60 -63 78 -29 -21 -8 -14 -26 vhcurveto
            -117 -117 -391 -72 vvcurveto
            -43 59 -69 29 vhcurveto
            endchar
          </CharString>
          <CharString index="174">
            6 callsubr
            -82 -8 71 -52 hhcurveto
            return
          </CharString>
          <CharString index="175">
            -13 0 callsubr
            return
          </CharString>
          <CharString index="176">
            rmoveto
            63 108 135 109 59 -49 64 -53 -41 -45 -53 -27 hvcurveto
            -34 71 -8 -50 -67 -84 -81 -26 vvcurveto
            -15 11 -6 19 vhcurveto
            endchar
          </CharString>
          <CharString index="177">
            rmoveto
            -63 -86 -17 -31 -26 41 -32 38 17 18 0 1 22 hvcurveto
            -69 -50 -109 -67 -62 hhcurveto
            -24 -10 11 15 179 155 246 140 hvcurveto
            43 7 -8 11 hhcurveto
            9 4 5 13 51 -54 82 -41 -181 -230 -337 -220 -84 110 -79 84 70 79 57 77 60 hvcurveto
            -25 -84 -15 -79 -43 vvcurveto
            -18 14 -12 19 51 76 268 53 66 -32 82 -86 vhcurveto
            return
          </CharString>
          <CharString index="178">
            vhcurveto
            28 26 -2 22 hhcurveto
            19 16 2 6 13 hvcurveto
            29 14 10 54 57 vvcurveto
            18 -3 18 -5 17 vhcurveto
            return
          </CharString>
          <CharString index="179">
            vvcurveto
            -50 53 -30 60 -15 vhcurveto
            -9 -7 -9 -8 -8 -8 rrcurveto
            -46 -45 -38 -54 -39 vvcurveto
            -58 37 -34 72 return
          </CharString>
          <CharString index="180">
            hlineto
            -3 291 callgsubr
            145 callgsubr
            return
          </CharString>
          <CharString index="181">
            290 callsubr
            -39 -16 -33 -25 -30 hvcurveto
            -33 20 -21 32 43 43 callgsubr
            223 204 callsubr
            46 hlineto
            -8 -32 -6 -31 -7 -32 -67 -30 -73 -22 -57 -1 rrcurveto
            26 40 17 45 53 180 callsubr
            return
          </CharString>
          <CharString index="182">
            482 rmoveto
            -206 -35 -122 -124 -111 hhcurveto
            -16 -4 14 22 53 30 151 63 hvcurveto
            43 -1 -47 30 hhcurveto
            18 11 27 33 55 -26 52 -56 -39 -35 -13 -21 -29 hvcurveto
            -48 -32 -86 -55 -90 -53 17 77 17 92 4 47 rrcurveto
            476 hlineto
            -649 -291 rmoveto
            -43 -83 -73 -31 -38 -23 callgsubr
            41 18 -56 -37 16 hvcurveto
            return
          </CharString>
          <CharString index="183">
            445 -106 callgsubr
            return
          </CharString>
          <CharString index="184">
            -106 callgsubr
            112 -96 callsubr
            return
          </CharString>
          <CharString index="185">
            rmoveto
            87 callsubr
            return
          </CharString>
          <CharString index="186">
            -123 124 -131 178 callgsubr
            return
          </CharString>
          <CharString index="187">
            -9 -29 -7 -24 -5 -17 rrcurveto
            4 -18 -19 2 -19 hhcurveto
            -57 -69 -33 -41 -57 hvcurveto
            -63 -45 -49 -55 -28 130 callsubr
            28 29 32 47 57 vhcurveto
            37 45 48 24 49 hhcurveto
            30 32 -5 -3 27 hvcurveto
            -2 15 14 -1 10 136 callgsubr
            112 -104 callgsubr
          </CharString>
          <CharString index="188">
            32 20 16 25 hvcurveto
            91 callsubr
          </CharString>
          <CharString index="189">
            86 -77 callgsubr
            return
          </CharString>
          <CharString index="190">
            -50 vvcurveto
            -18 25 -14 18 62 125 return
          </CharString>
          <CharString index="191">
            rmoveto
            -75 -82 -99 -71 -36 25 -16 34 69 -16 89 29 70 hvcurveto
            -77 39 61 -54 51 hhcurveto
            53 80 97 72 36 -17 16 -25 -64 -6 -81 -19 -37 hvcurveto
            20 -44 -10 94 -106 hhcurveto
            return
          </CharString>
          <CharString index="192">
            38 callgsubr
            -115 -198 -191 -123 return
          </CharString>
          <CharString index="193">
            rmoveto
            4 -20 4 -25 -28 vvcurveto
            -93 -76 -153 -57 -25 -10 43 51 107 47 74 7 44 vhcurveto
            return
          </CharString>
          <CharString index="194">
            -3 -11 -1 -11 -12 160 callsubr
            return
          </CharString>
          <CharString index="195">
            387 rmoveto
            -64 -25 -72 -17 -67 -9 rrcurveto
            15 34 8 38 41 220 callsubr
            246 hlineto
            -1087 227 callgsubr
            594 351 rmoveto
            12 11 2 3 9 hvcurveto
            1 hlineto
            -83 -41 -100 -75 -91 -70 15 69 13 72 3 40 rrcurveto
            return
          </CharString>
          <CharString index="196">
            63 98 131 90 79 -50 54 -69 -37 -31 -36 -23 hvcurveto
            -45 54 9 -61 -67 -74 -49 -42 vvcurveto
            -26 15 -14 31 vhcurveto
            return
          </CharString>
          <CharString index="197">
            -59 callsubr
            301 callgsubr
            39 63 return
          </CharString>
          <CharString index="198">
            -34 callsubr
            66 48 -8 -8 36 vhcurveto
            -6 -29 -3 -28 -26 vvcurveto
            -90 26 -73 152 callsubr
            vhcurveto
            -93 callsubr
          </CharString>
          <CharString index="199">
            -106 callgsubr
            109 -11 callsubr
            return
          </CharString>
          <CharString index="200">
            rmoveto
            -19 -14 37 16 14 11 6 14 14 22 -8 -13 26 hvcurveto
            -20 -14 -26 -32 -14 hhcurveto
            return
          </CharString>
          <CharString index="201">
            hlineto
            -38 7 54 -57 34 36 14 52 43 hhcurveto
            22 8 -9 -21 return
          </CharString>
          <CharString index="202">
            166 callgsubr
            23 -33 7 -46 return
          </CharString>
          <CharString index="203">
            vvcurveto
            -52 33 -21 25 52 14 144 return
          </CharString>
          <CharString index="204">
            -77 callgsubr
            -39 -26 -37 -33 -34 hvcurveto
            2 vlineto
            23 -4 28 -18 vhcurveto
            156 callgsubr
            return
          </CharString>
          <CharString index="205">
            309 rmoveto
            -50 31 -48 18 22 -17 callsubr
            201 hlineto
            -11 -51 -9 -51 -11 -54 -90 -47 -105 -34 -88 -8 rrcurveto
            -258 -148 44 callsubr
            return
          </CharString>
          <CharString index="206">
            hlineto
            -47 -36 -38 -44 -39 72 callsubr
            73 95 38 51 77 vhcurveto
            -8 -51 -6 -43 -12 vvcurveto
            -31 63 -40 20 35 19 182 128 25 vhcurveto
            18 89 28 106 7 50 rrcurveto
            107 -104 callgsubr
          </CharString>
          <CharString index="207">
            68 callgsubr
            -4 return
          </CharString>
          <CharString index="208">
            101 110 60 67 76 -80 111 -97 return
          </CharString>
          <CharString index="209">
            -9 callsubr
            34 -15 -22 22 -27 hhcurveto
            -32 -13 -24 -30 return
          </CharString>
          <CharString index="210">
            rmoveto
            27 6 29 10 27 vhcurveto
            1 2 1 3 1 3 rrcurveto
            46 19 29 37 24 hhcurveto
            31 26 -57 -100 22 hvcurveto
            -43 -49 -64 -32 -38 hhcurveto
            -14 -5 34 24 hvcurveto
            return
          </CharString>
          <CharString index="211">
            -5 -10 callgsubr
          </CharString>
          <CharString index="212">
            181 callgsubr
            15 vhcurveto
            221 callgsubr
            rrcurveto
            -132 -11 -122 -19 -81 95 callgsubr
            return
          </CharString>
          <CharString index="213">
            -12 -42 -23 -51 -32 -47 -29 50 callgsubr
            return
          </CharString>
          <CharString index="214">
            81 44 104 119 22 return
          </CharString>
          <CharString index="215">
            -2 rrcurveto
            114 79 97 148 122 vvcurveto
            -168 30 68 callgsubr
            -3 -14 vhcurveto
            -51 21 -13 35 23 vvcurveto
            return
          </CharString>
          <CharString index="216">
            266 callgsubr
            -58 -51 hvcurveto
            return
          </CharString>
          <CharString index="217">
            237 callgsubr
            -89 -199 46 callsubr
            -189 307 205 callgsubr
            -22 -72 -12 -51 -81 88 callgsubr
            42 50 21 return
          </CharString>
          <CharString index="218">
            554 86 callsubr
            return
          </CharString>
          <CharString index="219">
            -106 callgsubr
            102 236 callgsubr
            return
          </CharString>
          <CharString index="220">
            181 callsubr
            -2 -7 -3 -7 return
          </CharString>
          <CharString index="221">
            17 30 13 34 25 vvcurveto
            63 -99 80 -53 return
          </CharString>
          <CharString index="222">
            vvcurveto
            -29 70 -81 22 157 338 227 118 208 -320 181 -209 vhcurveto
            endchar
          </CharString>
          <CharString index="223">
            164 1 callsubr
            return
          </CharString>
          <CharString index="224">
            vvcurveto
            -166 145 -99 202 74 68 20 45 21 -33 4 -59 -143 -129 45 138 return
          </CharString>
          <CharString index="225">
            rmoveto
            87 callgsubr
            return
          </CharString>
          <CharString index="226">
            -39 68 -69 43 23 31 31 20 33 -53 108 -36 -35 -41 -49 -35 vhcurveto
            return
          </CharString>
          <CharString index="227">
            -91 64 90 -66 98 hhcurveto
            return
          </CharString>
          <CharString index="228">
            -97 80 -52 120 return
          </CharString>
          <CharString index="229">
            60 32 230 -56 callsubr
            return
          </CharString>
          <CharString index="230">
            rmoveto
            273 callsubr
            -4 -13 hvcurveto
            -50 21 -13 34 23 vvcurveto
            14 8 13 22 vhcurveto
            249 60 182 callsubr
            return
          </CharString>
          <CharString index="231">
            78 73 36 43 55 return
          </CharString>
          <CharString index="232">
            -107 127 callsubr
            return
          </CharString>
          <CharString index="233">
            rmoveto
            -12 -5 4 10 33 84 117 34 24 29 -29 -28 25 hvcurveto
            -53 -66 -73 -54 -40 hhcurveto
            return
          </CharString>
          <CharString index="234">
            431 353 -52 callsubr
            return
          </CharString>
          <CharString index="235">
            hlineto
            5 -20 6 -24 3 -34 rrcurveto
            3 -20 -22 1 -20 hhcurveto
            -122 -88 return
          </CharString>
          <CharString index="236">
            166 19 -20 31 -25 28 return
          </CharString>
          <CharString index="237">
            vvcurveto
            -21 13 -16 26 return
          </CharString>
          <CharString index="238">
            346 135 callgsubr
            return
          </CharString>
          <CharString index="239">
            -49 -20 -22 -30 -30 20 -26 49 hvcurveto
            189 hlineto
            -97 -33 -88 -83 -87 vvcurveto
            -44 31 -26 41 -11 vhcurveto
            275 callgsubr
            return
          </CharString>
          <CharString index="240">
            -14 -86 callgsubr
            return
          </CharString>
          <CharString index="241">
            459 -106 callgsubr
            return
          </CharString>
          <CharString index="242">
            139 rmoveto
            -13 -1 2 11 45 48 204 87 15 36 -29 -56 -9 0 -8 1 -8 hvcurveto
            -102 -44 -108 -50 -21 hhcurveto
            return
          </CharString>
          <CharString index="243">
            hlineto
            -2 -7 -15 -71 -6 -95 -16 -68 rlinecurve
            96 -16 -53 105 -98 hhcurveto
            return
          </CharString>
          <CharString index="244">
            554 rmoveto
            10 callgsubr
            return
          </CharString>
          <CharString index="245">
            117 callgsubr
            193 callsubr
            vhcurveto
            259 callgsubr
            return
          </CharString>
          <CharString index="246">
            -63 -98 -131 -90 -79 50 -54 69 37 31 36 23 hvcurveto
            45 -54 -9 61 67 74 49 42 vvcurveto
            26 -15 14 -31 vhcurveto
            return
          </CharString>
          <CharString index="247">
            rmoveto
            -32 54 -57 37 20 25 25 17 26 -45 91 -29 -29 -33 -41 -29 vhcurveto
            endchar
          </CharString>
          <CharString index="248">
            302 callgsubr
            -86 -64 -96 -83 105 callsubr
            return
          </CharString>
          <CharString index="249">
            -208 -2 callgsubr
            return
          </CharString>
          <CharString index="250">
            309 callsubr
            -17 -13 -27 -35 hvcurveto
            return
          </CharString>
          <CharString index="251">
            hhcurveto
            -20 callgsubr
            hvcurveto
            return
          </CharString>
          <CharString index="252">
            -34 -2 -63 -4 -63 vhcurveto
            return
          </CharString>
          <CharString index="253">
            162 564 441 rmoveto
            -49 -6 -82 -14 -60 -9 -9 -1 rcurveline
            4 47 2 46 39 4 0 3 4 vvcurveto
            211 hlineto
            -380 -348 rmoveto
            -16 -28 36 23 10 31 9 46 8 hvcurveto
            -50 -8 -10 -36 -15 hhcurveto
            return
          </CharString>
          <CharString index="254">
            501 rmoveto
            -46 -106 -67 -39 -45 hvcurveto
            -12 -10 -21 -41 -23 vvcurveto
            -66 176 -84 73 30 16 9 22 vhcurveto
            35 -189 42 52 vvcurveto
            18 59 39 109 34 vhcurveto
            20 6 9 9 15 vvcurveto
            22 -51 27 -22 vhcurveto
            return
          </CharString>
          <CharString index="255">
            hhcurveto
            -81 -43 26 218 callgsubr
            -140 117 -49 116 return
          </CharString>
          <CharString index="256">
            rrcurveto
            -100 80 68 -94 39 hhcurveto
            28 14 11 24 28 -87 111 -55 78 hvcurveto
            return
          </CharString>
          <CharString index="257">
            498 -106 callgsubr
            return
          </CharString>
          <CharString index="258">
            -4 hlineto
            145 callsubr
            return
          </CharString>
          <CharString index="259">
            80 124 callsubr
            return
          </CharString>
          <CharString index="260">
            -32 callsubr
            endchar
          </CharString>
          <CharString index="261">
            -12 -74 -10 -64 -13 callgsubr
            return
          </CharString>
          <CharString index="262">
            32 20 16 25 return
          </CharString>
          <CharString index="263">
            rmoveto
            -14 -4 -7 -17 -10 hvcurveto
            -135 -223 -355 -439 -62 vvcurveto
            -29 34 -27 17 29 120 165 154 117 vhcurveto
            179 236 91 110 46 vvcurveto
            45 -45 48 -24 vhcurveto
            return
          </CharString>
          <CharString index="264">
            vvcurveto
            37 callsubr
          </CharString>
          <CharString index="265">
            300 13 callgsubr
            return
          </CharString>
          <CharString index="266">
            rmoveto
            81 36 72 106 25 hhcurveto
            22 3 -59 -75 -18 0 -18 -1 -17 hvcurveto
            return
          </CharString>
          <CharString index="267">
            vvcurveto
            6 callsubr
            return
          </CharString>
          <CharString index="268">
            233 callgsubr
            37 20 rlinecurve
            return
          </CharString>
          <CharString index="269">
            -64 callgsubr
            148 -4 hlineto
            -39 -2 -80 -5 -77 vhcurveto
            -117 -11 -82 -32 -82 108 callgsubr
            75 43 97 113 23 vhcurveto
            1 22 22 0 22 hhcurveto
            return
          </CharString>
          <CharString index="270">
            79 callgsubr
            139 324 -50 callgsubr
            return
          </CharString>
          <CharString index="271">
            206 -71 callsubr
            return
          </CharString>
          <CharString index="272">
            79 88 87 69 37 -43 50 -55 return
          </CharString>
          <CharString index="273">
            10 50 8 45 3 28 rrcurveto
            return
          </CharString>
          <CharString index="274">
            96 53 36 1 49 vvcurveto
            38 -32 46 -32 146 callgsubr
            vhcurveto
            return
          </CharString>
          <CharString index="275">
            rrcurveto
            38 -24 -37 27 -44 hhcurveto
            -152 -94 -278 -101 -58 66 -79 56 33 57 36 46 56 hvcurveto
            -1 -3 0 -3 -2 vvcurveto
            -33 47 -41 26 31 56 216 129 30 vhcurveto
            return
          </CharString>
          <CharString index="276">
            rmoveto
            235 callsubr
            -100 80 -67 97 27 22 12 15 hvcurveto
            40 -112 -1 83 vvcurveto
            endchar
          </CharString>
          <CharString index="277">
            -64 38 -55 94 12 return
          </CharString>
          <CharString index="278">
            168 callgsubr
            7 18 8 33 10 31 rrcurveto
            -104 510 rmoveto
            -12 -8 -7 -16 -32 35 -50 49 -33 hvcurveto
            -11 -57 -19 return
          </CharString>
          <CharString index="279">
            251 callgsubr
            169 83 172 105 41 vvcurveto
            25 -11 7 -24 -36 -116 -65 -65 -124 vhcurveto
            130 callgsubr
            endchar
          </CharString>
          <CharString index="280">
            -51 51 -53 46 return
          </CharString>
          <CharString index="281">
            293 callgsubr
            -21 -231 -59 -183 -89 vvcurveto
            -26 11 -27 26 75 44 242 187 30 vhcurveto
            6 37 5 44 5 46 rrcurveto
            return
          </CharString>
          <CharString index="282">
            -2 15 16 -1 17 hhcurveto
            2 hlineto
            -8 -27 -5 -27 -2 -28 rrcurveto
            return
          </CharString>
          <CharString index="283">
            17 callgsubr
            46 return
          </CharString>
          <CharString index="284">
            59 38 21 26 18 -32 8 -33 6 return
          </CharString>
          <CharString index="285">
            6 -71 58 callgsubr
            return
          </CharString>
          <CharString index="286">
            hhcurveto
            -13 -7 41 42 49 10 66 22 64 257 callgsubr
            -56 -7 -61 -48 vvcurveto
            -122 39 -94 86 return
          </CharString>
          <CharString index="287">
            vvcurveto
            67 -38 86 -98 289 callsubr
            return
          </CharString>
          <CharString index="288">
            -2 -13 -2 -15 -3 -15 -2 -10 return
          </CharString>
          <CharString index="289">
            24 callsubr
            -42 return
          </CharString>
          <CharString index="290">
            -64 callgsubr
            332 -67 callsubr
            return
          </CharString>
          <CharString index="291">
            -107 callsubr
            337 -22 callgsubr
            return
          </CharString>
          <CharString index="292">
            -50 callgsubr
            99 165 165 callgsubr
            return
          </CharString>
          <CharString index="293">
            -16 -59 -7 -66 -60 vvcurveto
            return
          </CharString>
          <CharString index="294">
            49 15 62 71 hhcurveto
            24 6 -19 -27 -89 -53 -86 -103 -14 -7 7 13 hvcurveto
            18 9 12 17 vvcurveto
            14 -8 8 -18 -42 -32 -36 -43 -56 39 -53 89 return
          </CharString>
          <CharString index="295">
            -4 hlineto
            -35 -2 -61 -4 -62 vhcurveto
            -117 -19 -83 -25 -74 108 callgsubr
            return
          </CharString>
          <CharString index="296">
            -143 -81 -168 -116 -90 26 -73 80 return
          </CharString>
          <CharString index="297">
            138 rmoveto
            -13 -2 2 11 52 114 198 88 12 5 -20 -37 2 hvcurveto
            -10 -1 -6 -4 -1 -9 rrcurveto
            -125 -24 -126 -67 -39 hhcurveto
            return
          </CharString>
          <CharString index="298">
            -86 callgsubr
            111 -104 callgsubr
          </CharString>
          <CharString index="299">
            296 260 rmoveto
            110 21 91 18 36 vvcurveto
            21 -23 13 -53 -177 -194 -30 -38 -33 36 -47 31 26 71 22 17 82 vhcurveto
            endchar
          </CharString>
          <CharString index="300">
            -86 -64 -96 -83 170 callsubr
            12 1 1 14 return
          </CharString>
          <CharString index="301">
            20 82 21 110 4 53 rrcurveto
            return
          </CharString>
          <CharString index="302">
            -2 vlineto
            -1 vlineto
            return
          </CharString>
          <CharString index="303">
            161 callgsubr
            hvcurveto
            -48 68 -122 -180 hhcurveto
            -111 -24 46 46 hvcurveto
            10 3 1 11 vvcurveto
            22 -48 31 -25 return
          </CharString>
          <CharString index="304">
            -28 -13 16 36 return
          </CharString>
          <CharString index="305">
            hlineto
            -21 -55 -13 -71 -70 vvcurveto
            -93 23 -80 58 50 67 24 27 65 vhcurveto
            return
          </CharString>
          <CharString index="306">
            121 callgsubr
            77 71 23 36 58 return
          </CharString>
          <CharString index="307">
            hlineto
            186 callsubr
            return
          </CharString>
          <CharString index="308">
            155 callsubr
            hvcurveto
            return
          </CharString>
          <CharString index="309">
            rmoveto
            -2 -15 -2 -15 -2 -15 -49 -152 -144 -89 -142 -20 rrcurveto
            81 44 113 107 106 vvcurveto
            17 -2 17 -5 15 vhcurveto
            return
          </CharString>
          <CharString index="310">
            151 rmoveto
            52 93 198 71 28 0 -46 -40 vhcurveto
            -7 0 -6 -6 vvcurveto
            -74 -31 -115 -84 -35 hhcurveto
            -10 -1 4 9 hvcurveto
            return
          </CharString>
          <CharString index="311">
            538 -106 callgsubr
            return
          </CharString>
          <CharString index="312">
            164 -107 callgsubr
            return
          </CharString>
          <CharString index="313">
            290 callsubr
            -41 -17 -34 -27 -31 hvcurveto
            -32 return
          </CharString>
          <CharString index="314">
            hhcurveto
            197 callsubr
            hvcurveto
            return
          </CharString>
          <CharString index="315">
            6 callgsubr
            -136 hmoveto
            return
          </CharString>
          <CharString index="316">
            vvcurveto
            40 -36 32 -70 vhcurveto
            -49 -40 60 callgsubr
            32 36 2 2 37 hvcurveto
            return
          </CharString>
          <CharString index="317">
            vvcurveto
            -80 113 -73 79 57 36 51 74 33 -3 26 -4 22 vhcurveto
            return
          </CharString>
          <CharString index="318">
            -11 -75 -82 callgsubr
            return
          </CharString>
          <CharString index="319">
            510 -44 callsubr
            return
          </CharString>
          <CharString index="320">
            191 46 callsubr
            return
          </CharString>
          <CharString index="321">
            -236 -38 callsubr
            return
          </CharString>
          <CharString index="322">
            -107 173 114 rmoveto
            -20 -11 53 31 98 90 76 34 13 12 -8 -10 10 hvcurveto
            -141 -7 -88 -99 -33 hhcurveto
            return
          </CharString>
          <CharString index="323">
            -13 callsubr
            -97 80 -52 120 hvcurveto
            return
          </CharString>
          <CharString index="324">
            vvcurveto
            -31 41 -31 47 44 108 4 53 19 -24 25 -21 vhcurveto
            return
          </CharString>
          <CharString index="325">
            263 callsubr
            121 callsubr
            return
          </CharString>
          <CharString index="326">
            -51 78 -59 48 49 65 33 43 67 return
          </CharString>
          <CharString index="327">
            vvcurveto
            45 -13 36 -28 24 vhcurveto
            return
          </CharString>
          <CharString index="328">
            554 111 callgsubr
            return
          </CharString>
          <CharString index="329">
            hhcurveto
            -20 -19 -5 -9 -19 hvcurveto
            -69 -26 -74 -22 -68 -16 rrcurveto
            10 27 5 27 29 -24 callsubr
            return
          </CharString>
          <CharString index="330">
            vhcurveto
            126 -104 callgsubr
          </CharString>
          <CharString index="331">
            -90 -179 -207 -118 -44 vvcurveto
            -19 20 -10 19 116 263 309 121 33 -25 11 -34 return
          </CharString>
          <CharString index="332">
            -5 vvcurveto
            79 callsubr
            vhcurveto
            -34 callsubr
            return
          </CharString>
          <CharString index="333">
            rrcurveto
            16 -20 -24 11 -23 hhcurveto
            -103 -122 -114 -170 -91 74 -77 73 186 102 196 205 return
          </CharString>
          <CharString index="334">
            228 callgsubr
            -46 return
          </CharString>
          <CharString index="335">
            hlineto
            113 callsubr
            rrcurveto
            -157 -1 -181 -178 -123 vvcurveto
            return
          </CharString>
          <CharString index="336">
            vvcurveto
            -166 150 -119 217 89 53 29 36 23 -50 1 -90 -117 -127 62 142 return
          </CharString>
          <CharString index="337">
            -80 callgsubr
            202 514 rmoveto
            -11 return
          </CharString>
          <CharString index="338">
            81 -134 3 97 vvcurveto
            37 35 26 87 return
          </CharString>
          <CharString index="339">
            99 20 78 18 33 vvcurveto
            21 -22 13 -53 return
          </CharString>
          <CharString index="340">
            -106 callgsubr
            100 200 callsubr
            -122 32 -98 86 return
          </CharString>
          <CharString index="341">
            -160 rmoveto
            -18 -16 26 19 19 25 2 30 13 14 -1 -3 17 hvcurveto
            -38 -19 -23 -24 -23 hhcurveto
            return
          </CharString>
          <CharString index="342">
            44 31 38 66 vhcurveto
            76 23 273 callgsubr
            66 -65 68 -100 -115 -77 -82 -92 return
          </CharString>
          <CharString index="343">
            274 callsubr
            27 22 28 4 hvcurveto
            1 return
          </CharString>
          <CharString index="344">
            hhcurveto
            -142 -168 -33 -90 -100 130 -97 90 98 32 94 69 21 -2 16 -3 13 hvcurveto
            return
          </CharString>
          <CharString index="345">
            106 rmoveto
            -25 -3 -14 -17 -26 -37 27 22 14 32 14 47 15 vhcurveto
            2 -17 2 -21 -15 vvcurveto
            return
          </CharString>
          <CharString index="346">
            33 -24 63 -28 return
          </CharString>
          <CharString index="347">
            rmoveto
            -44 -22 9 26 33 51 56 37 39 29 -47 -51 17 hvcurveto
            -14 -30 -39 -12 -38 hhcurveto
            return
          </CharString>
          <CharString index="348">
            hlineto
            -6 -26 -5 -26 -5 -26 -122 -9 -145 -6 -96 -10 rrcurveto
            -4 -3 -1 -3 hhcurveto
            return
          </CharString>
          <CharString index="349">
            109 -107 callgsubr
            return
          </CharString>
          <CharString index="350">
            rmoveto
            -4 vlineto
            145 callsubr
            return
          </CharString>
          <CharString index="351">
            -46 -56 -39 -37 -18 8 -14 14 hvcurveto
            16 21 12 13 hhcurveto
            22 18 -16 -11 10 hvcurveto
            return
          </CharString>
          <CharString index="352">
            55 hhcurveto
            106 75 40 31 15 -12 10 -31 hvcurveto
            -43 -39 -6 -46 hhcurveto
            -60 -42 3 15 return
          </CharString>
          <CharString index="353">
            129 callgsubr
            110 hlineto
            return
          </CharString>
          <CharString index="354">
            -27 hhcurveto
            -32 -13 return
          </CharString>
          <CharString index="355">
            662 159 callsubr
            return
          </CharString>
          <CharString index="356">
            442 -8 callgsubr
            return
          </CharString>
          <CharString index="357">
            36 -16 vhcurveto
            34 -15 -22 22 247 callsubr
            return
          </CharString>
          <CharString index="358">
            rmoveto
            7 67 3 67 49 4 0 3 4 vvcurveto
            return
          </CharString>
          <CharString index="359">
            27 vvcurveto
            25 -57 32 -41 -106 return
          </CharString>
          <CharString index="360">
            hlineto
            -12 -84 -12 -75 -12 -82 return
          </CharString>
          <CharString index="361">
            vvcurveto
            41 -30 37 -42 -57 -40 return
          </CharString>
          <CharString index="362">
            142 113 return
          </CharString>
          <CharString index="363">
            31 callsubr
            -97 return
          </CharString>
          <CharString index="364">
            rmoveto
            -19 -22 -28 -26 -26 48 -50 29 14 9 13 17 30 -33 70 -26 hvcurveto
            return
          </CharString>
          <CharString index="365">
            -2 4 136 callgsubr
            return
          </CharString>
          <CharString index="366">
            hhcurveto
            107 callgsubr
            hvcurveto
            -4 6 -5 5 -4 5 return
          </CharString>
          <CharString index="367">
            -29 -38 -22 -43 -40 vvcurveto
            -53 42 -30 64 return
          </CharString>
          <CharString index="368">
            -91 120 -143 85 155 callsubr
            return
          </CharString>
          <CharString index="369">
            0 -1 -5 hvcurveto
            22 -23 -32 14 -41 hhcurveto
            return
          </CharString>
          <CharString index="370">
            3 -16 hhcurveto
            -114 -153 -201 -106 return
          </CharString>
          <CharString index="371">
            hhcurveto
            211 callgsubr
            return
          </CharString>
          <CharString index="372">
            -2 -13 -17 -52 -26 -54 -30 -49 rlinecurve
            -28 51 -29 62 -23 55 rrcurveto
            return
          </CharString>
          <CharString index="373">
            -77 callgsubr
            -42 return
          </CharString>
          <CharString index="374">
            -16 -8 47 56 return
          </CharString>
          <CharString index="375">
            201 callsubr
            71 -134 19 80 vvcurveto
            37 45 12 87 return
          </CharString>
          <CharString index="376">
            -91 -59 56 105 183 154 107 125 84 61 -72 -103 return
          </CharString>
          <CharString index="377">
            -180 -177 -168 -183 -139 85 -110 163 return
          </CharString>
          <CharString index="378">
            15 5 -12 -17 -31 -24 -31 -36 -31 return
          </CharString>
          <CharString index="379">
            55 rmoveto
            -99 callgsubr
            -30 return
          </CharString>
          <CharString index="380">
            22 17 -33 -29 -15 -2 -15 return
          </CharString>
          <CharString index="381">
            hvcurveto
            47 11 -67 26 hhcurveto
            27 return
          </CharString>
          <CharString index="382">
            9 -70 51 -49 63 -18 return
          </CharString>
          <CharString index="383">
            -13 251 callgsubr
            58 29 return
          </CharString>
          <CharString index="384">
            95 callgsubr
            1 hlineto
            return
          </CharString>
          <CharString index="385">
            316 rmoveto
            34 17 120 111 27 hvcurveto
            18 74 15 return
          </CharString>
          <CharString index="386">
            -37 23 -39 -18 -54 -209 -42 -36 vvcurveto
            -17 17 -9 31 return
          </CharString>
          <CharString index="387">
            rmoveto
            -99 callgsubr
            hvcurveto
            -1 vlineto
            49 -19 -44 39 -68 hhcurveto
            return
          </CharString>
          <CharString index="388">
            hlineto
            286 callsubr
            return
          </CharString>
          <CharString index="389">
            124 -104 callgsubr
          </CharString>
          <CharString index="390">
            40 -44 91 -34 return
          </CharString>
          <CharString index="391">
            53 -75 callgsubr
            return
          </CharString>
          <CharString index="392">
            -64 callgsubr
            337 hlineto
            return
          </CharString>
          <CharString index="393">
            -7 -49 -8 -57 267 callgsubr
            -19 -32 34 -55 hhcurveto
            return
          </CharString>
          <CharString index="394">
            26 -26 29 -25 30 -22 rrcurveto
            -10 -27 -28 -5 -29 hhcurveto
            return
          </CharString>
          <CharString index="395">
            306 callsubr
            hvcurveto
            return
          </CharString>
          <CharString index="396">
            -121 -86 -84 -99 return
          </CharString>
          <CharString index="397">
            rmoveto
            21 22 -23 -28 return
          </CharString>
          <CharString index="398">
            -7 6 11 33 return
          </CharString>
          <CharString index="399">
            rmoveto
            -94 -48 -186 -40 vvcurveto
            -25 63 -70 29 32 return
          </CharString>
          <CharString index="400">
            117 -107 callgsubr
            return
          </CharString>
          <CharString index="401">
            121 -106 callgsubr
            return
          </CharString>
          <CharString index="402">
            753 -106 callgsubr
            return
          </CharString>
          <CharString index="403">
            129 189 71 139 71 -35 78 -59 41 return
          </CharString>
          <CharString index="404">
            326 -106 callgsubr
            return
          </CharString>
          <CharString index="405">
            -25 17 -35 hhcurveto
            -116 -171 -165 -142 return
          </CharString>
          <CharString index="406">
            -12 0 callsubr
            return
          </CharString>
          <CharString index="407">
            0 callsubr
            41 return
          </CharString>
          <CharString index="408">
            -20 13 -12 20 return
          </CharString>
          <CharString index="409">
            87 -106 callgsubr
            return
          </CharString>
          <CharString index="410">
            37 -18 hhcurveto
            -11 -8 -6 -23 -65 79 -57 56 return
          </CharString>
          <CharString index="411">
            -4 -11 vhcurveto
            -137 -18 -125 -31 vvcurveto
            -21 return
          </CharString>
          <CharString index="412">
            28 hhcurveto
            10 9 9 12 66 -65 68 -100 -74 return
          </CharString>
          <CharString index="413">
            9 -41 hhcurveto
            -86 -40 -35 -51 return
          </CharString>
          <CharString index="414">
            -58 43 -39 89 return
          </CharString>
          <CharString index="415">
            rrcurveto
            -1 -4 0 return
          </CharString>
          <CharString index="416">
            -30 -34 -48 -19 -48 -82 -8 71 -52 hhcurveto
            return
          </CharString>
          <CharString index="417">
            4 19 2 21 19 vvcurveto
            78 -48 70 -81 return
          </CharString>
        <CharString name=".notdef">
          197 160 hmoveto
          436 701 -436 hlineto
          81 -76 rmoveto
          275 -549 -275 hlineto
          endchar
        </CharString>
        <CharString name="A">
          71 278 371 -89 callsubr
        </CharString>
        <CharString name="AE">
          340 446 424 rmoveto
          -49 -5 -52 -8 -46 -8 31 74 39 82 24 25 9 9 31 8 50 5 -7 -59 -14 -62 -16 -61 rrcurveto
          493 241 rmoveto
          38 -92 33 -237 -237 -67 -11 -53 -39 vhcurveto
          -39 -53 -55 -156 -23 -62 rrcurveto
          -39 -106 -77 -169 -27 vvcurveto
          -39 59 -45 25 26 51 122 134 52 vhcurveto
          43 5 65 11 57 10 rrcurveto
          -18 -66 -14 -58 -42 vvcurveto
          -56 59 -55 61 114 callgsubr
          vhcurveto
          -23 -116 -41 -143 hhcurveto
          -10 291 callsubr
          19 56 21 66 hvcurveto
          136 19 117 8 47 vvcurveto
          40 -72 5 -90 -13 -20 -1 -1 -24 vhcurveto
          13 51 9 54 50 vvcurveto
          6 -2 6 -3 7 vhcurveto
          16 17 0 17 hhcurveto
          147 126 17 35 hvcurveto
          endchar
        </CharString>
        <CharString name="Aacute">
          72 357 790 62 callgsubr
          -80 -419 -89 callsubr
        </CharString>
        <CharString name="Abreve">
          72 376 788 rmoveto
          82 96 79 60 18 -12 14 -19 hvcurveto
          -44 -20 -72 -70 -77 15 115 -37 hhcurveto
          -23 -46 -23 -56 -60 59 -75 96 hvcurveto
          -99 -417 -89 callsubr
        </CharString>
        <CharString name="Acircumflex">
          72 241 806 28 callgsubr
          36 -435 -89 callsubr
        </CharString>
        <CharString name="Adieresis">
          72 475 799 rmoveto
          213 callgsubr
          -24 callgsubr
          hvcurveto
          -178 hmoveto
          213 callgsubr
          -24 callgsubr
          hvcurveto
          -20 -428 -89 callsubr
        </CharString>
        <CharString name="Agrave">
          72 309 846 rmoveto
          -25 callgsubr
          -28 40 -20 63 -39 hvcurveto
          -32 -475 -89 callsubr
        </CharString>
        <CharString name="Amacron">
          72 234 808 rmoveto
          186 callgsubr
          -6 callsubr
          43 -437 -89 callsubr
        </CharString>
        <CharString name="Aogonek">
          72 277 371 rmoveto
          26 79 25 76 17 55 6 -56 6 -73 7 -71 -30 -3 -29 -3 -28 -4 rrcurveto
          214 17 rmoveto
          215 -15 -39 141 -47 hhcurveto
          -32 -100 -37 -45 -14 hvcurveto
          -36 -112 -39 -96 -23 -70 -5 -15 -5 -14 -6 -15 rrcurveto
          -60 -18 -39 -22 -23 vvcurveto
          -25 19 -31 23 -15 vhcurveto
          -22 -50 -17 -39 -17 vvcurveto
          -45 67 -41 23 20 41 97 119 43 vhcurveto
          13 4 14 4 15 4 29 8 37 8 39 9 5 -54 5 -47 5 -30 3 -20 3 -17 3 -14 rrcurveto
          -54 -33 -78 -102 -57 vvcurveto
          56 callgsubr
          18 50 29 24 32 hvcurveto
          20 13 10 42 103 vvcurveto
          42 -1 41 -1 38 vhcurveto
          50 16 37 18 21 vvcurveto
          28 -24 7 -51 vhcurveto
          endchar
        </CharString>
        <CharString name="Aring">
          72 384 934 174 callgsubr
          -97 -415 -89 callsubr
        </CharString>
        <CharString name="Atilde">
          72 216 794 rmoveto
          20 callgsubr
          194 callgsubr
          hvcurveto
          61 -423 -89 callsubr
        </CharString>
        <CharString name="B">
          65 241 344 rmoveto
          -17 13 19 -14 13 hhcurveto
          35 118 -18 -31 -46 -157 -57 -95 -20 hvcurveto
          9 17 11 42 17 74 rrcurveto
          164 335 rmoveto
          27 17 -9 -27 -60 -81 -35 -52 -31 hvcurveto
          -14 -8 -13 -8 -11 -8 rrcurveto
          12 50 5 26 22 vvcurveto
          18 -16 26 -20 22 vhcurveto
          9 47 61 13 38 hhcurveto
          26 -228 rmoveto
          89 56 67 74 71 vvcurveto
          115 -137 40 -172 -86 -68 -23 -39 -15 22 -40 25 -23 vhcurveto
          -3 -163 -65 -168 -46 vvcurveto
          -33 46 -38 29 -12 vhcurveto
          -2 -11 -10 -1 -7 -43 -37 33 -20 hhcurveto
          -17 -11 -15 -22 -38 87 -85 53 176 244 124 129 54 -66 44 -75 20 hvcurveto
          endchar
        </CharString>
        <CharString name="C">
          58 533 609 42 callgsubr
        </CharString>
        <CharString name="CR">
          -174 endchar
        </CharString>
        <CharString name="Cacute">
          70 484 923 rmoveto
          -66 callgsubr
          146 callgsubr
          vhcurveto
          51 -314 42 callgsubr
        </CharString>
        <CharString name="Ccaron">
          70 598 964 -32 callgsubr
          -63 -355 42 callgsubr
        </CharString>
        <CharString name="Ccedilla">
          70 559 206 rmoveto
          22 -11 17 -8 vhcurveto
          -26 -127 -85 -157 hhcurveto
          -36 -10 20 41 135 175 236 104 hvcurveto
          26 18 -8 15 hhcurveto
          6 7 5 20 52 -57 86 -37 -187 -217 -324 -192 -68 68 -93 71 -38 hvcurveto
          -17 -37 -26 -52 -18 11 callsubr
          8 14 8 14 6 13 rrcurveto
          123 14 173 111 67 vvcurveto
          endchar
        </CharString>
        <CharString name="D">
          107 189 155 92 callgsubr
        </CharString>
        <CharString name="Dcaron">
          107 444 722 -19 callsubr
          -255 -567 92 callgsubr
        </CharString>
        <CharString name="Dcroat">
          107 234 298 rmoveto
          50 9 49 9 16 2 rrcurveto
          40 6 26 19 23 vvcurveto
          46 -54 22 -59 -7 -10 -1 -1 -12 vhcurveto
          15 56 9 42 2 28 171 callsubr
          -71 -21 -71 -18 -2 -17 -3 -16 -1 rrcurveto
          -39 -4 -15 -19 -24 vvcurveto
          -45 29 -24 40 -6 vhcurveto
          -20 -70 -15 -59 -30 115 callsubr
        </CharString>
        <CharString name="E">
          -8 242 433 -81 callsubr
        </CharString>
        <CharString name="Eacute">
          -8 368 790 62 callgsubr
          -126 -357 -81 callsubr
        </CharString>
        <CharString name="Ecaron">
          -8 357 782 -19 callsubr
          -115 -349 -81 callsubr
        </CharString>
        <CharString name="Ecircumflex">
          -8 252 806 28 callgsubr
          -10 -373 -81 callsubr
        </CharString>
        <CharString name="Edieresis">
          -8 486 799 rmoveto
          213 callgsubr
          -24 callgsubr
          hvcurveto
          -178 hmoveto
          213 callgsubr
          -24 callgsubr
          hvcurveto
          -66 -366 -81 callsubr
        </CharString>
        <CharString name="Edotaccent">
          -8 391 785 rmoveto
          20 25 25 17 26 -45 91 -29 -29 -33 -41 -29 -32 54 -57 37 hvcurveto
          -149 -352 -81 callsubr
        </CharString>
        <CharString name="Egrave">
          -8 320 846 rmoveto
          -25 callgsubr
          -28 40 -20 63 -39 hvcurveto
          -78 -413 -81 callsubr
        </CharString>
        <CharString name="Emacron">
          -8 245 808 rmoveto
          186 callgsubr
          -6 callsubr
          -3 -375 -81 callsubr
        </CharString>
        <CharString name="Eogonek">
          -8 242 433 rmoveto
          14 52 10 54 51 vvcurveto
          25 7 28 7 30 6 rrcurveto
          113 21 129 -7 56 vvcurveto
          40 -122 8 -94 -160 -65 -4 -39 -16 vhcurveto
          -1 -2 -1 -3 -1 -4 308 callsubr
          -6 -5 vvcurveto
          -3 0 -4 1 -3 vhcurveto
          -6 -177 -100 -231 -112 vvcurveto
          -56 59 -55 61 61 67 11 18 57 vhcurveto
          -12 -23 -7 -22 -18 vvcurveto
          56 callgsubr
          hvcurveto
          24 87 42 45 vvcurveto
          22 -25 20 -22 3 vhcurveto
          1 -2 -3 1 -4 -23 -116 -41 -143 hhcurveto
          -10 291 callsubr
          18 55 21 65 hvcurveto
          104 4 156 31 65 vvcurveto
          14 -13 10 -17 vhcurveto
          -44 -53 -11 -94 hhcurveto
          endchar
        </CharString>
        <CharString name="Eth">
          90 276 304 rmoveto
          30 5 26 5 17 4 rrcurveto
          47 10 19 17 23 vvcurveto
          36 -47 30 -53 vhcurveto
          0 vlineto
          16 59 9 43 2 29 171 callsubr
          -72 -21 -70 -31 -5 -32 -5 -31 -3 rrcurveto
          -28 -3 -27 -13 -32 vvcurveto
          -41 37 -34 50 5 9 1 1 10 vhcurveto
          -19 -67 -14 -57 -29 115 callsubr
        </CharString>
        <CharString name="Euro">
          75 598 200 rmoveto
          -44 -90 -58 -132 hhcurveto
          -54 -27 23 39 -13 hvcurveto
          138 22 221 39 47 vvcurveto
          28 -60 4 -62 -64 -92 -6 -10 -86 vhcurveto
          4 13 4 14 6 14 14 1 15 2 16 1 rrcurveto
          58 3 249 23 44 vvcurveto
          47 -138 5 -130 vhcurveto
          61 56 70 46 60 29 6 -49 12 hhcurveto
          19 22 33 27 54 -47 70 -47 -146 -124 -111 -137 -72 hvcurveto
          -72 -6 -54 -13 -22 vvcurveto
          -30 29 -67 26 vhcurveto
          6 6 0 6 hhcurveto
          -4 -13 -2 -14 -3 -13 rrcurveto
          -59 -10 -41 -11 -10 vvcurveto
          -29 30 -67 23 16 15 0 1 13 vhcurveto
          -101 15 62 -73 146 hhcurveto
          123 174 94 60 17 -10 18 -16 hvcurveto
          endchar
        </CharString>
        <CharString name="F">
          -17 145 680 rmoveto
          -1 -6 -1 -6 -7 -3 0 -2 -3 vvcurveto
          -7 -110 -95 -333 -80 vvcurveto
          -30 64 -87 29 18 20 116 136 34 vhcurveto
          2 9 rlineto
          78 3 203 28 76 vvcurveto
          15 -18 14 -22 vhcurveto
          -45 -52 -11 -75 hhcurveto
          -15 -13 0 1 -13 hvcurveto
          20 100 11 74 17 vvcurveto
          1 vlineto
          30 5 37 7 38 4 rrcurveto
          114 12 106 4 43 vvcurveto
          45 -96 22 -98 -165 -72 -5 -46 -15 vhcurveto
          endchar
        </CharString>
        <CharString name="G">
          69 callgsubr
          endchar
        </CharString>
        <CharString name="Gbreve">
          69 callgsubr
          227 552 81 callgsubr
        </CharString>
        <CharString name="H">
          92 225 287 rmoveto
          20 5 23 6 27 5 35 7 37 6 35 6 rrcurveto
          -23 -95 -19 -79 -21 vvcurveto
          -54 62 -60 29 18 14 90 126 33 vhcurveto
          10 40 11 40 10 38 rrcurveto
          45 11 29 15 23 vvcurveto
          20 -21 12 -29 7 vhcurveto
          22 85 17 66 21 vvcurveto
          60 -73 78 -28 -22 -7 -12 -21 -52 -22 -106 -26 -109 vhcurveto
          -50 -2 -62 -6 -59 -10 rrcurveto
          21 89 15 70 21 vvcurveto
          60 -72 78 -29 -21 -8 -12 -21 -61 -32 -137 -31 -126 vhcurveto
          -29 -12 -19 -14 -14 vvcurveto
          -23 9 -22 15 -15 vhcurveto
          -17 -73 -13 -59 -24 vvcurveto
          -31 68 -88 29 19 11 90 126 33 vhcurveto
          endchar
        </CharString>
        <CharString name="I">
          -31 callsubr
          endchar
        </CharString>
        <CharString name="Iacute">
          -31 callsubr
          127 211 rmoveto
          -66 callgsubr
          146 callgsubr
          vhcurveto
          endchar
        </CharString>
        <CharString name="Icircumflex">
          -31 callsubr
          204 208 153 callsubr
        </CharString>
        <CharString name="Idieresis">
          -31 callsubr
          95 129 rmoveto
          -24 callgsubr
          213 callgsubr
          vhcurveto
          178 hmoveto
          -24 callgsubr
          213 callgsubr
          vhcurveto
          endchar
        </CharString>
        <CharString name="Idotaccent">
          -31 callsubr
          41 162 140 callsubr
        </CharString>
        <CharString name="Igrave">
          -31 callsubr
          -42 221 rmoveto
          -28 40 -20 63 -39 vhcurveto
          -25 callgsubr
          hvcurveto
          endchar
        </CharString>
        <CharString name="Imacron">
          -31 callsubr
          127 119 rmoveto
          -6 callsubr
          186 callgsubr
          endchar
        </CharString>
        <CharString name="Iogonek">
          -250 150 20 rmoveto
          23 28 18 112 26 125 rrcurveto
          36 174 33 114 34 vvcurveto
          60 -76 78 -28 -22 -8 -12 -21 -1 vhcurveto
          -3 -104 -98 -446 -44 vvcurveto
          -10 7 -15 11 -16 vhcurveto
          -53 -40 -67 -91 -53 vvcurveto
          56 callgsubr
          18 51 29 24 33 hvcurveto
          endchar
        </CharString>
        <CharString name="J">
          -73 38 255 rmoveto
          -19 -6 -14 -35 -68 100 -125 100 125 33 153 269 63 hvcurveto
          19 82 61 157 30 vvcurveto
          26 -23 10 -20 -63 -285 -37 -80 -23 17 -21 33 25 109 15 8 36 vhcurveto
          -9 -24 -14 -76 -12 -48 rrcurveto
          -226 -58 -25 -85 -33 -71 -45 112 -38 hhcurveto
          endchar
        </CharString>
        <CharString name="K">
          43 118 13 66 callsubr
        </CharString>
        <CharString name="L">
          -13 315 659 8 callgsubr
        </CharString>
        <CharString name="Lacute">
          -13 382 923 rmoveto
          -66 callgsubr
          146 callgsubr
          vhcurveto
          -67 -264 8 callgsubr
        </CharString>
        <CharString name="Lcaron">
          -13 435 646 rmoveto
          -28 -47 -63 -18 -37 vvcurveto
          -23 19 -8 16 165 callsubr
          -28 -48 -39 -25 -26 21 -20 42 vhcurveto
          -120 13 8 callgsubr
        </CharString>
        <CharString name="Lslash">
          -13 463 186 rmoveto
          -25 -102 -41 -142 hhcurveto
          -10 -2 0 7 26 19 66 15 43 hvcurveto
          10 28 12 32 11 34 rrcurveto
          104 33 47 19 29 vvcurveto
          17 -19 4 -25 -8 -30 -3 -5 -39 vhcurveto
          21 68 15 67 49 vvcurveto
          51 -69 50 -28 -23 -6 -13 -20 -60 -31 -109 -33 -109 vhcurveto
          -68 -16 -57 -19 -21 vvcurveto
          -17 28 -40 33 6 11 2 2 14 vhcurveto
          -28 -91 -23 -80 -38 vvcurveto
          -58 64 -59 66 158 159 52 88 19 -4 13 -21 vhcurveto
          endchar
        </CharString>
        <CharString name="M">
          197 309 644 rmoveto
          28 -108 73 -22 -22 -7 -12 -21 vhcurveto
          -117 -117 -391 -72 vvcurveto
          -31 57 -88 24 23 23 90 126 33 vhcurveto
          10 38 21 96 9 73 33 -121 13 -71 22 -21 rrcurveto
          -21 21 26 -3 19 hhcurveto
          59 64 104 113 88 hvcurveto
          -44 -126 -17 -89 -66 vvcurveto
          -57 32 -65 29 42 5 77 199 51 vhcurveto
          36 140 44 130 78 vvcurveto
          37 -44 44 -32 -54 -145 -223 -111 -96 vhcurveto
          -41 89 -35 126 45 vvcurveto
          endchar
        </CharString>
        <CharString name="N">
          72 624 671 -45 callgsubr
          endchar
        </CharString>
        <CharString name="NULL">
          endchar
        </CharString>
        <CharString name="Nacute">
          72 425 923 rmoveto
          -66 callgsubr
          146 callgsubr
          vhcurveto
          199 -252 -45 callgsubr
          endchar
        </CharString>
        <CharString name="Ncaron">
          72 539 964 -32 callgsubr
          85 -293 -45 callgsubr
          endchar
        </CharString>
        <CharString name="Ntilde">
          72 624 671 -45 callgsubr
          -276 314 rmoveto
          194 callgsubr
          20 callgsubr
          endchar
        </CharString>
        <CharString name="O">
          122 callsubr
          endchar
        </CharString>
        <CharString name="OE">
          391 451 383 rmoveto
          -123 -40 -120 -126 -70 hhcurveto
          -24 -18 38 58 181 154 205 65 39 28 -49 -106 -15 -2 -15 -3 -15 hvcurveto
          153 17 rmoveto
          14 52 10 54 51 vvcurveto
          25 7 28 7 30 6 rrcurveto
          113 21 129 -7 56 vvcurveto
          40 -122 8 -94 -139 -68 -3 -27 -25 vhcurveto
          31 -35 -43 18 -50 hhcurveto
          -144 -210 -260 -257 -90 86 -127 104 67 64 28 45 55 hvcurveto
          -37 21 43 -29 44 hhcurveto
          114 callgsubr
          hvcurveto
          -23 -116 -41 -143 hhcurveto
          -10 291 callsubr
          18 55 21 65 hvcurveto
          104 4 156 31 65 vvcurveto
          14 -13 10 -17 vhcurveto
          -44 -53 -11 -94 hhcurveto
          endchar
        </CharString>
        <CharString name="Oacute">
          60 498 923 rmoveto
          -66 callgsubr
          146 callgsubr
          vhcurveto
          -466 -693 -56 callsubr
          endchar
        </CharString>
        <CharString name="Ocircumflex">
          60 575 920 -32 callsubr
          -543 -690 -56 callsubr
          endchar
        </CharString>
        <CharString name="Odieresis">
          60 466 841 rmoveto
          -24 callgsubr
          213 callgsubr
          vhcurveto
          178 hmoveto
          -24 callgsubr
          213 callgsubr
          vhcurveto
          -612 -611 -56 callsubr
          endchar
        </CharString>
        <CharString name="Ograve">
          122 callsubr
          -69 317 rmoveto
          -28 40 -20 63 -39 vhcurveto
          -25 callgsubr
          hvcurveto
          endchar
        </CharString>
        <CharString name="Ohungarumlaut">
          60 452 1027 -12 callgsubr
          -608 -785 -56 callsubr
          endchar
        </CharString>
        <CharString name="Omacron">
          60 498 831 rmoveto
          -6 callsubr
          186 callgsubr
          -466 -601 -56 callsubr
          endchar
        </CharString>
        <CharString name="Oslash">
          60 480 461 rmoveto
          -141 -159 -186 -85 -11 -13 8 14 -11 vhcurveto
          63 77 88 107 127 142 rrcurveto
          1 -7 0 -7 -7 vvcurveto
          -82 155 rmoveto
          18 19 -11 -22 15 hvcurveto
          -59 -70 -66 -83 -59 -74 -29 -36 -30 -36 -27 -34 rrcurveto
          175 10 145 191 63 hhcurveto
          215 13 rmoveto
          34 37 9 24 14 vvcurveto
          21 -16 13 -21 -17 -29 -22 -36 -35 vhcurveto
          41 -41 -52 26 -59 hhcurveto
          -144 -210 -260 -257 -36 16 -41 26 -37 hvcurveto
          -25 -34 -16 -24 -9 vvcurveto
          -18 10 -20 19 12 18 16 35 30 vhcurveto
          -30 34 40 -19 41 hhcurveto
          207 178 271 187 47 -11 46 -20 41 hvcurveto
          endchar
        </CharString>
        <CharString name="Otilde">
          122 callsubr
          23 369 rmoveto
          194 callgsubr
          20 callgsubr
          endchar
        </CharString>
        <CharString name="P">
          -10 234 378 rmoveto
          21 78 8 42 43 vvcurveto
          20 -8 22 -12 21 vhcurveto
          16 30 37 21 47 hhcurveto
          43 36 -30 -43 -73 -86 -71 -116 -46 hvcurveto
          -38 -131 rmoveto
          216 43 166 130 151 vvcurveto
          113 -95 86 -164 -88 -140 -45 -47 -11 14 -25 20 -21 vhcurveto
          -7 -250 -96 -183 -69 vvcurveto
          -31 55 -70 32 24 21 84 127 37 vhcurveto
          endchar
        </CharString>
        <CharString name="Q">
          100 254 462 rmoveto
          -51 28 -133 41 -130 vhcurveto
          -9 -16 -15 -5 -14 hhcurveto
          -24 -75 38 58 84 33 89 42 71 hvcurveto
          144 142 rmoveto
          39 65 -49 -106 -70 -34 -81 -45 -64 hvcurveto
          -26 99 -20 115 127 vvcurveto
          12 8 9 10 8 vhcurveto
          249 -145 rmoveto
          142 -124 134 -134 -144 -210 -260 -257 -90 143 -127 104 30 28 6 10 27 vhcurveto
          -112 44 50 -89 45 hhcurveto
          28 9 11 30 44 -33 77 -37 104 hvcurveto
          106 95 68 159 123 vvcurveto
          endchar
        </CharString>
        <CharString name="R">
          42 261 383 -15 callgsubr
        </CharString>
        <CharString name="Racute">
          16 367 790 62 callgsubr
          -119 -407 rmoveto
          13 57 3 35 36 vvcurveto
          22 -10 25 -15 23 vhcurveto
          11 27 31 11 35 hhcurveto
          60 22 -16 -26 -78 -102 -53 -64 -47 hvcurveto
          320 188 rmoveto
          103 -101 70 -143 -134 -116 -59 -37 -24 24 -43 25 -20 vhcurveto
          -13 -232 -88 -154 -66 vvcurveto
          -31 56 -70 32 24 21 84 107 37 vhcurveto
          7 21 7 20 6 18 rrcurveto
          -106 43 131 -144 111 hhcurveto
          42 15 18 23 29 -63 47 -61 60 hvcurveto
          -49 49 -26 26 35 26 213 82 168 vvcurveto
          endchar
        </CharString>
        <CharString name="Rcaron">
          16 356 782 -19 callsubr
          -108 -399 -15 callgsubr
        </CharString>
        <CharString name="S">
          -7 227 13 -16 callsubr
        </CharString>
        <CharString name="Sacute">
          -20 444 923 rmoveto
          -66 callgsubr
          146 callgsubr
          vhcurveto
          -217 -910 -16 callsubr
        </CharString>
        <CharString name="Scaron">
          -20 558 964 -32 callgsubr
          -331 -951 -16 callsubr
        </CharString>
        <CharString name="T">
          -15 340 737 27 callsubr
        </CharString>
        <CharString name="Tcaron">
          -54 306 782 -19 callsubr
          -3 -45 27 callsubr
        </CharString>
        <CharString name="Thorn">
          -24 264 320 rmoveto
          -16 -4 -14 -3 -13 -2 14 54 16 56 13 50 rrcurveto
          5 16 16 3 14 hhcurveto
          43 37 -18 -19 -70 -66 -35 -60 -17 hvcurveto
          29 299 rmoveto
          88 -95 44 -27 -25 -7 -13 -20 vhcurveto
          -238 -99 -297 -71 vvcurveto
          -31 43 -71 32 34 12 53 128 29 vhcurveto
          30 2 29 4 28 7 rrcurveto
          142 34 103 90 107 vvcurveto
          62 -100 122 -92 -12 -12 -1 -1 -13 vhcurveto
          endchar
        </CharString>
        <CharString name="U">
          36 272 34 callsubr
          endchar
        </CharString>
        <CharString name="Uacute">
          19 343 923 rmoveto
          -66 callgsubr
          146 callgsubr
          vhcurveto
          -85 -288 -61 callsubr
          endchar
        </CharString>
        <CharString name="Ucircumflex">
          19 420 920 -32 callsubr
          -162 -285 -61 callsubr
          endchar
        </CharString>
        <CharString name="Udieresis">
          19 311 841 rmoveto
          -24 callgsubr
          213 callgsubr
          vhcurveto
          178 hmoveto
          -24 callgsubr
          213 callgsubr
          vhcurveto
          -231 -206 -61 callsubr
          endchar
        </CharString>
        <CharString name="Ugrave">
          26 callgsubr
          -84 298 rmoveto
          -28 40 -20 63 -39 vhcurveto
          -25 callgsubr
          hvcurveto
          endchar
        </CharString>
        <CharString name="Uhungarumlaut">
          26 callgsubr
          39 392 -12 callgsubr
          endchar
        </CharString>
        <CharString name="Umacron">
          26 callgsubr
          85 196 rmoveto
          -6 callsubr
          186 callgsubr
          endchar
        </CharString>
        <CharString name="Uogonek">
          -16 270 17 rmoveto
          184 44 122 312 201 vvcurveto
          98 -100 76 -33 -20 -6 -12 -19 vhcurveto
          -33 13 -16 -99 vvcurveto
          -215 -126 -203 -68 -33 -17 48 50 vhcurveto
          125 72 189 72 vvcurveto
          59 -74 53 -28 -23 -7 -13 -20 vhcurveto
          -91 -80 -198 -196 vvcurveto
          -61 44 -85 60 -43 vhcurveto
          -40 -44 -35 -59 -38 vvcurveto
          56 callgsubr
          17 42 25 26 29 hvcurveto
          endchar
        </CharString>
        <CharString name="Uring">
          19 360 1010 100 callgsubr
          -94 -299 -61 callsubr
          endchar
        </CharString>
        <CharString name="V">
          -27 512 745 rmoveto
          -41 -72 -140 -374 -137 hvcurveto
          -29 165 -9 197 -18 46 rrcurveto
          66 -27 -56 40 -43 hhcurveto
          -15 -12 -12 -32 -70 84 -443 41 -108 hvcurveto
          -31 12 47 -35 18 hhcurveto
          59 45 157 170 84 hvcurveto
          81 165 73 123 52 vvcurveto
          31 -49 33 -36 vhcurveto
          endchar
        </CharString>
        <CharString name="W">
          226 356 220 rmoveto
          -131 11 41 -76 87 hhcurveto
          137 112 209 188 175 -73 162 -205 -34 -21 -12 -33 -29 40 -60 44 78 28 -84 -103 -122 -46 -140 -54 hvcurveto
          -63 25 266 -50 hhcurveto
          -53 -101 -93 -134 -67 hvcurveto
          9 165 62 210 47 vvcurveto
          57 -93 63 -44 -16 -10 -12 -30 vhcurveto
          -299 -42 -120 -177 vvcurveto
          -47 75 -47 20 38 62 56 107 72 vhcurveto
          endchar
        </CharString>
        <CharString name="X">
          26 534 736 rmoveto
          -48 -48 -33 -219 -141 hvcurveto
          -36 77 -26 73 55 vvcurveto
          33 -86 25 -49 -18 0 -28 -17 -55 58 -144 73 -142 vhcurveto
          -83 -119 -78 -95 -30 -34 rrcurveto
          -15 -17 -8 -6 -13 vvcurveto
          -27 52 -37 39 48 81 115 100 67 vhcurveto
          -121 72 71 -95 39 hhcurveto
          25 26 18 36 31 -77 117 -73 132 hvcurveto
          95 125 45 53 42 52 rrcurveto
          30 37 37 1 26 vvcurveto
          35 -60 61 -24 vhcurveto
          endchar
        </CharString>
        <CharString name="Y">
          24 callgsubr
          endchar
        </CharString>
        <CharString name="Yacute">
          24 callgsubr
          78 519 rmoveto
          -66 callgsubr
          146 callgsubr
          vhcurveto
          endchar
        </CharString>
        <CharString name="Ydieresis">
          24 callgsubr
          46 437 rmoveto
          -24 callgsubr
          213 callgsubr
          vhcurveto
          178 hmoveto
          -24 callgsubr
          213 callgsubr
          vhcurveto
          endchar
        </CharString>
        <CharString name="Z">
          87 563 553 -17 callgsubr
          endchar
        </CharString>
        <CharString name="Zacute">
          87 422 923 rmoveto
          -66 callgsubr
          146 callgsubr
          vhcurveto
          141 -370 -17 callgsubr
          endchar
        </CharString>
        <CharString name="Zcaron">
          87 536 964 -32 callgsubr
          27 -411 -17 callgsubr
          endchar
        </CharString>
        <CharString name="Zdotaccent">
          87 563 553 -17 callgsubr
          -227 321 140 callsubr
        </CharString>
        <CharString name="a">
          -49 159 190 callsubr
          291 158 rmoveto
          114 callsubr
          -157 -151 -280 -99 -57 87 -80 56 47 58 42 54 53 vhcurveto
          -55 13 32 -41 24 hhcurveto
          30 6 60 62 11 hvcurveto
          14 77 17 28 30 vvcurveto
          7 -7 10 -11 10 vhcurveto
          endchar
        </CharString>
        <CharString name="aacute">
          -41 168 138 -73 callgsubr
          215 250 rmoveto
          146 callgsubr
          hvcurveto
          -66 callgsubr
          vhcurveto
          endchar
        </CharString>
        <CharString name="abreve">
          -41 168 138 -73 callgsubr
          238 195 81 callgsubr
        </CharString>
        <CharString name="acircumflex">
          -41 168 138 -73 callgsubr
          167 156 153 callsubr
        </CharString>
        <CharString name="acute">
          44 783 rmoveto
          -66 callgsubr
          146 callgsubr
          vhcurveto
          endchar
        </CharString>
        <CharString name="adieresis">
          -41 349 563 rmoveto
          213 callgsubr
          -24 callgsubr
          hvcurveto
          -181 -425 -73 callgsubr
          162 197 rmoveto
          -29 -34 -43 -29 -33 55 -57 36 213 callgsubr
          25 -45 95 -29 hvcurveto
          endchar
        </CharString>
        <CharString name="ae">
          211 341 528 rmoveto
          -155 -157 -280 -99 -55 89 -82 58 49 64 48 56 57 hvcurveto
          -58 28 57 -46 96 hhcurveto
          101 103 57 52 16 -9 11 -32 hvcurveto
          -28 -30 -28 -126 hhcurveto
          -51 -3 17 36 16 3 17 5 207 callgsubr
          45 hhcurveto
          101 callsubr
          -44 -50 -26 -43 -45 hvcurveto
          38 -35 -54 31 -33 hhcurveto
          157 -219 rmoveto
          52 32 45 44 33 hhcurveto
          25 30 -31 -17 -39 -70 -10 -67 -9 -10 0 1 -9 hvcurveto
          -139 92 rmoveto
          10 7 -18 -32 4 hvcurveto
          -18 -31 -15 -33 -8 -34 rrcurveto
          -75 -49 -89 -40 -29 hhcurveto
          -14 -5 2 11 52 120 198 86 hvcurveto
          endchar
        </CharString>
        <CharString name="agrave">
          -41 361 610 rmoveto
          -25 callgsubr
          -28 40 -20 63 -39 hvcurveto
          -193 -472 -73 callgsubr
          endchar
        </CharString>
        <CharString name="amacron">
          -41 168 138 -73 callgsubr
          171 150 rmoveto
          -145 -133 -1 -40 -23 28 -41 28 -1 hvcurveto
          186 callgsubr
          95 callsubr
          vhcurveto
          endchar
        </CharString>
        <CharString name="ampersand">
          227 144 120 rmoveto
          5 24 54 46 65 58 12 -18 12 -19 13 -17 -68 -42 -60 -31 -33 -1 rrcurveto
          199 485 rmoveto
          18 11 -25 -28 1 hvcurveto
          -28 -24 -35 -37 -38 vhcurveto
          -6 28 -4 27 25 vvcurveto
          40 -1 12 34 30 hhcurveto
          277 -494 rmoveto
          -46 -44 18 28 -39 hvcurveto
          119 83 99 90 37 vvcurveto
          26 -11 28 -38 -20 -119 -87 -80 -122 vhcurveto
          -16 23 -15 25 -13 26 rrcurveto
          83 80 75 89 78 vvcurveto
          53 -1 -28 98 -103 hhcurveto
          -127 -91 -85 -100 1 hvcurveto
          1 -53 16 -65 29 -65 rrcurveto
          -100 -84 -107 -85 -50 vvcurveto
          -47 78 -95 67 58 94 42 57 95 vhcurveto
          -53 60 67 -34 66 hhcurveto
          81 45 27 43 25 -23 7 -71 hvcurveto
          endchar
        </CharString>
        <CharString name="aogonek">
          -41 168 190 callsubr
          259 -96 rmoveto
          8 23 5 34 6 35 rrcurveto
          14 77 17 28 30 vvcurveto
          7 -7 10 -11 10 vhcurveto
          114 callsubr
          -157 -151 -280 -99 -57 87 -80 56 47 58 42 54 53 vhcurveto
          2 -10 3 -10 4 -9 rrcurveto
          -54 -37 -71 -95 -55 vvcurveto
          56 callgsubr
          22 76 39 10 42 hvcurveto
          endchar
        </CharString>
        <CharString name="apostrophemod">
          -234 195 528 rmoveto
          89 callsubr
          endchar
        </CharString>
        <CharString name="approxequal">
          25 199 314 84 callsubr
          61 272 84 callsubr
          endchar
        </CharString>
        <CharString name="aring">
          -41 168 138 -73 callgsubr
          96 94 rmoveto
          -14 -11 16 18 25 14 17 14 14 11 -14 -19 -25 -14 -18 -14 hvcurveto
          11 152 rmoveto
          -60 -57 -51 -70 -57 42 -46 57 60 57 51 70 57 -42 46 -57 hvcurveto
          endchar
        </CharString>
        <CharString name="asciicircum">
          -137 381 669 rmoveto
          -49 113 -3 52 -21 15 rrcurveto
          10 -15 -45 23 -32 hhcurveto
          -60 -141 -230 -77 -19 43 -33 33 33 8 49 63 34 hvcurveto
          26 48 20 25 24 25 rrcurveto
          -80 46 75 -125 41 hhcurveto
          18 7 6 17 17 -14 35 -28 66 hvcurveto
          endchar
        </CharString>
        <CharString name="asciitilde">
          27 229 440 84 callsubr
          endchar
        </CharString>
        <CharString name="asterisk">
          -184 294 662 rmoveto
          40 19 68 36 10 vvcurveto
          17 -25 18 -14 -13 -36 -46 -18 -34 vhcurveto
          3 15 14 37 12 vvcurveto
          17 -39 27 -17 -9 -4 -4 -13 vhcurveto
          -14 3 -43 -38 vvcurveto
          -19 11 -24 25 9 vvcurveto
          17 -53 12 -27 -11 0 -6 -9 -14 62 -52 54 -23 vhcurveto
          -29 -21 -92 -27 -13 vvcurveto
          -11 18 -16 13 12 62 28 25 26 vhcurveto
          -3 -14 -17 -58 -12 vvcurveto
          -13 18 -17 12 16 17 73 35 5 vhcurveto
          -22 26 47 -24 18 hhcurveto
          11 16 9 11 11 -67 29 -28 25 hvcurveto
          endchar
        </CharString>
        <CharString name="at">
          519 439 182 rmoveto
          -11 -1 10 7 37 102 170 74 8 12 -11 -24 10 hvcurveto
          -3 -3 -3 -3 -1 -5 rrcurveto
          -105 -21 -143 -73 -23 hhcurveto
          223 585 rmoveto
          -368 -247 -342 -269 -182 167 -139 172 100 171 66 78 19 -8 7 -15 hvcurveto
          -38 -84 -42 -133 hhcurveto
          -136 -46 72 123 216 209 260 258 117 86 -69 -137 -136 -117 -83 -10 -2 -1 1 2 hvcurveto
          9 15 29 37 vvcurveto
          15 -10 15 -14 14 vhcurveto
          10 18 7 19 18 vvcurveto
          77 -98 69 -51 -151 -140 -239 -94 -56 87 -81 55 43 58 42 51 52 vhcurveto
          -41 10 27 -41 56 hhcurveto
          107 204 155 208 205 -151 126 -191 hvcurveto
          endchar
        </CharString>
        <CharString name="atilde">
          -41 168 138 -73 callgsubr
          232 210 rmoveto
          -52 -11 -66 -15 -25 hvcurveto
          16 -31 -15 76 -85 hhcurveto
          194 callgsubr
          56 -2 72 22 45 hvcurveto
          -61 33 50 -44 43 hhcurveto
          49 67 84 59 31 -15 17 -25 hvcurveto
          endchar
        </CharString>
        <CharString name="b">
          8 251 128 rmoveto
          -20 -27 12 21 -27 hvcurveto
          125 61 90 106 77 hhcurveto
          15 1 -1 -8 -111 -96 -144 -74 hvcurveto
          162 399 rmoveto
          -52 -67 -52 -69 -65 hvcurveto
          26 96 25 116 65 vvcurveto
          54 -73 274 callgsubr
          -230 -132 -379 -65 vvcurveto
          -28 56 -64 29 10 11 22 34 12 vhcurveto
          -33 44 47 -22 41 hhcurveto
          159 115 246 120 57 -64 91 -65 hvcurveto
          endchar
        </CharString>
        <CharString name="backslash">
          41 463 -80 rmoveto
          30 48 63 31 72 -228 529 -74 212 hvcurveto
          17 -6 -1 13 -21 hhcurveto
          -25 -71 -83 -45 -54 56 -107 113 -275 hvcurveto
          -177 73 83 -196 23 hhcurveto
          endchar
        </CharString>
        <CharString name="bar">
          -103 95 -71 rmoveto
          -25 63 -70 29 30 93 521 132 28 vhcurveto
          33 158 18 72 33 vvcurveto
          54 -80 71 -28 -23 -7 -12 -18 vhcurveto
          -94 -156 -782 -40 vvcurveto
          endchar
        </CharString>
        <CharString name="braceleft">
          -97 121 440 rmoveto
          12 -20 -20 13 -13 hhcurveto
          -11 -4 -22 -9 -21 10 -22 15 -19 hvcurveto
          6 -9 6 -8 -7 -103 -63 -38 -136 vvcurveto
          -95 89 -91 110 59 53 41 37 37 -25 10 -54 -63 -37 14 48 vhcurveto
          103 50 53 81 vvcurveto
          11 vlineto
          71 10 40 57 54 vvcurveto
          58 -43 35 -1 115 vhcurveto
          96 53 15 35 37 14 -17 -23 -49 0 -26 22 25 42 64 23 vhcurveto
          72 -1 -71 76 -85 hhcurveto
          -116 -86 -69 -119 hvcurveto
          -128 53 -41 -54 vvcurveto
          -29 -16 -14 -26 -7 -10 4 6 -10 vhcurveto
          endchar
        </CharString>
        <CharString name="braceright">
          67 444 399 rmoveto
          -20 -27 -4 -18 hhcurveto
          -21 -15 12 20 hvcurveto
          71 198 90 135 vvcurveto
          62 -110 95 -95 -95 -97 -68 -42 -24 42 -59 27 vhcurveto
          34 22 85 61 hhcurveto
          46 25 -24 -35 hvcurveto
          -87 -185 -110 -100 vvcurveto
          -46 30 -36 38 -19 vhcurveto
          -119 -63 52 -206 -70 -77 9 37 -44 hhcurveto
          -19 -2 -16 -12 -50 60 -57 91 222 -118 356 73 108 hvcurveto
          25 14 18 21 27 vvcurveto
          13 -13 3 -19 vhcurveto
          endchar
        </CharString>
        <CharString name="bracketleft">
          -96 253 749 rmoveto
          -12 -179 -176 -461 -84 vvcurveto
          -53 64 -54 66 79 149 76 42 17 -4 12 -21 vhcurveto
          -25 -90 -16 -53 hhcurveto
          -10 -2 0 6 29 31 93 27 79 hvcurveto
          52 151 60 180 3 109 10 4 10 3 9 2 rrcurveto
          73 18 105 -8 56 vvcurveto
          42 -97 6 -78 -159 -11 -8 -54 vhcurveto
          endchar
        </CharString>
        <CharString name="bracketright">
          -38 498 709 rmoveto
          5 vlineto
          2 -1 3 -1 3 vhcurveto
          44 -13 -77 2 -78 hhcurveto
          -116 -81 -41 -51 -26 37 -6 36 hvcurveto
          40 37 5 37 hhcurveto
          18 hlineto
          -1 -188 -112 -378 -1 -15 rrcurveto
          -13 -1 -13 -2 -19 -51 -28 10 -49 hhcurveto
          -21 -18 -8 -22 -60 121 -51 79 94 41 21 74 17 hvcurveto
          35 161 85 350 4 174 rrcurveto
          5 vlineto
          endchar
        </CharString>
        <CharString name="breve">
          192 723 81 callgsubr
        </CharString>
        <CharString name="brokenbar">
          -104 143 249 292 callsubr
          61 283 37 54 -80 71 -28 -23 -6 -12 -18 vhcurveto
          108 596 292 callsubr
          62 283 37 54 -81 274 callgsubr
          endchar
        </CharString>
        <CharString name="bullet">
          -322 22 372 rmoveto
          -47 83 -85 52 30 37 38 25 40 -66 133 -43 -43 -50 -61 -43 vhcurveto
          endchar
        </CharString>
        <CharString name="c">
          -70 325 527 48 callgsubr
        </CharString>
        <CharString name="cacute">
          -66 345 687 rmoveto
          -66 callgsubr
          146 callgsubr
          vhcurveto
          -9 -160 48 callgsubr
        </CharString>
        <CharString name="caron">
          158 728 -32 callgsubr
          endchar
        </CharString>
        <CharString name="ccaron">
          -66 459 728 -32 callgsubr
          -123 -201 48 callgsubr
        </CharString>
        <CharString name="ccedilla">
          -66 402 171 rmoveto
          -40 -5 -33 -137 hhcurveto
          -39 -13 11 30 77 118 140 51 hvcurveto
          35 12 -22 26 hhcurveto
          14 10 10 16 45 -60 82 -49 -145 -155 -217 -141 -48 59 -62 57 -29 hvcurveto
          -18 -37 -25 -51 -18 11 callsubr
          9 14 7 15 6 13 rrcurveto
          97 12 105 68 53 vvcurveto
          17 -12 7 -16 vhcurveto
          endchar
        </CharString>
        <CharString name="cedilla">
          31 -27 rmoveto
          20 33 16 38 12 vvcurveto
          19 -24 5 -22 -19 -18 -6 -14 -5 vhcurveto
          -12 -30 -44 -81 -24 11 callsubr
          endchar
        </CharString>
        <CharString name="cent">
          -14 168 208 rmoveto
          61 75 111 62 36 vhcurveto
          -27 -81 -25 -92 -19 -80 rrcurveto
          -37 2 -29 15 28 vvcurveto
          270 314 rmoveto
          8 25 6 19 16 vvcurveto
          22 -8 24 -26 -19 -21 -31 -48 -23 vhcurveto
          2 -6 -6 1 -6 hhcurveto
          -139 -173 -218 -136 -61 113 -87 67 -12 hvcurveto
          -8 -36 -4 -26 -9 vvcurveto
          -18 15 -17 20 25 16 35 80 25 vhcurveto
          88 20 88 50 45 vvcurveto
          17 -11 8 -16 -29 -22 -13 -7 -63 vhcurveto
          19 64 23 78 29 95 rrcurveto
          -14 25 24 -15 17 hhcurveto
          14 10 10 17 32 -26 38 -33 29 hvcurveto
          endchar
        </CharString>
        <CharString name="circumflex">
          121 684 153 callsubr
        </CharString>
        <CharString name="colon">
          -313 47 143 rmoveto
          -44 67 -109 36 29 18 27 30 45 -41 149 -57 -23 -29 -60 -38 vhcurveto
          45 296 rmoveto
          -44 67 -109 36 29 17 27 30 45 -40 149 -57 -23 -29 -60 -38 vhcurveto
          endchar
        </CharString>
        <CharString name="comma">
          -297 50 -225 69 callsubr
        </CharString>
        <CharString name="copyright">
          149 423 527 rmoveto
          -96 -107 -144 -85 -39 58 -59 47 63 100 56 32 10 -8 11 -9 hvcurveto
          -16 -55 -32 -79 hhcurveto
          -13 -4 5 14 61 86 92 43 hvcurveto
          16 1 -4 11 hhcurveto
          9 6 6 9 23 -29 44 -24 hvcurveto
          153 -117 rmoveto
          -176 -104 -100 -170 269 callsubr
          vhcurveto
          -270 -350 rmoveto
          271 callgsubr
          270 callsubr
          hvcurveto
          endchar
        </CharString>
        <CharString name="currency">
          41 234 296 rmoveto
          58 43 40 53 57 24 -44 -42 3 vhcurveto
          -44 -38 -51 -58 -52 -32 28 55 vhcurveto
          348 182 rmoveto
          32 -56 50 -25 -26 -52 -35 -50 -45 vhcurveto
          4 -17 -18 2 -19 hhcurveto
          -20 -20 -3 -5 -19 hvcurveto
          -12 15 -11 15 -7 9 rrcurveto
          35 -20 -76 13 -51 hhcurveto
          -18 -1 -12 -16 -18 51 -46 39 -62 hvcurveto
          -26 -31 -15 -38 -43 vvcurveto
          -31 7 -28 12 -23 vhcurveto
          -58 -61 -42 -35 -9 vvcurveto
          -24 39 -49 38 26 43 40 54 50 vhcurveto
          -9 24 27 -5 28 hhcurveto
          18 18 2 4 16 hvcurveto
          -50 40 38 -35 30 hhcurveto
          22 11 13 24 16 -19 39 -25 46 hvcurveto
          35 35 22 48 59 vvcurveto
          28 -7 26 -13 23 vhcurveto
          65 59 19 6 21 vvcurveto
          endchar
        </CharString>
        <CharString name="d">
          -20 157 135 callsubr
          295 669 rmoveto
          -22 -7 -12 -18 hvcurveto
          2 -64 -25 -125 -29 -126 168 callsubr
          22 93 55 210 23 vvcurveto
          54 -74 71 -28 vhcurveto
          endchar
        </CharString>
        <CharString name="dagger">
          -20 445 405 rmoveto
          163 callgsubr
          -28 -243 -48 -235 -47 vvcurveto
          -28 55 -64 29 23 45 262 110 22 vhcurveto
          281 callgsubr
          endchar
        </CharString>
        <CharString name="daggerdbl">
          -20 190 90 rmoveto
          281 callgsubr
          163 callgsubr
          -13 -109 -16 -108 -15 -90 rrcurveto
          -115 -13 -100 -18 -15 vvcurveto
          -25 31 -61 26 34 55 6 7 50 vhcurveto
          -8 -49 -5 -35 -15 vvcurveto
          -28 55 -64 29 15 23 106 106 21 vhcurveto
          123 21 126 29 -1 34 rrcurveto
          27 -60 2 -66 -30 -35 -1 -2 -36 vhcurveto
          endchar
        </CharString>
        <CharString name="danda">
          -107 200 36 rmoveto
          71 callgsubr
          endchar
        </CharString>
        <CharString name="dcaron">
          220 177 135 callsubr
          130 -53 rmoveto
          -33 47 -41 26 31 56 216 129 30 vhcurveto
          22 93 55 210 23 vvcurveto
          54 -74 71 -28 -22 -7 -12 -18 -71 -24 -122 -28 -123 vhcurveto
          39 -24 -37 27 -44 hhcurveto
          -152 -94 -278 -101 -58 66 -79 56 34 57 36 45 54 hvcurveto
          374 700 rmoveto
          -28 -48 -39 -25 -30 23 -16 40 hvcurveto
          49 callsubr
          vhcurveto
          endchar
        </CharString>
        <CharString name="dcroat">
          -51 177 135 callsubr
          396 537 rmoveto
          1 3 0 2 2 vvcurveto
          54 -74 274 callgsubr
          1 -27 -4 -37 -7 -44 rrcurveto
          -49 -5 -31 -11 -19 vvcurveto
          -23 28 -41 28 -1 vhcurveto
          5 hlineto
          -7 -35 -8 -36 -8 -36 168 callsubr
          14 58 26 104 18 75 rrcurveto
          109 17 46 311 callgsubr
        </CharString>
        <CharString name="degree">
          -138 307 726 rmoveto
          -116 -102 -115 -106 -72 49 -53 78 115 103 115 105 72 -50 54 -77 hvcurveto
          -29 -106 rmoveto
          22 12 -21 -27 -38 -32 -54 -38 -20 -14 20 27 39 32 54 38 hvcurveto
          endchar
        </CharString>
        <CharString name="dieresis">
          12 690 rmoveto
          -24 callgsubr
          213 callgsubr
          vhcurveto
          178 hmoveto
          -24 callgsubr
          213 callgsubr
          vhcurveto
          endchar
        </CharString>
        <CharString name="divide">
          41 95 267 rmoveto
          138 428 18 91 23 -49 6 -68 -48 -173 -8 -7 -108 hvcurveto
          -4 -72 -68 -5 263 callgsubr
          hvcurveto
          93 -121 rmoveto
          -40 68 -68 42 24 31 31 20 33 -54 108 -35 -35 -41 -50 -34 vhcurveto
          110 401 rmoveto
          -39 67 -69 43 24 30 31 20 33 -53 109 -36 -35 -40 -50 -35 vhcurveto
          endchar
        </CharString>
        <CharString name="dollar">
          33 289 132 rmoveto
          9 38 11 43 13 49 rrcurveto
          44 -30 32 -26 -23 vvcurveto
          -30 -51 -15 -58 -6 vhcurveto
          -71 374 rmoveto
          13 42 25 49 21 vhcurveto
          -9 -39 -9 -38 -8 -38 rrcurveto
          -38 25 -27 19 12 vvcurveto
          -17 -378 rmoveto
          -77 -17 84 -49 hhcurveto
          -17 -10 -23 -42 -61 54 -80 95 -18 hvcurveto
          -2 -15 -2 -11 -8 vvcurveto
          -1 -18 16 -23 18 -1 rrcurveto
          15 11 23 51 16 hvcurveto
          123 10 161 63 -2 115 -1 93 -90 77 -84 57 16 59 18 65 20 71 rrcurveto
          1 7 6 1 6 39 1 -10 19 hhcurveto
          11 10 9 17 45 -22 62 -35 22 hvcurveto
          5 19 1 15 11 vvcurveto
          1 23 -5 31 -27 2 rrcurveto
          -23 -23 -42 -62 -23 hvcurveto
          -84 -23 -115 -53 -43 -51 rrcurveto
          -18 -23 -14 -55 -43 vvcurveto
          -68 85 -62 81 -54 vhcurveto
          -15 -65 -15 -62 -12 -53 rrcurveto
          endchar
        </CharString>
        <CharString name="dotaccent">
          -42 734 140 callsubr
        </CharString>
        <CharString name="dotlessi">
          167 callgsubr
          endchar
        </CharString>
        <CharString name="dottedcircle">
          101 139 517 rmoveto
          -26 18 -19 26 26 18 19 26 25 -18 19 -26 -26 -18 -19 -25 vhcurveto
          -82 -110 rmoveto
          -25 20 -19 26 24 20 19 25 25 -20 19 -24 -26 -20 -19 -25 vhcurveto
          -13 -126 rmoveto
          -25 19 -18 25 26 18 18 310 callgsubr
          52 -116 rmoveto
          -26 18 -18 26 25 19 18 26 25 -19 19 -25 -26 -18 -19 -25 vhcurveto
          101 -75 rmoveto
          -26 19 -20 26 25 19 20 26 24 -19 20 -25 -26 -19 -20 -24 vhcurveto
          127 -16 rmoveto
          -26 18 -18 26 26 19 18 26 26 -19 18 -26 -26 -18 -18 -26 vhcurveto
          121 53 rmoveto
          -26 19 -18 25 25 20 18 26 25 -20 19 -25 -25 -19 -19 -25 vhcurveto
          73 98 rmoveto
          -25 19 -19 26 24 19 19 25 26 -19 19 -24 -26 -19 -19 -26 vhcurveto
          10 134 rmoveto
          -26 18 -18 26 25 19 18 26 26 -19 18 -25 -26 -18 -18 -26 vhcurveto
          -50 118 rmoveto
          -25 19 -19 25 26 18 19 310 callgsubr
          -95 68 rmoveto
          -24 19 -20 26 25 18 20 24 26 -18 19 -25 -26 -19 -19 -26 vhcurveto
          -126 15 rmoveto
          -26 18 -18 26 26 18 18 26 26 -18 18 -26 -26 -18 -18 -26 vhcurveto
          endchar
        </CharString>
        <CharString name="doubledanda">
          33 70 36 rmoveto
          71 callgsubr
          290 hmoveto
          71 callgsubr
          endchar
        </CharString>
        <CharString name="dvA">
          231 612 662 rmoveto
          -84 callsubr
          95 -104 callgsubr
        </CharString>
        <CharString name="dvA.init">
          354 741 662 rmoveto
          -79 callsubr
          95 -104 callgsubr
        </CharString>
        <CharString name="dvAA">
          519 612 662 rmoveto
          -84 callsubr
          137 hlineto
          -12 -84 -12 -75 -12 -82 rrcurveto
          -15 -105 -29 -97 -23 65 callgsubr
        </CharString>
        <CharString name="dvAA.init">
          642 741 662 rmoveto
          -79 callsubr
          141 hlineto
          -12 -84 -12 -75 -12 -82 rrcurveto
          -15 -105 -29 -97 -23 65 callgsubr
        </CharString>
        <CharString name="dvAI">
          95 538 158 callgsubr
          -361 -64 callgsubr
          106 hlineto
          -6 -205 -86 -161 -136 vvcurveto
          -109 81 -42 127 97 159 57 74 20 -12 15 -26 vhcurveto
          -80 -32 -53 -139 hhcurveto
          -38 -10 7 40 110 101 212 4 171 hvcurveto
          193 hlineto
          20 -27 26 -33 -63 vvcurveto
          -85 -58 -66 -89 -29 -11 -10 -13 -27 26 -42 66 128 82 105 131 53 -15 44 -23 33 223 callsubr
        </CharString>
        <CharString name="dvAU">
          524 1073 -7 callsubr
          -346 hlineto
          -84 callsubr
          142 hlineto
          -12 -84 -12 -75 -12 -82 rrcurveto
          -15 -105 -29 -97 -23 65 callgsubr
        </CharString>
        <CharString name="dvAU.init">
          642 1192 -7 callsubr
          -336 hlineto
          -79 callsubr
          132 hlineto
          -12 -84 -12 -75 -12 -82 rrcurveto
          -15 -105 -29 -97 -23 65 callgsubr
        </CharString>
        <CharString name="dvAbbreviationsign">
          -193 192 377 100 callgsubr
          endchar
        </CharString>
        <CharString name="dvAcandra">
          231 612 662 rmoveto
          -84 callsubr
          95 -107 callgsubr
          76 277 rmoveto
          16 callgsubr
          161 callgsubr
          vhcurveto
          endchar
        </CharString>
        <CharString name="dvAcandra.init">
          endchar
        </CharString>
        <CharString name="dvAnusvara">
          33 758 rmoveto
          40 -44 91 -34 77 callgsubr
          vhcurveto
          endchar
        </CharString>
        <CharString name="dvAnusvara.amI">
          81 754 rmoveto
          40 -44 91 -34 77 callgsubr
          vhcurveto
          endchar
        </CharString>
        <CharString name="dvAvagraha">
          52 280 31 rmoveto
          146 146 93 114 hvcurveto
          149 -273 2 62 vvcurveto
          28 73 29 87 11 vhcurveto
          94 12 68 -8 32 vvcurveto
          32 -37 55 -54 -143 -118 -25 -71 -72 vhcurveto
          -23 -20 -17 -59 -42 -104 276 -28 -53 vvcurveto
          -37 -109 -55 -57 vhcurveto
          -87 -25 96 -59 hhcurveto
          -22 -9 -24 -30 -66 92 -93 123 hvcurveto
          endchar
        </CharString>
        <CharString name="dvB">
          -184 27 callgsubr
          292 34 rmoveto
          -21 -26 -16 -18 -32 hvcurveto
          -80 callsubr
          143 157 99 59 21 -10 12 -26 hvcurveto
          -407 404 -106 callgsubr
          520 -104 callgsubr
        </CharString>
        <CharString name="dvBA">
          86 183 224 -44 callgsubr
          -311 242 callgsubr
          418 136 callsubr
          -130 -110 -163 -132 199 callsubr
          hvcurveto
          -33 callgsubr
        </CharString>
        <CharString name="dvBH">
          -60 157 callgsubr
          53 -255 rmoveto
          141 13 158 7 47 vvcurveto
          25 -22 15 -37 -42 -63 -3 -7 -105 vhcurveto
          141 callsubr
          endchar
        </CharString>
        <CharString name="dvBHA">
          139 208 166 rmoveto
          -15 -17 31 16 21 49 7 58 6 hvcurveto
          -48 -25 -28 -33 -22 hhcurveto
          139 324 9 callgsubr
          -86 -64 -96 -83 181 callgsubr
          14 vhcurveto
          -2 -14 -4 -13 -3 -14 rrcurveto
          -145 -15 -117 -17 -95 vvcurveto
          -75 71 -100 79 73 72 86 115 44 vhcurveto
          43 4 43 5 37 7 rrcurveto
          -14 -93 -16 -93 -20 -106 callsubr
        </CharString>
        <CharString name="dvBH_LA">
          753 157 callgsubr
          278 165 -106 callgsubr
          546 -2 hlineto
          -36 callsubr
          -103 -78 -58 -83 -39 hvcurveto
          -42 -1 -61 -3 -94 -6 rrcurveto
          141 callsubr
          1 hlineto
          70 6 73 5 57 9 rrcurveto
          -2 -15 -1 -15 -16 vvcurveto
          -105 60 -105 115 62 44 42 35 32 -18 20 -24 vhcurveto
          -92 callsubr
        </CharString>
        <CharString name="dvBH_NA">
          179 325 -91 94 callgsubr
          -118 274 38 callsubr
          -14 -85 -21 -77 -4 -31 rrcurveto
          -5 hlineto
          63 callsubr
          22 17 -2 -5 15 hvcurveto
          -3 6 4 258 callsubr
          80 -104 callgsubr
        </CharString>
        <CharString name="dvBH_R">
          -86 597 227 rmoveto
          -97 -324 -254 -73 301 callsubr
          39 89 90 64 90 hvcurveto
          68 49 138 87 42 vvcurveto
          19 -13 8 -23 vhcurveto
          -390 -44 rmoveto
          -15 -16 31 16 15 44 8 61 7 hvcurveto
          -46 -26 -28 -31 -20 hhcurveto
          140 307 -50 callgsubr
          264 -106 rmoveto
          -43 -58 -7 -9 -74 hvcurveto
          219 callgsubr
          193 callsubr
          vhcurveto
          223 callgsubr
          125 11 129 14 44 vvcurveto
          28 -17 24 -30 vhcurveto
          endchar
        </CharString>
        <CharString name="dvBH_RA">
          179 207 183 38 callsubr
          -9 -55 -12 -53 -9 -38 rrcurveto
          13 -26 -30 8 -26 hhcurveto
          -42 -73 -46 -54 -64 hvcurveto
          -69 -58 -59 -67 -30 138 callgsubr
          54 61 49 61 vhcurveto
          43 54 42 30 32 hhcurveto
          43 33 -30 -15 32 hvcurveto
          -5 11 11 -4 11 hhcurveto
          0 1 vlineto
          -65 callsubr
          82 -107 callgsubr
          endchar
        </CharString>
        <CharString name="dvBH_R_YA">
          574 974 2 callsubr
          -43 -31 -41 -38 -36 hvcurveto
          14 -8 -13 9 -19 hhcurveto
          -43 -58 -7 -9 -74 hvcurveto
          9 42 5 41 39 vvcurveto
          20 -1 19 -3 18 vhcurveto
          -239 -371 rmoveto
          -15 -16 31 16 15 44 8 61 7 hvcurveto
          -46 -26 -28 -31 -20 hhcurveto
          140 307 185 callsubr
          193 callsubr
          hvcurveto
          223 callgsubr
          54 5 55 5 45 8 rrcurveto
          -21 -18 -14 -15 -11 vvcurveto
          -12 3 -13 5 -12 vhcurveto
          -131 -61 -224 -185 -61 vvcurveto
          301 callsubr
          39 89 90 64 90 vhcurveto
          45 32 76 50 46 41 rrcurveto
          -3 8 9 -2 9 115 callgsubr
          114 hlineto
          48 -103 callsubr
          25 -48 hvcurveto
          endchar
        </CharString>
        <CharString name="dvBH_VA">
          578 729 217 -68 callgsubr
          -521 -65 rmoveto
          -15 -17 31 16 20 46 8 58 6 hvcurveto
          -48 -24 -27 -33 -21 hhcurveto
          139 338 21 callgsubr
          -86 -64 -96 -83 181 callgsubr
          15 vhcurveto
          221 callgsubr
          rrcurveto
          -132 -11 -122 -19 -81 277 callsubr
          75 7 79 5 58 10 rrcurveto
          -3 -20 -2 -20 -19 vvcurveto
          -90 26 -73 152 callsubr
          vhcurveto
          -93 callsubr
        </CharString>
        <CharString name="dvBH_YA">
          574 974 -35 callsubr
          139 338 185 callsubr
          -86 -64 -96 -83 181 callgsubr
          15 hvcurveto
          221 callgsubr
          rrcurveto
          -132 -11 -122 -19 -81 277 callsubr
          42 4 43 3 41 4 rrcurveto
          -2 -3 -1 -3 -3 vvcurveto
          173 callsubr
          -40 callgsubr
          vhcurveto
          -12 -74 -10 -64 -17 -106 callsubr
        </CharString>
        <CharString name="dvB_BA">
          505 602 224 -44 callgsubr
          -638 -4 -58 callgsubr
          -115 59 callgsubr
          860 136 callsubr
          -118 -101 -133 -124 -18 hvcurveto
          1 -3 -3 0 -4 hhcurveto
          -21 -26 -16 -18 -32 hvcurveto
          -80 callsubr
          108 116 56 53 50 hvcurveto
          -69 12 42 -40 91 hhcurveto
          77 71 23 36 58 hvcurveto
          -33 callgsubr
        </CharString>
        <CharString name="dvB_BHA">
          541 610 163 callsubr
          -566 -273 -58 callgsubr
          769 438 134 callgsubr
          -25 -167 -27 -3 -33 -5 -46 -5 rlinecurve
          9 40 4 42 41 152 callgsubr
          -36 -31 -16 -25 -25 vhcurveto
          4 -10 -12 2 -15 hhcurveto
          -520 -64 callgsubr
          503 73 callsubr
          14 vhcurveto
          -2 -14 -4 -13 -3 -14 -132 -13 -109 -16 -18 -74 -21 -3 -23 -14 -30 -17 -80 callsubr
          105 112 53 52 53 hvcurveto
          -59 24 54 -54 58 hhcurveto
          73 72 86 115 44 hvcurveto
          43 4 43 5 37 7 rrcurveto
          -14 -93 -16 -93 -20 -106 callsubr
        </CharString>
        <CharString name="dvB_BH_RA">
          575 487 554 rmoveto
          48 -103 callsubr
          25 -48 hvcurveto
          -419 -64 callgsubr
          535 -371 rmoveto
          -15 -16 31 16 15 43 7 60 5 hvcurveto
          -44 -25 -27 -30 -20 hhcurveto
          140 307 -50 callgsubr
          -560 -273 -58 callgsubr
          764 438 138 callsubr
          -127 -13 -127 -7 -5 -85 -18 -5 -22 -13 -25 -14 -80 callsubr
          106 113 54 52 52 hvcurveto
          -52 26 49 -45 53 hhcurveto
          77 69 84 106 43 hvcurveto
          70 callgsubr
        </CharString>
        <CharString name="dvB_DA">
          23 callsubr
          -86 callsubr
        </CharString>
        <CharString name="dvB_DA_mU">
          23 callsubr
          7 8 0 1 7 hvcurveto
          -94 callgsubr
        </CharString>
        <CharString name="dvB_DA_mUU">
          409 27 callgsubr
          358 -503 18 callgsubr
          -473 941 148 callgsubr
          -89 -112 -121 -104 -45 hvcurveto
          -5 hlineto
          -21 -26 -16 -18 -32 hvcurveto
          -80 callsubr
          93 99 42 45 57 hvcurveto
          -83 12 76 -44 111 hhcurveto
          -91 callsubr
        </CharString>
        <CharString name="dvB_DHA">
          531 27 callgsubr
          292 34 rmoveto
          -21 -26 -16 -18 -32 hvcurveto
          -80 callsubr
          143 157 99 59 21 -10 12 -26 hvcurveto
          298 349 -43 callsubr
          -44 -53 -24 -38 -48 hvcurveto
          11 -11 -17 8 -27 hhcurveto
          -520 -64 callgsubr
          491 hlineto
          -35 -49 -23 -55 -52 vvcurveto
          -55 24 -41 54 -10 vhcurveto
          -29 -35 -21 -40 -38 vvcurveto
          -53 38 -30 64 109 90 40 56 76 vhcurveto
          -11 -51 -10 -39 -14 65 callgsubr
        </CharString>
        <CharString name="dvB_DH_VA">
          881 27 callgsubr
          292 34 rmoveto
          -21 -26 -16 -18 -32 hvcurveto
          -80 callsubr
          143 157 99 59 21 -10 12 -26 hvcurveto
          855 296 rmoveto
          -52 callgsubr
          -97 -68 -78 -91 -34 hvcurveto
          -52 -56 -89 -91 -125 -60 callgsubr
          110 102 68 86 27 hvcurveto
          -12 11 18 -7 26 hhcurveto
          103 -337 -68 callgsubr
          -248 390 -8 callgsubr
          145 55 rmoveto
          -24 -17 -5 -9 -11 hvcurveto
          34 -10 -27 23 -41 hhcurveto
          -45 -52 -24 -38 -48 hvcurveto
          11 -11 -18 8 -27 hhcurveto
          -520 -64 callgsubr
          492 hlineto
          -35 -49 -23 -55 -52 vvcurveto
          -55 24 -41 54 -10 vhcurveto
          -29 -35 -21 -40 -38 vvcurveto
          -53 38 -30 64 87 104 37 52 77 vhcurveto
          -80 4 28 -63 74 hhcurveto
          124 callsubr
          hvcurveto
          -93 callsubr
        </CharString>
        <CharString name="dvB_JA">
          639 39 callgsubr
          981 hlineto
          -20 -135 rlineto
          -70 callsubr
          -100 -70 -124 -114 -7 vhcurveto
          3 -6 -6 1 -9 hhcurveto
          -21 -26 -16 -18 -32 hvcurveto
          -80 callsubr
          119 129 69 57 40 hvcurveto
          -69 13 49 -44 74 hhcurveto
          126 156 67 105 hvcurveto
          3 vlineto
          29 4 32 8 30 14 rrcurveto
          -16 -92 -23 -80 -28 callgsubr
          111 -104 callgsubr
        </CharString>
        <CharString name="dvB_JHA">
          682 773 98 callsubr
          -335 63 110 callgsubr
          39 -43 41 -46 41 -36 rrcurveto
          -10 -31 -34 -7 -39 207 callsubr
          -113 59 callgsubr
          713 -2 hlineto
          -26 0 -27 1 -24 vhcurveto
          13 -34 -42 288 callsubr
          -120 224 -48 -77 vvcurveto
          -20 -19 -15 -31 -8 vhcurveto
          82 -39 -49 73 -84 hhcurveto
          -30 -27 -7 -13 -22 hvcurveto
          -16 -8 -21 -14 -28 -15 -46 44 -50 64 -41 57 rrcurveto
          11 14 14 6 15 hhcurveto
          18 15 -14 -24 14 hvcurveto
          -22 13 14 -16 28 hhcurveto
          22 14 19 28 56 -63 84 -64 -144 -109 -163 -132 121 callgsubr
          73 79 27 35 59 hvcurveto
          -69 24 85 -46 111 8 7 0 8 hhcurveto
          -121 51 51 -96 44 hhcurveto
          20 11 9 19 38 -44 67 -41 96 hvcurveto
          79 18 47 40 61 vvcurveto
          25 -5 21 -8 19 vhcurveto
          51 7 55 16 52 21 rrcurveto
          -18 -83 -12 -68 -42 -57 callsubr
          98 -104 callgsubr
        </CharString>
        <CharString name="dvB_J_YA">
          1098 1498 -101 callgsubr
          -1179 -330 -58 callgsubr
          -115 59 callgsubr
          988 97 callsubr
          -85 -75 -104 -105 -20 vhcurveto
          1 -3 -3 0 -3 hhcurveto
          -21 -26 -16 -18 -32 hvcurveto
          -80 callsubr
          105 113 54 52 52 hvcurveto
          -70 12 49 -53 77 hhcurveto
          132 150 77 105 197 callgsubr
          3 hvcurveto
          57 5 71 19 56 25 rrcurveto
          -22 -19 -15 -16 -11 vvcurveto
          173 callsubr
          -40 callgsubr
          vhcurveto
          -12 -74 -10 -64 -17 -106 callsubr
        </CharString>
        <CharString name="dvB_JxA">
          639 847 -69 callsubr
          -664 184 -58 callgsubr
          -115 59 callgsubr
          981 hlineto
          -20 -135 rlineto
          -70 callsubr
          -100 -70 -124 -114 -7 vhcurveto
          3 -6 -6 1 -9 hhcurveto
          -21 -26 -16 -18 -32 hvcurveto
          -80 callsubr
          119 129 69 57 40 hvcurveto
          -69 13 49 -44 74 hhcurveto
          126 156 67 105 hvcurveto
          3 vlineto
          29 4 32 8 30 14 rrcurveto
          -16 -92 -23 -80 -28 callgsubr
          111 -104 callgsubr
        </CharString>
        <CharString name="dvB_LA">
          628 39 callgsubr
          978 -2 hlineto
          -36 callsubr
          -137 -93 -104 -128 -17 hvcurveto
          -22 -25 -16 -18 -32 hvcurveto
          -80 callsubr
          102 109 50 51 54 hvcurveto
          -87 16 58 -75 97 hhcurveto
          62 44 42 35 32 -18 20 -24 hvcurveto
          -92 callsubr
        </CharString>
        <CharString name="dvB_L_YA">
          1029 1429 -101 callgsubr
          -1110 -330 -58 callgsubr
          -115 59 callgsubr
          919 266 callsubr
          -30 -40 -37 -36 hvcurveto
          -1 hlineto
          -26 -142 -41 -46 -94 hvcurveto
          310 callsubr
          -137 -93 -104 -128 -17 vhcurveto
          -22 -25 -16 -18 -32 hvcurveto
          -80 callsubr
          102 109 50 51 54 hvcurveto
          -87 16 58 -75 97 hhcurveto
          62 44 42 35 32 -18 20 -24 hvcurveto
          -97 callsubr
          31 59 24 31 86 vhcurveto
          12 4 rlineto
          -2 vlineto
          173 callsubr
          -40 callgsubr
          vhcurveto
          -12 -74 -10 -64 -17 -106 callsubr
        </CharString>
        <CharString name="dvB_NA">
          127 callgsubr
          -189 -357 94 callgsubr
          -131 753 164 callgsubr
          -10 -35 -10 -28 -3 -16 rrcurveto
          -5 hlineto
          63 callsubr
          22 17 -2 -5 15 hvcurveto
          -3 6 4 258 callsubr
          116 -104 callgsubr
        </CharString>
        <CharString name="dvB_R">
          -184 224 172 rmoveto
          197 callsubr
          26 9 33 15 31 hvcurveto
          38 -43 41 -45 40 -35 rrcurveto
          -11 -29 -34 -8 -39 hhcurveto
          251 86 rmoveto
          -21 -26 -16 -18 -32 hvcurveto
          -45 44 -49 63 -40 55 rrcurveto
          11 14 14 6 15 hhcurveto
          18 15 -14 -24 14 hvcurveto
          -22 13 14 -16 28 hhcurveto
          22 14 19 28 56 -63 84 -64 -144 -109 -163 -132 -61 16 -45 39 -25 hvcurveto
          17 -11 22 -6 26 -3 rrcurveto
          -81 -66 -63 -69 -31 vvcurveto
          301 callsubr
          39 73 80 64 86 vhcurveto
          55 41 186 114 56 vvcurveto
          21 -10 12 -26 vhcurveto
          -384 404 -106 callgsubr
          398 -104 callgsubr
        </CharString>
        <CharString name="dvB_RA">
          127 callgsubr
          -320 396 164 callgsubr
          80 callsubr
        </CharString>
        <CharString name="dvB_SA">
          715 27 callgsubr
          292 34 rmoveto
          -21 -26 -16 -18 -32 hvcurveto
          -80 callsubr
          143 157 99 59 21 -10 12 -26 hvcurveto
          631 128 -5 callgsubr
          -1063 -89 callgsubr
          576 -96 callsubr
          75 2 92 12 79 22 rrcurveto
          -14 -91 -15 -88 -20 vvcurveto
          -52 33 -21 25 54 13 -105 callsubr
          endchar
        </CharString>
        <CharString name="dvB_SHA">
          633 27 callgsubr
          292 34 rmoveto
          -21 -26 -16 -18 -32 hvcurveto
          -80 callsubr
          143 157 99 59 21 -10 12 -26 hvcurveto
          236 252 -44 callsubr
          -643 152 -106 callgsubr
          509 hlineto
          -3 -11 -1 -11 -12 vvcurveto
          -92 86 -62 119 9 8 0 1 8 vhcurveto
          -11 callgsubr
          108 -78 81 -128 -50 -46 -14 -23 -35 vhcurveto
          11 -11 -18 7 -26 hhcurveto
          481 hmoveto
          -54 callsubr
        </CharString>
        <CharString name="dvB_TA">
          512 39 callgsubr
          864 hlineto
          10 callgsubr
          -151 -80 -52 -103 -2 hvcurveto
          1 -4 -4 0 -5 hhcurveto
          -21 -26 -16 -18 -32 hvcurveto
          -80 callsubr
          118 128 68 56 41 hvcurveto
          -101 30 98 -91 67 hhcurveto
          32 20 16 25 hvcurveto
          -78 callgsubr
        </CharString>
        <CharString name="dvB_VA">
          431 582 217 -68 callgsubr
          -399 7 -58 callgsubr
          -115 59 callgsubr
          822 hlineto
          -52 callgsubr
          -128 -76 -134 -121 -17 hvcurveto
          -19 -4 -22 -14 -27 -15 -80 callsubr
          94 101 43 46 57 hvcurveto
          -66 9 29 -48 65 hhcurveto
          124 callsubr
          hvcurveto
          -93 callsubr
        </CharString>
        <CharString name="dvB_YA">
          510 910 -101 callgsubr
          -591 -330 110 callgsubr
          38 -43 42 -45 40 -36 rrcurveto
          -11 -31 -35 -7 -37 207 callsubr
          -115 59 callgsubr
          400 -77 callgsubr
          -81 -113 -75 -55 -49 hvcurveto
          -18 -11 -31 -25 -42 -24 -45 44 -50 63 -40 56 rrcurveto
          11 14 14 6 15 hhcurveto
          18 15 -14 -24 14 hvcurveto
          -22 13 14 -16 28 hhcurveto
          22 14 19 28 56 -63 84 -64 -144 -109 -163 -132 121 callgsubr
          103 114 50 55 63 hvcurveto
          -19 19 23 -13 23 115 callgsubr
          114 hlineto
          48 -103 callsubr
          25 -48 hvcurveto
          endchar
        </CharString>
        <CharString name="dvC">
          -64 579 554 rmoveto
          48 -103 callsubr
          25 -48 hvcurveto
          -469 -64 callgsubr
          505 -301 132 callgsubr
          -64 43 -52 91 152 157 90 71 22 -15 12 -25 vhcurveto
          endchar
        </CharString>
        <CharString name="dvCA">
          189 111 -75 callgsubr
          493 9 callsubr
          -48 -41 -24 -48 -51 vvcurveto
          -67 46 -49 82 87 72 35 55 58 vhcurveto
          -12 -54 -11 -42 -14 vvcurveto
          -44 55 -47 20 35 24 -105 callgsubr
        </CharString>
        <CharString name="dvCH">
          169 791 554 rmoveto
          48 -103 callsubr
          25 -48 hvcurveto
          -678 hlineto
          132 callsubr
          307 callsubr
          180 327 156 186 23 callgsubr
          129 -269 rmoveto
          47 19 38 27 271 callsubr
          vhcurveto
          -4 10 -2 13 14 vvcurveto
          endchar
        </CharString>
        <CharString name="dvCHA">
          169 387 -70 callgsubr
          -449 400 -106 callgsubr
          138 232 callgsubr
          41 -12 vhcurveto
          -54 -53 -43 -67 -51 157 callsubr
        </CharString>
        <CharString name="dvCH_RA">
          169 387 -70 callgsubr
          -449 400 -106 callgsubr
          138 232 callgsubr
          41 -12 vhcurveto
          275 callgsubr
          -56 40 -38 82 -3 vhcurveto
          -41 -48 -38 -54 -17 -25 callsubr
          37 -54 79 -1 99 hvcurveto
          160 56 169 124 159 vvcurveto
          47 -18 48 -37 23 vhcurveto
          2 9 2 8 2 7 5 16 8 12 8 10 rrcurveto
          97 -104 callgsubr
        </CharString>
        <CharString name="dvCH_R_YA">
          846 1246 -101 callgsubr
          -497 -184 rmoveto
          271 callsubr
          hvcurveto
          -4 10 -2 13 14 vvcurveto
          47 19 38 27 vhcurveto
          -500 292 rmoveto
          132 callsubr
          -56 40 -38 82 -3 vhcurveto
          -41 -48 -38 -54 -17 -25 callsubr
          37 -54 78 -1 99 hvcurveto
          164 55 174 119 136 vvcurveto
          23 callgsubr
          366 -77 callgsubr
          hvcurveto
          -107 -197 -96 -41 vvcurveto
          173 callsubr
          -40 callgsubr
          vhcurveto
          -12 -74 -10 -64 -17 -106 callsubr
        </CharString>
        <CharString name="dvCH_YA">
          855 1255 -101 callgsubr
          -506 -184 rmoveto
          271 callsubr
          hvcurveto
          -4 10 -2 13 14 vvcurveto
          47 19 38 27 vhcurveto
          -500 292 rmoveto
          132 callsubr
          307 callsubr
          180 327 156 186 23 callgsubr
          375 -77 callgsubr
          hvcurveto
          -107 -197 -96 -41 vvcurveto
          173 callsubr
          -40 callgsubr
          vhcurveto
          -12 -74 -10 -64 -17 -106 callsubr
        </CharString>
        <CharString name="dvC_CA">
          570 110 -75 callgsubr
          875 9 callsubr
          -41 -36 -24 -40 -6 -43 rrcurveto
          -21 -47 -59 -57 -126 hhcurveto
          -20 -5 3 15 33 56 49 -1 callgsubr
          102 105 41 48 57 vhcurveto
          -24 22 34 -15 45 hhcurveto
          87 72 35 55 58 hvcurveto
          -12 -54 -11 -42 -14 vvcurveto
          -44 55 -47 20 35 24 -105 callgsubr
        </CharString>
        <CharString name="dvC_CHA">
          603 820 -70 callgsubr
          -887 400 -106 callgsubr
          576 232 callgsubr
          40 -12 vhcurveto
          -30 -54 -90 -74 -125 hhcurveto
          -18 -7 7 10 30 56 54 -1 callgsubr
          57 65 18 26 57 vhcurveto
          -3 vlineto
          37 callsubr
        </CharString>
        <CharString name="dvC_CH_VA">
          621 1083 370 rmoveto
          12 2 -10 -20 -45 -36 -42 -51 -34 hvcurveto
          85 22 25 66 26 hhcurveto
          -269 -606 rmoveto
          -13 -43 -33 -5 -39 hhcurveto
          -44 -51 4 28 30 70 48 41 38 35 -33 -54 27 hvcurveto
          -704 893 -106 callgsubr
          666 hlineto
          -99 -34 -90 -89 -89 vvcurveto
          -31 16 -23 25 -14 vhcurveto
          -27 -54 -92 -81 -131 hhcurveto
          -18 -7 7 10 30 56 54 -1 callgsubr
          71 82 28 37 67 vhcurveto
          -2 -8 -1 -8 -8 vvcurveto
          307 callsubr
          48 59 9 18 61 vhcurveto
          -9 -48 -9 -47 -8 -44 rrcurveto
          35 -29 -37 25 -48 hhcurveto
          -108 -122 -99 -87 -73 80 -40 106 42 41 4 9 39 hvcurveto
          -21 1 12 -15 18 hhcurveto
          34 30 33 44 12 hvcurveto
          14 51 12 109 28 138 14 68 rcurveline
          123 58 104 92 123 vvcurveto
          65 -34 66 -69 -156 -33 -161 -159 -26 vhcurveto
          -28 -75 -75 -17 -42 hhcurveto
          -5 -3 1 2 43 88 70 53 41 hvcurveto
          23 18 9 18 17 vvcurveto
          22 -16 8 -29 vhcurveto
          -26 -35 -13 -31 hhcurveto
          -17 -5 4 11 36 104 83 55 hvcurveto
          24 -5 -15 17 hhcurveto
          12 18 34 25 17 -5 13 -10 9 hvcurveto
          346 -104 callgsubr
        </CharString>
        <CharString name="dvC_MA">
          616 1017 435 -83 callgsubr
          -587 151 callgsubr
          636 151 callsubr
          -51 -11 -45 -12 -34 -17 rrcurveto
          -24 -55 -85 -83 -131 hhcurveto
          -21 -9 6 12 29 56 53 -1 callgsubr
          74 83 29 37 67 vhcurveto
          -61 25 61 -63 61 hhcurveto
          107 callsubr
          hvcurveto
          52 8 56 8 49 11 -2 -13 rcurveline
          -15 -105 -20 -115 -23 -106 callsubr
        </CharString>
        <CharString name="dvC_NA">
          179 319 -41 -28 callsubr
          -208 703 -106 callgsubr
          483 98 callgsubr
          -42 -9 -38 -5 -24 -49 callgsubr
          113 -107 callgsubr
          endchar
        </CharString>
        <CharString name="dvC_R">
          -94 562 554 rmoveto
          48 -103 callsubr
          25 -48 hvcurveto
          -452 -64 callgsubr
          505 -221 132 callgsubr
          -49 23 -37 49 -18 vhcurveto
          -7 19 23 -4 27 hhcurveto
          -118 -80 -101 -113 -41 130 callsubr
          41 107 121 76 93 vhcurveto
          64 52 177 122 60 vvcurveto
          22 -15 12 -25 vhcurveto
          endchar
        </CharString>
        <CharString name="dvC_RA">
          179 100 -75 callgsubr
          494 98 callgsubr
          -43 -9 -38 -5 -25 rrcurveto
          5 -19 -19 3 -20 hhcurveto
          -53 -67 -29 -37 -60 hvcurveto
          -79 -49 -66 -64 -33 130 callsubr
          34 50 50 43 62 vhcurveto
          34 50 57 18 40 hhcurveto
          27 19 -3 -4 16 hvcurveto
          -4 18 16 -5 25 hhcurveto
          0 1 vlineto
          35 24 157 155 35 hvcurveto
          11 callgsubr
        </CharString>
        <CharString name="dvC_YA">
          633 1033 -101 callgsubr
          -789 -89 callgsubr
          483 -77 callgsubr
          -81 -114 -75 -55 -50 hvcurveto
          -33 -49 -93 -82 -116 hhcurveto
          -18 -7 5 11 33 56 51 -1 callgsubr
          97 117 47 53 71 vhcurveto
          -11 15 17 -7 16 115 callgsubr
          114 hlineto
          48 -103 callsubr
          25 -48 hvcurveto
          endchar
        </CharString>
        <CharString name="dvCandrabindu">
          71 932 rmoveto
          40 -44 91 -34 77 callgsubr
          vhcurveto
          -247 52 154 callgsubr
        </CharString>
        <CharString name="dvD">
          0 43 -307 rmoveto
          -37 callsubr
          89 969 -106 callgsubr
          279 216 callsubr
          -86 callsubr
        </CharString>
        <CharString name="dvDA">
          0 112 -75 callgsubr
          279 216 callsubr
          -86 callsubr
        </CharString>
        <CharString name="dvDA_mU">
          0 48 -75 callgsubr
          343 -13 callsubr
          -97 80 -52 120 7 8 0 1 7 hvcurveto
          -94 callgsubr
        </CharString>
        <CharString name="dvDA_mUU">
          4 136 -279 18 callgsubr
          -88 177 callgsubr
          344 216 callsubr
          -91 callsubr
        </CharString>
        <CharString name="dvDA_mvR">
          0 112 -75 callgsubr
          299 hlineto
          -13 -22 -9 -26 -2 -29 rrcurveto
          4 -14 -14 2 -15 hhcurveto
          -114 -157 -180 -106 -81 72 -49 109 -5 hvcurveto
          -7 -19 -6 -19 -4 -18 rrcurveto
          -1 hlineto
          -106 -134 -113 -97 234 callgsubr
          60 117 67 77 hvcurveto
          1 1 0 1 hhcurveto
          30 5 -5 56 25 62 4 9 3 8 4 8 rrcurveto
          63 18 55 37 42 vvcurveto
          29 -29 38 -39 -27 -33 -29 -41 -30 vhcurveto
          -1 -11 -12 -1 -14 hhcurveto
          -48 -42 11 25 62 109 109 58 hvcurveto
          52 14 -37 22 hhcurveto
          20 22 12 26 5 hvcurveto
          2 9 1 11 12 vvcurveto
          66 15 48 13 35 vhcurveto
          157 -104 callgsubr
        </CharString>
        <CharString name="dvDD">
          -17 51 hmoveto
          -37 callsubr
          34 662 rmoveto
          -48 -21 -21 -31 -31 21 -25 48 hvcurveto
          308 hlineto
          -2 -15 -1 -16 -16 vvcurveto
          -9 vlineto
          6 -11 -11 4 -12 hhcurveto
          -86 -144 -72 -57 -29 46 -75 41 -12 hvcurveto
          -79 callgsubr
        </CharString>
        <CharString name="dvDDA">
          -17 85 662 rmoveto
          -48 -21 -21 -31 -31 21 -25 48 hvcurveto
          308 hlineto
          -2 -15 -1 -16 -16 vvcurveto
          -9 vlineto
          6 -11 -11 4 -12 hhcurveto
          -86 -144 -72 -57 -29 46 -75 41 -12 hvcurveto
          -79 callgsubr
        </CharString>
        <CharString name="dvDDH">
          85 51 -37 rmoveto
          -37 callsubr
          376 240 -41 callgsubr
          21 11 9 14 5 hvcurveto
          4 10 1 15 18 200 callgsubr
          181 -107 callgsubr
          endchar
        </CharString>
        <CharString name="dvDDHA">
          85 427 203 -41 callgsubr
          21 11 9 14 5 hvcurveto
          4 10 1 15 18 200 callgsubr
          181 -107 callgsubr
          endchar
        </CharString>
        <CharString name="dvDDH_DDHA">
          45 361 186 rmoveto
          41 19 23 49 30 19 -10 -13 -22 -49 -15 -68 -7 vhcurveto
          -53 -386 rmoveto
          27 23 -14 -23 -19 -30 -14 -43 -7 hvcurveto
          -10 14 -6 15 15 vvcurveto
          19 17 14 22 vhcurveto
          -214 865 -106 callgsubr
          355 hlineto
          -5 -16 -3 -18 -1 -19 rrcurveto
          5 -13 -13 2 -13 hhcurveto
          -141 -209 -171 -98 -53 27 -49 35 -20 hvcurveto
          -25 44 46 -10 81 hhcurveto
          5 hlineto
          3 -15 4 -16 5 -14 rrcurveto
          1 -8 -8 0 -9 hhcurveto
          -155 -162 -124 -105 -130 105 -61 139 113 139 40 93 74 -69 57 -85 -81 -49 -39 -56 -27 5 -24 14 -22 hvcurveto
          -68 4 -50 28 44 vvcurveto
          76 124 74 94 vhcurveto
          51 9 -9 33 hhcurveto
          0 1 vlineto
          4 3 1 2 3 hvcurveto
          12 6 9 16 18 vvcurveto
          1 vlineto
          2 vlineto
          25 -21 40 -16 48 vhcurveto
          108 17 83 48 66 vvcurveto
          67 -59 46 -84 -96 -55 -53 -87 vhcurveto
          -14 vlineto
          -77 1 -27 16 29 vvcurveto
          56 168 122 64 vhcurveto
          56 1 -44 35 hhcurveto
          9 8 2 4 7 hvcurveto
          15 7 3 16 30 200 callgsubr
          222 -104 callgsubr
        </CharString>
        <CharString name="dvDDH_R">
          85 -3 -233 rmoveto
          -37 callsubr
          430 436 7 callsubr
        </CharString>
        <CharString name="dvDDH_RA">
          85 427 203 7 callsubr
        </CharString>
        <CharString name="dvDDH_YA">
          732 1132 51 callgsubr
          -75 -130 -43 -32 -84 vhcurveto
          2 48 5 39 4 29 rrcurveto
          -136 -351 -41 callgsubr
          10 8 2 4 6 hvcurveto
          2 -6 rlineto
          1 82 116 67 89 hhcurveto
          14 7 -4 -11 hvcurveto
          -57 -163 -65 -40 vvcurveto
          -51 66 -53 46 99 105 27 59 290 callgsubr
          -65 -13 callgsubr
          32 callgsubr
          endchar
        </CharString>
        <CharString name="dvDDHxA">
          85 242 -15 -78 callsubr
          185 218 -41 callgsubr
          21 11 9 14 5 hvcurveto
          4 10 1 15 18 200 callgsubr
          181 -107 callgsubr
          endchar
        </CharString>
        <CharString name="dvDD_DDA">
          -25 85 -75 callgsubr
          300 47 callgsubr
          13 12 1 1 12 hvcurveto
          -1 291 callgsubr
          -6 0 -6 -6 vvcurveto
          7 -13 -14 5 -11 hhcurveto
          -79 -143 -70 -49 -30 38 -53 41 -12 hvcurveto
          83 -24 77 -8 -29 vvcurveto
          -24 -29 -20 -56 -77 -48 22 46 -26 vhcurveto
          32 -18 -19 24 247 callsubr
          -25 -30 -90 123 -81 128 122 84 64 69 hvcurveto
          151 -230 -14 21 vvcurveto
          20 81 16 40 vhcurveto
          29 18 -13 21 hhcurveto
          0 1 vlineto
          25 13 26 35 54 6 38 5 28 hvcurveto
          39 25 22 36 38 133 callgsubr
          205 callsubr
          endchar
        </CharString>
        <CharString name="dvDD_DDHA">
          -37 297 -214 rmoveto
          23 20 -13 -13 -22 -31 -12 -43 -6 hvcurveto
          -7 12 -4 11 10 vvcurveto
          22 20 11 22 vhcurveto
          -212 876 rmoveto
          -48 -21 -21 -31 -31 21 -25 48 hvcurveto
          318 47 callgsubr
          15 14 1 2 14 hvcurveto
          -4 -18 -3 -18 -2 -17 rrcurveto
          3 -12 -12 2 -13 hhcurveto
          -134 -206 -155 -106 -53 32 -48 35 -20 hvcurveto
          -25 44 34 -10 81 hhcurveto
          140 118 56 77 59 -73 58 -76 -81 -50 -48 -50 -17 4 -19 9 -19 hvcurveto
          -71 1 -30 30 22 vvcurveto
          61 171 104 51 vhcurveto
          51 9 -24 41 hhcurveto
          18 8 26 22 hvcurveto
          2 vlineto
          3 vlineto
          63 15 57 7 39 vhcurveto
          34 25 18 33 34 133 callgsubr
          147 -104 callgsubr
        </CharString>
        <CharString name="dvDD_R">
          -17 17 -232 rmoveto
          -37 callsubr
          68 894 13 callsubr
        </CharString>
        <CharString name="dvDD_RA">
          -17 85 662 13 callsubr
        </CharString>
        <CharString name="dvDD_VA">
          30 330 -158 rmoveto
          -7 -25 -27 -4 -30 hhcurveto
          -44 -59 5 28 18 41 24 50 41 30 -23 -40 23 hvcurveto
          -242 819 -106 callgsubr
          345 47 callgsubr
          16 15 1 2 14 hvcurveto
          -11 -36 -8 -41 -8 -40 rrcurveto
          27 -32 -39 12 -41 hhcurveto
          -120 -88 -71 -81 -81 94 -39 104 37 34 5 9 34 hvcurveto
          -30 3 7 -24 19 hhcurveto
          40 8 58 36 4 hvcurveto
          9 88 37 164 13 80 rrcurveto
          35 24 20 35 35 133 callgsubr
          -98 callsubr
          endchar
        </CharString>
        <CharString name="dvDD_YA">
          644 488 474 rmoveto
          1 33 3 26 3 21 rrcurveto
          549 hlineto
          -3 -20 -3 -19 -2 -19 -46 -156 -117 -90 -149 -17 rrcurveto
          73 43 78 80 56 vvcurveto
          41 -70 60 -53 vhcurveto
          -85 -37 -39 -140 hhcurveto
          -405 188 36 callgsubr
          -99 107 -67 124 106 86 57 91 hvcurveto
          159 -236 -19 21 vvcurveto
          21 81 18 40 26 17 -10 -3 18 vhcurveto
          -5 23 23 -2 22 92 77 42 61 hhcurveto
          14 7 -4 -11 hvcurveto
          -57 -163 -68 -37 vvcurveto
          -51 66 -53 46 99 105 27 59 290 callgsubr
          -65 -13 callgsubr
          32 callgsubr
          endchar
        </CharString>
        <CharString name="dvDDxA">
          -17 214 -15 -78 callsubr
          -129 677 rmoveto
          -48 -21 -21 -31 -31 21 -25 48 hvcurveto
          308 hlineto
          -2 -15 -1 -16 -16 vvcurveto
          -9 vlineto
          6 -11 -11 4 -12 hhcurveto
          -86 -144 -72 -57 -29 46 -75 41 -12 hvcurveto
          -79 callgsubr
        </CharString>
        <CharString name="dvDH">
          -191 362 607 -8 callgsubr
          173 -259 rmoveto
          -58 -65 -148 -168 -40 callsubr
          72 callgsubr
          142 206 103 109 22 -11 18 -22 vhcurveto
          endchar
        </CharString>
        <CharString name="dvDHA">
          144 362 607 -43 callsubr
          72 callgsubr
          109 90 40 56 76 vhcurveto
          -11 -51 -10 -39 -14 65 callgsubr
        </CharString>
        <CharString name="dvDH_MA">
          535 936 435 -83 callgsubr
          49 368 243 callsubr
          -60 -12 -51 -15 -35 -22 rrcurveto
          -30 -54 -68 -111 -145 -60 callgsubr
          113 105 72 89 23 hvcurveto
          -16 10 20 -10 31 hhcurveto
          -153 53 -8 callgsubr
          153 55 rmoveto
          -29 -19 -8 -12 -11 hvcurveto
          37 -8 -27 26 -44 hhcurveto
          72 callgsubr
          82 103 34 50 73 vhcurveto
          -54 29 54 -50 55 hhcurveto
          107 callsubr
          hvcurveto
          52 8 56 8 49 11 -2 -13 rcurveline
          -15 -105 -20 -115 -23 -106 callsubr
        </CharString>
        <CharString name="dvDH_NA">
          150 279 -41 -28 callsubr
          83 648 rmoveto
          5 2 -2 -4 -40 -88 -51 -44 -7 hvcurveto
          53 39 53 51 33 hhcurveto
          198 55 14 callgsubr
          -135 -152 -180 -117 -53 23 -40 50 -12 hvcurveto
          199 callgsubr
          -44 -10 -40 -5 -25 -49 callgsubr
          -98 callsubr
          endchar
        </CharString>
        <CharString name="dvDH_N_YA">
          552 952 -101 callgsubr
          -449 -637 rmoveto
          -22 -43 -9 -21 -21 -22 5 24 15 19 24 30 28 vhcurveto
          39 -17 19 -22 -26 vvcurveto
          -51 491 112 callgsubr
          96 59 77 35 hvcurveto
          -1 4 6 0 5 hhcurveto
          49 -77 callgsubr
          -69 -82 -65 -58 -48 hvcurveto
          -41 -56 -93 -73 -147 hhcurveto
          -5 -2 1 2 35 56 75 52 25 hvcurveto
          14 7 13 5 8 vvcurveto
          19 -32 45 -22 -4 -7 -2 -4 -8 vhcurveto
          45 199 -8 callgsubr
          99 55 rmoveto
          -4 -4 0 -3 hhcurveto
          26 -13 298 callsubr
          -60 29 -43 65 -5 hvcurveto
          -28 -38 -20 -41 -40 vvcurveto
          -53 38 -30 64 11 12 1 1 13 vhcurveto
          -66 -59 -49 -58 -49 vvcurveto
          -72 64 -48 79 80 79 42 62 52 -35 48 -58 26 vhcurveto
          52 43 62 47 56 43 rrcurveto
          -16 18 21 -11 21 115 callgsubr
          113 -107 callgsubr
          endchar
        </CharString>
        <CharString name="dvDH_R">
          -148 362 607 rmoveto
          5 2 -2 -4 -39 -84 -50 -46 -9 hvcurveto
          56 42 53 48 28 hhcurveto
          196 -279 rmoveto
          -22 -19 -17 -15 -16 hvcurveto
          -70 -73 -80 -35 -104 hhcurveto
          -5 -2 1 2 35 76 70 52 25 hvcurveto
          14 7 13 5 8 vvcurveto
          19 -32 45 -22 -6 -11 -4 -6 -13 vhcurveto
          -14 -34 -51 -7 -36 hhcurveto
          -4 -1 1 3 12 3 14 7 15 hvcurveto
          -2 7 7 -1 7 250 callgsubr
          -124 -163 -168 -142 -56 25 -42 57 -9 hvcurveto
          -31 -37 -23 -41 -40 vvcurveto
          -53 38 -30 64 32 37 4 9 32 vhcurveto
          -81 -82 -74 -89 -29 vvcurveto
          -22 15 -10 16 39 105 111 82 77 vhcurveto
          50 53 123 113 61 vvcurveto
          22 -11 18 -22 vhcurveto
          endchar
        </CharString>
        <CharString name="dvDH_RA">
          150 362 607 rmoveto
          5 2 -2 -4 -40 -88 -51 -44 -7 hvcurveto
          53 39 53 51 33 hhcurveto
          198 55 14 callgsubr
          -135 -152 -180 -117 -53 23 -40 50 -12 hvcurveto
          199 callgsubr
          -41 -8 -36 -6 -26 rrcurveto
          6 -19 -20 4 -20 hhcurveto
          -55 -73 -35 -43 -64 hvcurveto
          -73 -50 -60 -61 -33 128 callgsubr
          33 20 -9 -7 19 hvcurveto
          -5 14 15 -5 20 hhcurveto
          0 1 vlineto
          35 24 157 155 35 hvcurveto
          11 callgsubr
        </CharString>
        <CharString name="dvDH_VA">
          459 918 256 callsubr
          -68 -78 -91 -34 hvcurveto
          -52 -56 -89 -91 -125 -60 callgsubr
          110 102 68 86 27 hvcurveto
          -12 11 18 -7 26 hhcurveto
          103 -337 -68 callgsubr
          -248 390 -8 callgsubr
          145 55 rmoveto
          -24 -17 -5 -9 -11 hvcurveto
          34 -10 -27 23 -41 hhcurveto
          72 callgsubr
          87 104 37 52 77 vhcurveto
          -80 4 28 -63 74 hhcurveto
          124 callsubr
          hvcurveto
          -93 callsubr
        </CharString>
        <CharString name="dvDH_YA">
          566 966 -101 callgsubr
          -514 -146 112 callgsubr
          95 58 77 35 hvcurveto
          79 -77 callgsubr
          -71 -87 -66 -58 -49 hvcurveto
          -39 -65 -111 -73 -135 143 callgsubr
          46 199 -8 callgsubr
          87 55 rmoveto
          26 -12 298 callsubr
          -59 28 -42 61 -7 hvcurveto
          260 callsubr
          90 133 35 50 91 vhcurveto
          -19 19 23 -12 22 115 callgsubr
          114 hlineto
          48 -103 callsubr
          25 -48 hvcurveto
          endchar
        </CharString>
        <CharString name="dvD_BA">
          187 callgsubr
          -162 -58 rmoveto
          -30 -8 10 18 19 15 21 22 20 hvcurveto
          287 callsubr
          -80 775 -106 callgsubr
          393 -13 callsubr
          -36 11 -29 20 -24 hvcurveto
          -75 -35 -74 -70 -72 vvcurveto
          -84 55 -38 93 53 59 20 31 50 vhcurveto
          -20 callsubr
          177 -104 callgsubr
        </CharString>
        <CharString name="dvD_BHA">
          305 281 -165 rmoveto
          -68 -21 -38 -32 -23 -35 25 21 27 48 23 63 12 vhcurveto
          -107 213 rmoveto
          -23 -18 6 16 26 32 55 25 25 19 -38 -50 15 hvcurveto
          -9 -22 -30 -6 -23 hhcurveto
          -117 612 -106 callgsubr
          659 -13 callsubr
          -97 80 -52 120 243 callgsubr
          -2 -10 rcurveline
          -46 12 -68 4 -78 1 rrcurveto
          141 -14 -56 189 -119 hhcurveto
          -84 -82 -129 -83 -64 65 -28 75 35 37 6 12 33 hvcurveto
          3 -17 3 -17 1 -17 rrcurveto
          -104 -18 -111 -55 -75 vvcurveto
          -75 97 -86 79 95 46 90 133 5 vhcurveto
          74 -1 48 -6 47 -1 rrcurveto
          -12 -62 -9 -62 -40 -19 callgsubr
          152 -104 callgsubr
        </CharString>
        <CharString name="dvD_B_RA">
          187 callgsubr
          -200 -30 rmoveto
          19 15 21 22 20 vhcurveto
          287 callsubr
          -30 -8 10 18 hvcurveto
          -32 747 -106 callgsubr
          383 -13 callsubr
          -36 11 -29 20 -24 hvcurveto
          -75 -35 -74 -70 -72 vvcurveto
          -74 43 -39 75 -8 vhcurveto
          -62 -50 -48 -50 -28 vvcurveto
          -15 9 -9 17 33 147 137 64 95 vhcurveto
          1 1 rlineto
          -20 callsubr
          154 -104 callgsubr
        </CharString>
        <CharString name="dvD_DA">
          -41 68 -75 callgsubr
          269 -2 hlineto
          -25 1 -24 1 -21 vhcurveto
          -118 -10 -110 -75 -73 vvcurveto
          -33 29 -25 37 -16 vhcurveto
          -77 -35 -71 -55 -45 vvcurveto
          -37 42 -50 30 -11 vhcurveto
          -14 39 32 -3 55 hhcurveto
          21 21 2 3 20 hvcurveto
          -109 8 65 -86 77 hhcurveto
          26 16 11 13 36 -104 13 -1 145 hvcurveto
          53 21 36 31 33 vvcurveto
          32 -18 20 -40 -37 -46 -18 -50 -22 vhcurveto
          -4 -23 -23 -3 -19 hhcurveto
          -60 -34 3 15 14 16 31 86 31 hvcurveto
          73 26 52 10 25 vvcurveto
          1 vlineto
          1 vlineto
          59 -151 -17 37 vvcurveto
          23 94 32 48 vhcurveto
          21 7 -10 15 hhcurveto
          6 7 7 11 6 hvcurveto
          17 26 6 63 52 vvcurveto
          9 -1 8 -2 7 vhcurveto
          171 -104 callgsubr
        </CharString>
        <CharString name="dvD_DHA">
          170 470 21 rmoveto
          -80 -45 -125 -119 -123 hhcurveto
          -9 -4 4 8 hvcurveto
          58 104 50 42 vvcurveto
          22 -13 9 -17 -10 -11 -3 -4 -11 vhcurveto
          0 vlineto
          -17 -44 -52 -7 -36 hhcurveto
          -4 -1 1 3 11 3 13 7 14 hvcurveto
          -2 7 7 -1 7 hhcurveto
          71 67 27 38 45 hvcurveto
          -40 34 60 -21 76 hhcurveto
          6 6 0 1 6 hvcurveto
          -225 156 rmoveto
          5 2 -2 -4 -35 -69 -30 -53 -6 hvcurveto
          42 36 45 35 34 hhcurveto
          -178 478 -106 callgsubr
          523 -37 callgsubr
          -83 -102 -105 -99 -51 hvcurveto
          2 -7 -8 1 -8 hhcurveto
          -116 -168 -164 -116 -63 41 -33 72 -1 hvcurveto
          -21 -30 -13 -31 -24 vvcurveto
          -47 30 -53 83 81 97 47 58 76 vhcurveto
          -11 -58 -8 -57 -37 -19 callgsubr
          293 callsubr
          endchar
        </CharString>
        <CharString name="dvD_GA">
          0 -10 234 callsubr
          48 822 -106 callgsubr
          373 -13 callsubr
          -29 7 -25 13 -20 hvcurveto
          1 -7 0 -6 -6 240 callgsubr
          96 79 142 147 12 hvcurveto
          -9 27 31 -4 35 hhcurveto
          243 callgsubr
          rrcurveto
          -21 -87 -21 -111 -60 -19 callgsubr
          141 -104 callgsubr
        </CharString>
        <CharString name="dvD_GHA">
          130 441 26 rmoveto
          -81 -43 -136 -123 -123 hhcurveto
          -3 -4 0 2 19 33 37 50 39 hvcurveto
          30 23 13 14 2 23 rrcurveto
          3 vlineto
          29 callsubr
          -53 8 18 vvcurveto
          19 56 50 48 25 vhcurveto
          -80 14 76 -42 108 hhcurveto
          6 6 0 1 6 hvcurveto
          -333 634 -106 callgsubr
          453 -37 callgsubr
          -86 -107 -113 -101 -48 hvcurveto
          -91 -14 -151 -123 -76 vvcurveto
          -49 48 -31 56 -16 vhcurveto
          -12 -11 rlineto
          -46 -45 -35 -54 -39 vvcurveto
          -58 37 -34 72 87 99 42 55 78 vhcurveto
          -10 -55 -7 -53 -35 -19 callgsubr
          293 callsubr
          endchar
        </CharString>
        <CharString name="dvD_G_RA">
          0 41 234 callsubr
          49 822 -106 callgsubr
          381 -13 callsubr
          -17 3 -16 4 -15 hvcurveto
          3 -14 2 -15 -16 240 callgsubr
          97 79 144 148 12 hvcurveto
          -11 28 35 -5 38 hhcurveto
          243 callgsubr
          -7 -28 -7 -32 -6 -31 rrcurveto
          -111 -71 -169 -127 -53 vvcurveto
          -15 9 -9 17 29 116 105 69 92 vhcurveto
          -3 -25 -2 -23 -18 -19 callgsubr
          156 -107 callgsubr
          endchar
        </CharString>
        <CharString name="dvD_MA">
          249 620 341 rmoveto
          -80 -30 -85 -27 -60 -21 -24 -9 -24 -8 -23 -7 rrcurveto
          -52 32 -52 21 46 vvcurveto
          30 28 17 47 vhcurveto
          60 5 -29 35 hhcurveto
          5 4 1 1 4 hvcurveto
          26 5 32 105 51 vvcurveto
          12 -1 12 -3 11 vhcurveto
          201 hlineto
          -14 -67 -12 -67 -16 -74 rrcurveto
          -289 -260 rmoveto
          -23 -40 -13 -39 -35 -18 5 15 20 47 16 68 21 vhcurveto
          11 -12 6 -13 -16 vvcurveto
          -246 576 -106 callgsubr
          287 hlineto
          -1 -9 -1 -9 -1 -9 -2 -20 -3 -19 -2 -17 rrcurveto
          10 -21 -25 6 -29 hhcurveto
          -115 -65 -72 -69 -77 48 -40 51 -32 hvcurveto
          -77 -30 -51 -34 -52 vvcurveto
          -77 80 -44 90 98 73 54 73 27 -5 23 -9 19 vhcurveto
          14 5 14 5 15 5 45 17 51 16 49 17 rrcurveto
          -14 -69 -9 -55 -36 -57 callsubr
          76 -104 callgsubr
        </CharString>
        <CharString name="dvD_NA">
          12 47 -216 -28 callsubr
          26 878 -106 callgsubr
          340 hlineto
          -13 -22 -9 -27 -2 -30 rrcurveto
          5 -15 -17 218 callsubr
          hvcurveto
          4 hlineto
          -8 -31 -5 -31 -29 vvcurveto
          -7 vlineto
          9 -21 -24 5 -26 hhcurveto
          -156 -154 -74 -91 -56 69 -63 79 80 29 64 52 28 -5 27 -8 21 hvcurveto
          6 24 26 3 28 hhcurveto
          35 32 -13 -17 27 hvcurveto
          4 -3 rlineto
          0 vlineto
          -3 6 7 -2 7 hhcurveto
          20 7 20 30 5 hvcurveto
          4 29 3 38 10 41 6 24 9 23 9 22 rrcurveto
          73 24 63 44 49 vvcurveto
          41 -30 37 -42 -47 -50 -44 -62 -37 vhcurveto
          -2 -15 -17 109 callgsubr
          20 21 14 21 10 hvcurveto
          6 11 2 16 18 vvcurveto
          66 15 48 13 35 vhcurveto
          135 -104 callgsubr
        </CharString>
        <CharString name="dvD_R">
          12 71 -260 rmoveto
          -37 callsubr
          43 922 -106 callgsubr
          299 hlineto
          -13 -22 -9 -27 -2 -30 rrcurveto
          5 -15 -17 218 callsubr
          hvcurveto
          -63 callgsubr
        </CharString>
        <CharString name="dvD_RA">
          12 114 -75 callgsubr
          299 hlineto
          -13 -22 -9 -27 -2 -30 rrcurveto
          5 -15 -17 218 callsubr
          hvcurveto
          -63 callgsubr
        </CharString>
        <CharString name="dvD_VA">
          0 225 30 rmoveto
          175 callsubr
          -38 -50 -55 -20 -57 hhcurveto
          -30 -8 10 18 50 102 65 61 hvcurveto
          -197 632 -106 callgsubr
          385 -13 callsubr
          -36 11 -29 20 -24 hvcurveto
          -75 -35 -74 -70 -72 vvcurveto
          -84 55 -38 93 53 59 20 31 50 vhcurveto
          -20 callsubr
          165 -104 callgsubr
        </CharString>
        <CharString name="dvD_YA">
          220 453 294 rmoveto
          1 vlineto
          0 vlineto
          2 vlineto
          -7 46 -146 -12 43 vvcurveto
          23 58 23 48 vhcurveto
          21 7 -10 15 hhcurveto
          8 9 11 15 5 hvcurveto
          13 27 7 46 21 vvcurveto
          9 -1 8 -2 7 vhcurveto
          134 hlineto
          -13 -79 -12 -72 -14 -76 rrcurveto
          -76 -53 -112 -91 -116 hhcurveto
          -6 -3 2 4 14 28 27 35 21 hvcurveto
          43 26 50 16 4 22 rrcurveto
          -291 370 -106 callgsubr
          220 -2 hlineto
          -9 0 -11 1 -11 vhcurveto
          -112 -9 -75 -63 -73 vvcurveto
          -50 35 -30 43 -15 vhcurveto
          -52 -30 -42 -45 -47 vvcurveto
          -56 66 -40 57 85 91 36 49 74 vhcurveto
          -6 -38 -4 -30 -10 vvcurveto
          -31 63 -40 20 35 19 182 128 25 vhcurveto
          18 89 28 106 7 50 rrcurveto
          106 -104 callgsubr
        </CharString>
        <CharString name="dvE">
          105 55 662 54 callgsubr
        </CharString>
        <CharString name="dvEcandra">
          115 545 721 rmoveto
          125 97 70 87 23 -49 38 -24 hvcurveto
          16 callgsubr
          vhcurveto
          -480 -59 54 callgsubr
        </CharString>
        <CharString name="dvEight">
          -50 65 214 rmoveto
          -107 80 -43 111 113 120 61 70 22 -12 8 -18 vhcurveto
          -35 -37 -45 -114 hhcurveto
          -39 -36 10 33 hvcurveto
          142 220 170 34 vvcurveto
          18 -61 45 -20 -48 -224 -250 -168 vhcurveto
          endchar
        </CharString>
        <CharString name="dvEyelash">
          309 298 rmoveto
          -32 -32 -57 -3 -46 148 callsubr
          74 73 23 45 48 vhcurveto
          endchar
        </CharString>
        <CharString name="dvEyelash_HA">
          138 361 -75 callgsubr
          234 hlineto
          73 callgsubr
          -29 10 -24 16 -22 hvcurveto
          -2 -2 -3 -1 -2 -2 -4 -2 -4 -2 -4 -3 rrcurveto
          -14 -32 -41 -2 -35 148 callsubr
          7 8 0 1 7 vhcurveto
          -5 -17 -3 -18 -19 vvcurveto
          -135 109 -94 143 177 callsubr
          vhcurveto
          -55 callsubr
        </CharString>
        <CharString name="dvEyelash_YA">
          293 693 -101 callgsubr
          -392 -89 callgsubr
          82 callsubr
          -26 -11 -25 -18 -24 hvcurveto
          -31 -32 -56 -3 -46 148 callsubr
          vhcurveto
          5 hlineto
          -21 -18 -15 -16 -11 vvcurveto
          173 callsubr
          -40 callgsubr
          vhcurveto
          -12 -74 -10 -64 -17 -106 callsubr
        </CharString>
        <CharString name="dvFive">
          -20 519 352 rmoveto
          29 -40 29 -45 -49 -34 -45 -59 -27 vhcurveto
          -1 -7 -7 0 -7 hhcurveto
          -45 -22 9 36 70 114 96 92 54 hvcurveto
          24 14 14 5 11 vvcurveto
          27 -59 35 -23 -116 -167 -197 -112 -90 62 -68 105 -5 vhcurveto
          -91 -29 -24 -85 -42 -46 -37 44 -29 hhcurveto
          -13 -5 -10 -12 -55 68 -54 74 137 8 141 144 53 hvcurveto
          66 29 56 52 59 vvcurveto
          endchar
        </CharString>
        <CharString name="dvFour">
          -18 305 156 rmoveto
          -21 -37 18 26 48 23 47 33 44 hvcurveto
          25 -46 14 -45 -57 vvcurveto
          -22 -13 -13 -24 vhcurveto
          -72 290 rmoveto
          -64 -74 -47 -81 -66 vvcurveto
          -74 97 -106 92 94 54 52 84 73 -30 90 -45 83 vhcurveto
          94 88 108 69 32 vvcurveto
          17 -14 14 -37 -54 -85 -49 -69 -79 vhcurveto
          77 -60 -70 54 -63 hhcurveto
          -25 -14 -10 -17 -36 111 -100 24 -33 hvcurveto
          endchar
        </CharString>
        <CharString name="dvG">
          -124 225 206 -88 callsubr
          282 callsubr
        </CharString>
        <CharString name="dvGA">
          104 225 164 callsubr
          -106 58 callsubr
          174 -88 callgsubr
          115 -92 callgsubr
          114 hlineto
          48 -103 callsubr
          25 -48 hvcurveto
          endchar
        </CharString>
        <CharString name="dvGH">
          -202 350 366 47 callsubr
          6 18 vvcurveto
          26 94 43 246 callsubr
          48 -103 callsubr
          25 -48 hvcurveto
          -431 hlineto
          171 callgsubr
          134 235 137 95 14 -3 19 -26 -22 -19 -14 -17 -17 vhcurveto
          -74 -70 -118 -57 -82 119 callgsubr
          endchar
        </CharString>
        <CharString name="dvGHA">
          94 350 84 callgsubr
          -273 302 rmoveto
          -48 -21 -21 -31 -31 21 -25 48 hvcurveto
          96 99 callsubr
        </CharString>
        <CharString name="dvGH_MA">
          528 929 435 -83 callgsubr
          -257 180 47 callsubr
          6 18 vvcurveto
          26 94 43 129 callgsubr
          257 151 callsubr
          -70 -14 -58 -18 -35 -29 -7 -6 rcurveline
          -61 -73 -93 -69 -102 116 callgsubr
          76 109 46 56 80 vhcurveto
          -59 27 58 -57 59 hhcurveto
          107 callsubr
          hvcurveto
          52 8 56 8 49 11 -2 -13 rcurveline
          -15 -105 -20 -115 -23 -106 callsubr
        </CharString>
        <CharString name="dvGH_NA">
          80 callgsubr
          -117 -412 -28 callsubr
          -165 703 -106 callgsubr
          102 185 callgsubr
          -9 -41 -8 -35 -5 -24 -49 callgsubr
          112 -104 callgsubr
        </CharString>
        <CharString name="dvGH_R">
          -172 78 -75 callgsubr
          101 hlineto
          -45 -32 -36 -40 -38 vvcurveto
          -48 50 -30 57 -15 vhcurveto
          -54 -42 -50 -56 -42 vvcurveto
          -58 37 -34 72 24 19 4 6 16 vhcurveto
          -73 -82 -102 -108 -41 vvcurveto
          -16 9 -14 20 54 120 132 88 81 vhcurveto
          78 84 136 131 39 vvcurveto
          25 -21 31 -34 vhcurveto
          -29 -83 -176 -203 hhcurveto
          -3 -4 0 2 11 47 38 53 36 hvcurveto
          31 22 13 14 1 26 rrcurveto
          2 vlineto
          53 callgsubr
          5 18 vvcurveto
          26 94 42 49 vhcurveto
          29 3 -12 21 hhcurveto
          11 4 6 15 9 -5 12 -7 13 hvcurveto
          155 -104 callgsubr
        </CharString>
        <CharString name="dvGH_RA">
          80 callgsubr
          -283 291 -106 callgsubr
          103 185 callgsubr
          -8 -38 -8 -33 -5 -23 rrcurveto
          6 -19 -21 4 -20 hhcurveto
          -53 -70 -32 -41 -62 hvcurveto
          -76 -51 -64 -64 -34 128 callgsubr
          27 22 -7 -8 21 hvcurveto
          -6 16 14 -5 21 hhcurveto
          1 hlineto
          1 hlineto
          35 24 157 155 35 hvcurveto
          11 callgsubr
        </CharString>
        <CharString name="dvGH_YA">
          566 966 -101 callgsubr
          -480 -188 47 callsubr
          6 18 vvcurveto
          26 94 43 129 callgsubr
          125 -77 callgsubr
          -76 -100 -71 -58 -49 hvcurveto
          -17 -11 -25 -16 -33 -16 rrcurveto
          -28 -58 -84 -28 -125 116 callgsubr
          107 148 35 53 86 vhcurveto
          -22 19 27 -16 25 115 callgsubr
          114 hlineto
          48 -103 callsubr
          25 -48 hvcurveto
          endchar
        </CharString>
        <CharString name="dvG_BA">
          502 599 224 -44 callgsubr
          -593 -22 -88 callsubr
          516 136 callsubr
          -130 -110 -163 -132 199 callsubr
          hvcurveto
          -33 callgsubr
        </CharString>
        <CharString name="dvG_BHA">
          539 608 163 callsubr
          -522 -291 -71 callsubr
          725 456 134 callgsubr
          -25 -167 -27 -3 -33 -5 -46 -5 rlinecurve
          9 40 4 42 41 152 callgsubr
          -48 -41 -30 -41 -27 vhcurveto
          20 -7 -21 16 -38 hhcurveto
          -48 callsubr
          15 13 3 5 10 hvcurveto
          -4 -15 -2 -15 -14 145 callgsubr
          14 vhcurveto
          -2 -14 -4 -13 -3 -14 rrcurveto
          -145 -15 -117 -17 -95 vvcurveto
          -75 71 -100 79 73 72 86 115 44 vhcurveto
          43 4 43 5 37 7 rrcurveto
          -14 -93 -16 -93 -20 -106 callsubr
        </CharString>
        <CharString name="dvG_BH_YA">
          990 1390 -35 callsubr
          139 338 rmoveto
          -1 -9 -7 -1 -7 hhcurveto
          -36 -12 17 20 22 14 35 25 25 7 -38 -47 hvcurveto
          -538 -291 -71 callsubr
          637 456 165 callgsubr
          -58 -48 -44 -53 -25 hvcurveto
          1 3 0 4 3 vvcurveto
          27 -20 25 -48 vhcurveto
          -48 callsubr
          30 19 11 15 10 hvcurveto
          -7 -20 -4 -21 -21 vvcurveto
          105 callsubr
          1 hlineto
          42 4 43 3 41 4 rrcurveto
          -2 -3 -1 -3 -3 vvcurveto
          173 callsubr
          -40 callgsubr
          vhcurveto
          -12 -74 -10 -64 -17 -106 callsubr
        </CharString>
        <CharString name="dvG_DA">
          397 225 206 -88 callsubr
          379 216 callsubr
          -86 callsubr
        </CharString>
        <CharString name="dvG_DA_mU">
          397 225 206 -88 callsubr
          379 -13 callsubr
          -97 80 -52 120 7 8 0 1 7 hvcurveto
          -94 callgsubr
        </CharString>
        <CharString name="dvG_DA_mUU">
          400 532 -279 18 callgsubr
          -307 485 -88 callsubr
          379 216 callsubr
          -91 callsubr
        </CharString>
        <CharString name="dvG_DHA">
          588 225 206 -88 callsubr
          124 -107 callgsubr
          273 -55 -43 callsubr
          72 callgsubr
          109 90 40 56 76 vhcurveto
          -11 -51 -10 -39 -14 65 callgsubr
        </CharString>
        <CharString name="dvG_DH_VA">
          829 980 217 -68 callgsubr
          -274 390 -8 callgsubr
          -541 -401 -71 callsubr
          712 456 93 callgsubr
          -86 -63 -61 -76 -37 hvcurveto
          -25 -48 -101 -150 -160 -40 callsubr
          -56 -68 -38 -55 -56 hvcurveto
          26 -1 -20 24 -47 hhcurveto
          -48 callsubr
          7 7 1 1 6 hvcurveto
          -35 -49 -24 -56 -53 vvcurveto
          -55 24 -41 54 -10 vhcurveto
          -29 -35 -21 -40 -38 vvcurveto
          -53 38 -30 64 97 119 46 62 78 vhcurveto
          -90 26 -72 152 callsubr
          vhcurveto
          -93 callsubr
        </CharString>
        <CharString name="dvG_DH_YA">
          957 1357 -101 callgsubr
          -514 -146 112 callgsubr
          95 58 77 35 hvcurveto
          3 hlineto
          76 -77 callgsubr
          -71 -87 -66 -58 -49 hvcurveto
          -39 -65 -111 -73 -135 143 callgsubr
          46 199 -8 callgsubr
          -528 -401 -71 callsubr
          615 456 rmoveto
          26 -12 -25 17 -35 hhcurveto
          -52 -63 -33 -49 -54 hvcurveto
          21 -5 -21 18 -40 hhcurveto
          -48 callsubr
          6 hlineto
          -35 -49 -23 -55 -52 vvcurveto
          -59 28 -42 61 -7 vhcurveto
          260 callsubr
          90 133 35 50 91 vhcurveto
          -19 19 23 -12 22 115 callgsubr
          112 -107 callgsubr
          endchar
        </CharString>
        <CharString name="dvG_GA">
          504 641 164 callsubr
          -416 hmoveto
          -22 -25 56 19 19 21 11 39 11 13 -1 -2 14 hvcurveto
          -59 -11 -17 -43 -23 hhcurveto
          310 456 rmoveto
          -1 hlineto
          -1 hlineto
          -48 callsubr
          1 hlineto
          1 hlineto
          174 -88 callgsubr
          115 -92 callgsubr
          114 hlineto
          48 -103 callsubr
          25 -48 hvcurveto
          endchar
        </CharString>
        <CharString name="dvG_GHA">
          507 763 84 callgsubr
          -538 -154 -88 callsubr
          177 99 callsubr
        </CharString>
        <CharString name="dvG_JA">
          638 225 164 callsubr
          312 456 rmoveto
          -2 hlineto
          -2 hlineto
          -48 callsubr
          2 hlineto
          2 hlineto
          511 hlineto
          -20 -135 rlineto
          -70 callsubr
          -106 -72 -139 -119 -74 callgsubr
        </CharString>
        <CharString name="dvG_LA">
          641 225 206 -88 callsubr
          650 76 callgsubr
          -47 callgsubr
          115 -107 callgsubr
          endchar
        </CharString>
        <CharString name="dvG_MA">
          538 939 435 -83 callgsubr
          -392 20 -88 callsubr
          257 151 callsubr
          -117 -24 -83 -34 -78 108 callgsubr
          107 callsubr
          vhcurveto
          52 8 56 8 49 11 -2 -13 rcurveline
          -15 -105 -20 -115 -23 -106 callsubr
        </CharString>
        <CharString name="dvG_NA">
          199 352 -43 -28 callsubr
          -117 249 -71 callsubr
          -115 58 callsubr
          183 -88 callgsubr
          205 253 callsubr
          -12 -81 -20 -80 -8 -43 rrcurveto
          5 -15 -17 2 -17 hhcurveto
          -156 -154 -74 -91 -56 69 -63 79 80 29 64 52 28 -5 27 -8 21 hvcurveto
          6 24 26 3 28 hhcurveto
          34 31 -13 -16 27 hvcurveto
          5 -4 rlineto
          1 0 hlineto
          -2 4 3 -1 3 136 callgsubr
          57 -104 callgsubr
        </CharString>
        <CharString name="dvG_NNA">
          562 792 111 callsubr
          -461 -348 -88 callsubr
          143 -31 callgsubr
          123 hlineto
          -12 -84 -12 -75 -12 -82 rrcurveto
          -15 -105 -29 -97 -23 65 callgsubr
        </CharString>
        <CharString name="dvG_N_YA">
          970 1370 -101 callgsubr
          -566 230 callgsubr
          -443 41 -71 callsubr
          315 456 rmoveto
          -4 hlineto
          -3 hlineto
          -48 callsubr
          3 hlineto
          4 hlineto
          388 -77 callgsubr
          -46 -36 -44 -42 -38 hvcurveto
          34 -37 -139 15 -98 -75 callsubr
          190 callgsubr
          12 11 0 1 10 hvcurveto
          -31 -25 -23 -21 -14 vvcurveto
          173 callsubr
          -40 callgsubr
          vhcurveto
          -12 -74 -10 -64 -17 -106 callsubr
        </CharString>
        <CharString name="dvG_R">
          -89 599 224 37 callgsubr
        </CharString>
        <CharString name="dvG_RA">
          214 235 206 4 callgsubr
        </CharString>
        <CharString name="dvG_R_YA">
          613 1013 -101 callgsubr
          -642 -348 -71 callsubr
          -187 58 callsubr
          255 hlineto
          -1 -15 0 -15 -16 vvcurveto
          -33 -1 -35 -3 -35 vhcurveto
          2 -18 -17 1 -17 hhcurveto
          -95 -76 -28 -86 -84 82 -114 84 141 40 241 162 19 0 19 -2 17 hvcurveto
          151 -77 callgsubr
          -79 -109 -74 -56 -49 hvcurveto
          -109 -67 -285 -246 -73 vvcurveto
          301 callsubr
          38 105 118 68 78 vhcurveto
          56 49 48 39 36 30 rrcurveto
          -19 18 24 -13 23 115 callgsubr
          114 hlineto
          48 -103 callsubr
          25 -48 hvcurveto
          endchar
        </CharString>
        <CharString name="dvG_SA">
          662 1053 386 -5 callgsubr
          -853 -348 -88 callsubr
          182 -96 callsubr
          75 2 92 12 79 22 rrcurveto
          -14 -91 -15 -88 -20 vvcurveto
          -52 33 -21 25 54 13 -105 callsubr
          endchar
        </CharString>
        <CharString name="dvG_VA">
          441 592 217 -68 callgsubr
          -367 -11 -88 callsubr
          491 hlineto
          -52 callgsubr
          -146 -79 -175 -132 -90 26 -73 152 callsubr
          hvcurveto
          -93 callsubr
        </CharString>
        <CharString name="dvG_YA">
          549 949 -101 callgsubr
          -588 -348 -88 callsubr
          98 -77 callgsubr
          hvcurveto
          -107 -197 -96 -41 vvcurveto
          173 callsubr
          -40 callgsubr
          vhcurveto
          -12 -74 -10 -64 -17 -106 callsubr
        </CharString>
        <CharString name="dvGx">
          -124 121 -69 callsubr
          104 166 -88 callsubr
          282 callsubr
        </CharString>
        <CharString name="dvGxA">
          104 121 -69 callsubr
          104 166 -71 callsubr
          -106 58 callsubr
          174 -88 callgsubr
          115 -92 callgsubr
          114 hlineto
          48 -103 callsubr
          25 -48 hvcurveto
          endchar
        </CharString>
        <CharString name="dvGx_R">
          -89 31 105 -78 callsubr
          568 119 37 callgsubr
        </CharString>
        <CharString name="dvGx_RA">
          214 31 105 -78 callsubr
          204 101 4 callgsubr
        </CharString>
        <CharString name="dvH">
          -69 152 -75 callgsubr
          236 hlineto
          73 callgsubr
          -30 11 -24 16 -22 hvcurveto
          -71 -33 -46 -62 -75 vvcurveto
          -135 109 -94 143 177 callsubr
          vhcurveto
          -69 12 -94 26 105 vvcurveto
          60 43 35 75 vhcurveto
          155 30 -58 46 hhcurveto
          30 13 12 20 81 -174 51 -105 -8 -7 0 -1 -8 hvcurveto
          -2 6 -1 7 8 vvcurveto
          22 18 15 75 vhcurveto
          28 26 -2 22 hhcurveto
          15 14 1 4 10 hvcurveto
          36 8 12 69 50 vvcurveto
          18 -3 18 -5 17 vhcurveto
          106 -104 callgsubr
        </CharString>
        <CharString name="dvHA">
          -69 154 -75 callgsubr
          234 hlineto
          73 callgsubr
          -30 11 -24 16 -22 hvcurveto
          -71 -33 -46 -62 -75 vvcurveto
          -135 109 -94 143 177 callsubr
          vhcurveto
          -55 callsubr
        </CharString>
        <CharString name="dvHA_mU">
          -69 240 -104 rmoveto
          276 callgsubr
          30 21 -12 -26 -38 -65 -25 -108 hvcurveto
          -148 -44 67 -39 hhcurveto
          -21 -12 -9 -19 -40 113 -89 142 165 110 60 101 66 -51 48 -90 hvcurveto
          -102 766 -106 callgsubr
          250 48 callsubr
          130 -104 callgsubr
        </CharString>
        <CharString name="dvHA_mUU">
          -69 416 -218 rmoveto
          52 -79 -90 59 -85 hhcurveto
          -88 -63 -51 -81 -82 68 -57 97 46 44 25 32 20 -38 0 -42 -38 -38 17 32 32 19 19 46 48 50 -34 -44 74 hvcurveto
          -47 79 78 -55 35 hhcurveto
          20 10 9 19 33 -72 49 -81 53 hvcurveto
          -276 880 -106 callgsubr
          248 48 callsubr
          126 -107 callgsubr
          endchar
        </CharString>
        <CharString name="dvHA_mvR">
          78 101 callgsubr
          387 248 callgsubr
          -20 9 -17 13 -15 hvcurveto
          -142 -32 -91 -104 -148 117 callsubr
          102 104 95 136 vhcurveto
          11 9 0 9 hhcurveto
          31 -11 22 -10 -12 -24 -190 -23 -115 vvcurveto
          -72 59 -48 91 95 79 50 65 11 -6 7 -10 vhcurveto
          -32 -29 -47 -80 hhcurveto
          -44 -21 14 21 hvcurveto
          40 202 26 92 119 -218 0 48 209 callgsubr
          147 -104 callgsubr
        </CharString>
        <CharString name="dvH_LA">
          216 75 -75 callgsubr
          392 128 callsubr
          -53 -83 -26 9 -20 15 -18 hvcurveto
          -125 -44 -88 -109 -149 229 callsubr
          113 100 93 118 18 vhcurveto
          59 -19 65 -16 55 -22 -31 -14 -26 -24 -15 -33 rrcurveto
          25 -24 -29 11 -47 hhcurveto
          -63 -74 -52 -85 -90 67 -52 65 23 20 12 19 hvcurveto
          34 -80 -7 69 vvcurveto
          36 20 26 35 vhcurveto
          79 -20 -75 55 hhcurveto
          21 8 15 17 hvcurveto
          10 -1 5 6 vvcurveto
          49 27 31 46 37 27 -24 -48 1 vhcurveto
          -1 -55 -17 -43 -25 vvcurveto
          -20 6 -14 22 41 42 96 92 vhcurveto
          219 -415 25 55 vvcurveto
          14 32 12 61 71 callsubr
          312 -104 callgsubr
        </CharString>
        <CharString name="dvH_MA">
          367 573 196 rmoveto
          -63 111 -169 -9 46 209 callgsubr
          197 253 callsubr
          -4 -31 -5 -32 -5 -31 -41 -6 -56 -9 -65 -8 rrcurveto
          -144 -199 rmoveto
          -21 -27 30 28 17 45 10 64 7 hvcurveto
          -63 -3 -32 -29 -26 hhcurveto
          -404 665 -106 callgsubr
          441 248 callgsubr
          -23 6 -18 12 -15 hvcurveto
          -133 -36 -84 -102 -142 117 callsubr
          100 100 94 133 3 vhcurveto
          26 -9 26 -10 21 -13 rrcurveto
          -103 -14 -61 -20 -81 vvcurveto
          -74 72 -91 83 96 68 89 109 vhcurveto
          1 vlineto
          41 3 43 4 40 5 rrcurveto
          -3 -20 -2 -15 -7 192 callgsubr
        </CharString>
        <CharString name="dvH_NA">
          131 392 -19 -28 callsubr
          -308 681 -106 callgsubr
          383 128 callsubr
          -53 -83 -27 8 -21 13 -17 hvcurveto
          -124 -46 -86 -107 -148 229 callsubr
          110 95 92 115 21 vhcurveto
          60 -20 65 -16 41 -33 rrcurveto
          -150 -6 -142 -72 -87 vvcurveto
          -56 69 -63 79 80 29 64 52 28 -5 27 -8 21 vhcurveto
          6 24 26 3 28 hhcurveto
          4 4 0 -1 4 hvcurveto
          -6 vlineto
          -36 -10 -37 -26 vvcurveto
          -20 6 -14 22 41 34 84 74 vhcurveto
          207 -315 7 55 vvcurveto
          14 32 12 61 71 callsubr
          133 -104 callgsubr
        </CharString>
        <CharString name="dvH_NNA">
          117 427 176 rmoveto
          -71 -29 -125 -71 -19 -11 21 28 96 30 53 9 32 vhcurveto
          0 vlineto
          30 -9 31 -8 30 -9 rrcurveto
          -379 478 -106 callgsubr
          389 128 callsubr
          -53 -83 -26 8 -22 15 -17 hvcurveto
          -125 -45 -87 -107 -149 229 callsubr
          72 40 64 60 41 vhcurveto
          -13 -45 -6 -49 -34 vvcurveto
          -85 42 -69 74 129 84 141 116 vhcurveto
          2 vlineto
          29 -21 19 -28 -41 -58 -18 -45 -26 vvcurveto
          -20 6 -14 22 41 42 96 92 vhcurveto
          207 -355 7 55 vvcurveto
          14 32 12 61 71 callsubr
          205 -104 callgsubr
        </CharString>
        <CharString name="dvH_RA">
          46 94 -75 callgsubr
          343 128 callsubr
          -53 -83 -27 9 -20 14 -17 hvcurveto
          -118 -41 -74 -98 -133 117 callsubr
          93 87 88 119 14 vhcurveto
          43 -16 41 -17 19 -33 rrcurveto
          -80 -21 -121 -93 -52 vvcurveto
          -27 18 -8 22 26 30 28 30 45 vhcurveto
          24 16 26 16 23 15 rrcurveto
          -59 2 7 -43 26 hhcurveto
          45 22 84 70 hvcurveto
          200 -248 -7 50 vvcurveto
          14 32 12 61 71 callsubr
          151 -104 callgsubr
        </CharString>
</ttFont>
